<svg width="25" height="26" viewBox="0 0 25 26" fill="none" xmlns="http://www.w3.org/2000/svg">
<path d="M24.7972 18.1178C24.5908 17.7666 24.0103 17.2203 22.5656 17.4805C21.7659 17.6236 20.9532 17.6886 20.1406 17.6496C17.1351 17.5195 14.4134 16.1278 12.5173 13.9816C10.8404 12.0956 9.8085 9.63731 9.7956 6.9839C9.7956 5.50111 10.0793 4.07036 10.6598 2.71764C11.2274 1.40394 10.8275 0.714578 10.5437 0.428426C10.247 0.129268 9.55052 -0.286953 8.18322 0.28535C2.9075 2.52254 -0.355957 7.85536 0.0310147 13.5654C0.417986 18.9373 4.15871 23.5287 9.11195 25.2586C10.2986 25.6748 11.5498 25.922 12.8397 25.974C13.0461 25.987 13.2525 26 13.4589 26C17.7801 26 21.8304 23.9449 24.3844 20.4461C25.2486 19.2364 25.0164 18.469 24.7972 18.1178Z" fill="#364958"/>
</svg>
