<svg width="11" height="11" viewBox="0 0 11 11" fill="none" xmlns="http://www.w3.org/2000/svg">
<path d="M10.9999 5.46597C10.987 4.4114 10.6749 3.38247 10.1003 2.50039C9.52565 1.61831 8.71252 0.919798 7.75659 0.487127C6.8006 0.0544564 5.74168 -0.0943536 4.70449 0.0582126C3.66731 0.210786 2.69505 0.658378 1.90222 1.3483C1.10939 2.03821 0.529007 2.94171 0.22942 3.95238C-0.0701601 4.96307 -0.0764717 6.03882 0.211242 7.05299C0.498955 8.06717 1.0687 8.97745 1.85339 9.67675C2.63807 10.376 3.60502 10.8352 4.64034 11V7.07776H3.26531V5.46597H4.64034V4.24157C4.60851 3.95689 4.63917 3.66863 4.7302 3.39715C4.82123 3.12568 4.97035 2.87762 5.16705 2.67047C5.36375 2.46332 5.60321 2.30214 5.8686 2.1983C6.13398 2.09445 6.41882 2.05048 6.7029 2.06949C7.11528 2.07516 7.52669 2.11217 7.93356 2.18017V3.56367H7.24604C7.12751 3.54863 7.00706 3.56058 6.89376 3.59865C6.78038 3.63671 6.67698 3.69992 6.59118 3.7836C6.50538 3.86727 6.43937 3.96928 6.39805 4.08205C6.35667 4.19488 6.34106 4.31559 6.35227 4.43526V5.47981H7.87856L7.63105 7.09159H6.35914V10.9654C7.65849 10.7586 8.84116 10.0901 9.69258 9.08115C10.544 8.07215 11.0078 6.78957 10.9999 5.46597Z" fill="#515151"/>
</svg>
