<svg width="10" height="12" viewBox="0 0 10 12" fill="none" xmlns="http://www.w3.org/2000/svg">
<path d="M9.21835 0.375984C9.15453 0.218898 9.03135 0.098712 8.87988 0.045762L8.87877 0.0453839L8.87771 0.0450059L8.87547 0.0442439L8.87083 0.0426839L8.86089 0.0394979C8.85394 0.0373379 8.84641 0.0351358 8.8383 0.0329218C8.82206 0.0284938 8.80347 0.0240419 8.78259 0.0199139C8.74071 0.0116459 8.68983 0.00472189 8.62983 0.00167389C8.50936 -0.00444611 8.35506 0.00514787 8.16565 0.0483239C7.84977 0.120318 7.43972 0.284784 6.9249 0.621786C6.89125 0.643812 6.85713 0.666576 6.8226 0.690096C6.78802 0.681366 6.75343 0.67293 6.71878 0.6648C5.78002 0.444498 4.80832 0.444498 3.86954 0.6648C3.83488 0.672936 3.80027 0.681366 3.7657 0.690102C3.73114 0.666576 3.69703 0.643812 3.66336 0.621786C3.148 0.28461 2.73699 0.120174 2.42031 0.0482339C2.23045 0.00511189 2.07582 -0.00442812 1.95528 0.00166788C1.8952 0.00470388 1.84432 0.0115859 1.80251 0.0197939C1.78164 0.0238919 1.76312 0.0283019 1.74695 0.0326819C1.73887 0.0348719 1.73138 0.0370559 1.72448 0.0391859L1.71458 0.0423359L1.70998 0.043866L1.70776 0.0446218L1.70667 0.0449939L1.70559 0.0453659C1.55281 0.0983819 1.42868 0.219738 1.36499 0.378366C1.12774 0.96924 1.06476 1.6208 1.17902 2.24584C1.18458 2.2762 1.19055 2.30651 1.19694 2.33675C1.17244 2.37224 1.14864 2.40821 1.12554 2.44463C0.769238 3.00653 0.579722 3.67675 0.588604 4.36496C0.589457 5.8389 1.01155 6.84834 1.7254 7.4979C2.12948 7.86558 2.59847 8.09064 3.06982 8.23248C3.12376 8.24874 3.17773 8.26386 3.23163 8.27802C3.22376 8.30592 3.21643 8.33406 3.20963 8.36238C3.18109 8.48142 3.16217 8.60364 3.15341 8.72766C3.15262 8.73888 3.15212 8.7501 3.15192 8.76132L3.13196 9.8526L3.13185 9.86442C3.13185 9.86784 3.13185 9.87126 3.13185 9.87462C3.09564 9.8838 3.05883 9.89058 3.02164 9.89496C2.90704 9.90846 2.79097 9.89862 2.68004 9.86604C2.56911 9.83346 2.46544 9.77874 2.375 9.70494C2.28456 9.63114 2.20912 9.53964 2.15311 9.43566L2.14734 9.42522C1.99314 9.1521 1.78015 8.91834 1.52436 8.7417C1.26856 8.565 0.976701 8.45016 0.670862 8.40594C0.349206 8.35944 0.0514898 8.58768 0.00589598 8.91582C-0.0396978 9.2439 0.184095 9.54756 0.505752 9.59406C0.63421 9.61266 0.756985 9.6609 0.864773 9.73536C0.971296 9.80892 1.06045 9.90618 1.12552 10.02C1.25564 10.2595 1.43037 10.4708 1.64 10.6419C1.85148 10.8145 2.09429 10.9427 2.35453 11.0192C2.60791 11.0936 2.87288 11.1175 3.13498 11.0895C3.1355 11.2334 3.13588 11.3439 3.13588 11.4C3.13588 11.7314 3.3854 12 3.6932 12H6.91513C7.2229 12 7.47242 11.7314 7.47242 11.4V9.1257C7.4876 8.86812 7.46172 8.60994 7.39631 8.36238C7.38731 8.3283 7.37754 8.2944 7.36707 8.26074C7.40219 8.2518 7.43731 8.24238 7.47242 8.23248C7.95742 8.09622 8.44189 7.87344 8.85806 7.49898C9.57588 6.85302 9.99888 5.84274 9.9997 4.36496C10.0086 3.67675 9.81906 3.00653 9.46276 2.44463C9.43965 2.40815 9.41582 2.37212 9.39123 2.33657C9.39759 2.30639 9.40353 2.27615 9.40906 2.24584C9.52306 1.6196 9.45847 0.966852 9.21835 0.375984Z" fill="#515151"/>
</svg>
