<svg width="31" height="31" viewBox="0 0 31 31" fill="none" xmlns="http://www.w3.org/2000/svg">
<path d="M15.5 24.4647C10.5484 24.4647 6.53528 20.4516 6.53528 15.4999C6.53528 10.5483 10.5484 6.53525 15.5 6.53525C20.4507 6.53525 24.4648 10.5484 24.4648 15.5C24.4648 20.4516 20.4507 24.4647 15.5 24.4647Z" fill="#F6C87E"/>
<path d="M15.5 27.2669C16.5302 27.2669 17.3665 28.1033 17.3665 29.1335C17.3665 30.1646 16.5302 31 15.5 31C14.4688 31 13.6334 30.1646 13.6334 29.1335C13.6334 28.1032 14.4688 27.2669 15.5 27.2669Z" fill="#F6C87E"/>
<path d="M15.5 3.73309C14.4688 3.73309 13.6334 2.89773 13.6334 1.86655C13.6334 0.836288 14.4688 1.4782e-05 15.5 1.4782e-05C16.5302 1.4782e-05 17.3665 0.836349 17.3665 1.86655C17.3665 2.89773 16.5302 3.73309 15.5 3.73309Z" fill="#F6C87E"/>
<path d="M7.17861 23.8205C7.90802 24.5499 7.90802 25.7306 7.17861 26.46C6.45017 27.1894 5.26854 27.1894 4.5401 26.46C3.81069 25.7306 3.81069 24.5499 4.5401 23.8205C5.26854 23.0911 6.45011 23.0911 7.17861 23.8205Z" fill="#F6C87E"/>
<path d="M23.8205 7.17953C23.0921 6.45012 23.0921 5.26849 23.8205 4.54005C24.5499 3.81064 25.7315 3.81064 26.46 4.54005C27.1884 5.26849 27.1894 6.45012 26.46 7.17953C25.7315 7.90797 24.5499 7.90797 23.8205 7.17953Z" fill="#F6C87E"/>
<path d="M1.86654 17.3656C0.835365 17.3656 0 16.5303 0 15.5C0 14.4688 0.835365 13.6335 1.86654 13.6335C2.8968 13.6335 3.73217 14.4688 3.73217 15.5C3.73217 16.5303 2.8968 17.3656 1.86654 17.3656Z" fill="#F6C87E"/>
<path d="M29.1334 17.3656C28.1031 17.3656 27.2668 16.5312 27.2668 15.4999C27.2668 14.4687 28.1032 13.6334 29.1334 13.6334C30.1646 13.6335 30.9999 14.4688 30.9999 15.5C30.999 16.5303 30.1646 17.3656 29.1334 17.3656Z" fill="#F6C87E"/>
<path d="M4.53998 7.17953C3.81057 6.45012 3.81057 5.26849 4.53998 4.54005C5.26842 3.81064 6.45005 3.81064 7.17946 4.54005C7.9079 5.26849 7.9079 6.45012 7.17946 7.17856C6.45005 7.90797 5.26848 7.90797 4.53998 7.17953Z" fill="#F6C87E"/>
<path d="M23.8215 26.46C23.0921 25.7305 23.0921 24.5499 23.8205 23.8205C24.5499 23.0911 25.7315 23.0911 26.46 23.8205C27.1894 24.5499 27.1894 25.7305 26.46 26.46C25.7315 27.1884 24.5499 27.1893 23.8215 26.46Z" fill="#F6C87E"/>
</svg>
