<svg width="11" height="11" viewBox="0 0 11 11" fill="none" xmlns="http://www.w3.org/2000/svg">
<path d="M10.5417 6.87499C10.2667 6.87499 10.0834 6.69166 10.0834 6.41666V4.12499C10.0834 3.84999 10.2667 3.66666 10.5417 3.66666C10.8167 3.66666 11 3.84999 11 4.12499V6.41666C11 6.69166 10.8167 6.87499 10.5417 6.87499Z" fill="#C6C6C6"/>
<path d="M6.41663 11H4.12496C3.84996 11 3.66663 10.8167 3.66663 10.5417C3.66663 10.2667 3.84996 10.0833 4.12496 10.0833H6.41663C6.69163 10.0833 6.87496 10.2667 6.87496 10.5417C6.87496 10.8167 6.69163 11 6.41663 11Z" fill="#C6C6C6"/>
<path d="M0.458333 6.87499C0.183333 6.87499 0 6.69166 0 6.41666V4.12499C0 3.84999 0.183333 3.66666 0.458333 3.66666C0.733333 3.66666 0.916667 3.84999 0.916667 4.12499V6.41666C0.916667 6.69166 0.733333 6.87499 0.458333 6.87499Z" fill="#C6C6C6"/>
<path d="M10.5417 2.75C10.2667 2.75 10.0834 2.56667 10.0834 2.29167V1.83333C10.0834 1.32917 9.67085 0.916667 9.16669 0.916667H8.25002C7.97502 0.916667 7.79169 0.733333 7.79169 0.458333C7.79169 0.183333 7.97502 0 8.25002 0H9.16669C10.175 0 11 0.825 11 1.83333V2.29167C11 2.56667 10.8167 2.75 10.5417 2.75Z" fill="#C6C6C6"/>
<path d="M0.458333 2.75C0.183333 2.75 0 2.56667 0 2.29167V1.83333C0 0.825 0.825 0 1.83333 0H2.29167C2.56667 0 2.75 0.183333 2.75 0.458333C2.75 0.733333 2.56667 0.916667 2.29167 0.916667H1.83333C1.32917 0.916667 0.916667 1.32917 0.916667 1.83333V2.29167C0.916667 2.56667 0.733333 2.75 0.458333 2.75Z" fill="#C6C6C6"/>
<path d="M6.41669 0.916667H4.12502C3.85002 0.916667 3.66669 0.733333 3.66669 0.458333C3.66669 0.183333 3.85002 0 4.12502 0H6.41669C6.69169 0 6.87502 0.183333 6.87502 0.458333C6.87502 0.733333 6.69169 0.916667 6.41669 0.916667Z" fill="#C6C6C6"/>
<path d="M2.29167 11H1.83333C0.825 11 0 10.175 0 9.16666V8.24999C0 7.97499 0.183333 7.79166 0.458333 7.79166C0.733333 7.79166 0.916667 7.97499 0.916667 8.24999V9.16666C0.916667 9.67082 1.32917 10.0833 1.83333 10.0833H2.29167C2.56667 10.0833 2.75 10.2667 2.75 10.5417C2.75 10.8167 2.56667 11 2.29167 11Z" fill="#C6C6C6"/>
<path d="M9.16663 11H8.24996C7.97496 11 7.79163 10.8167 7.79163 10.5417C7.79163 10.2667 7.97496 10.0833 8.24996 10.0833H9.16663C9.67079 10.0833 10.0833 9.67082 10.0833 9.16666V8.24999C10.0833 7.97499 10.2666 7.79166 10.5416 7.79166C10.8166 7.79166 11 7.97499 11 8.24999V9.16666C11 10.175 10.175 11 9.16663 11Z" fill="#C6C6C6"/>
</svg>
