<svg width="14" height="14" viewBox="0 0 14 14" fill="none" xmlns="http://www.w3.org/2000/svg">
<path fill-rule="evenodd" clip-rule="evenodd" d="M11.1282 9.61403C12.1841 9.61403 13.0427 10.4009 13.0427 11.3684C13.0427 12.336 12.1841 13.1228 11.1282 13.1228C10.0723 13.1228 9.21368 12.336 9.21368 11.3684C9.21368 11.2149 9.2424 11.0684 9.2826 10.9263C9.36589 10.6351 9.52575 10.3719 9.74687 10.1596C10.0953 9.82544 10.5845 9.61403 11.1282 9.61403ZM2.87179 5.22807C3.40978 5.22807 3.89415 5.43333 4.24259 5.7614C4.46564 5.97193 4.6255 6.23421 4.71166 6.52544C4.75569 6.67193 4.78633 6.82281 4.78633 6.98246C4.78633 7.15877 4.74899 7.32719 4.69538 7.48772C4.60061 7.77544 4.4331 8.03421 4.20239 8.23947C3.85778 8.54561 3.38968 8.73684 2.87179 8.73684C1.81594 8.73684 0.957267 7.94999 0.957267 6.98246C0.957267 6.01491 1.81594 5.22807 2.87179 5.22807ZM11.1282 0.877195C12.1841 0.877195 13.0427 1.66404 13.0427 2.63158C13.0427 3.59912 12.1841 4.38597 11.1282 4.38597C10.5912 4.38597 10.1078 4.18158 9.76027 3.85526C9.53628 3.64474 9.37546 3.38246 9.2893 3.09123C9.24527 2.94386 9.21368 2.7921 9.21368 2.63158C9.21368 1.66404 10.0723 0.877195 11.1282 0.877195ZM11.1282 8.73684C10.2303 8.73684 9.43672 9.12368 8.91022 9.71755L5.54161 7.93508C5.66797 7.63859 5.7436 7.31929 5.7436 6.98245C5.7436 6.66315 5.6718 6.3614 5.55788 6.07806L8.92363 4.29649C9.45108 4.88157 10.238 5.26315 11.1282 5.26315C12.7115 5.26315 14 4.08245 14 2.63157C14 1.1807 12.7115 0 11.1282 0C9.54489 0 8.25641 1.1807 8.25641 2.63158C8.25641 2.95175 8.32821 3.25526 8.44308 3.53859L5.07829 5.31929C4.5518 4.73333 3.76397 4.35088 2.87179 4.35088C1.28848 4.35088 0 5.53158 0 6.98246C0 8.43333 1.28848 9.61403 2.87179 9.61403C3.74386 9.61403 4.51733 9.24825 5.04383 8.68421L8.43638 10.4789C8.32629 10.7588 8.25641 11.0553 8.25641 11.3684C8.25641 12.8193 9.54489 14 11.1282 14C12.7115 14 14 12.8193 14 11.3684C14 9.91754 12.7115 8.73684 11.1282 8.73684Z" fill="#9F9F9F"/>
</svg>
