<svg width="11" height="9" viewBox="0 0 11 9" fill="none" xmlns="http://www.w3.org/2000/svg">
<path d="M9.87388 2.22636C9.87825 2.32325 9.88045 2.42059 9.88045 2.51836C9.88045 5.50069 7.61024 8.9394 3.45965 8.9394C2.18509 8.9394 0.998701 8.56576 0 7.92541C0.176776 7.94636 0.356178 7.95706 0.538421 7.95706C1.59582 7.95706 2.56876 7.59629 3.34137 6.99086C2.35358 6.97276 1.52031 6.32022 1.2331 5.42365C1.37104 5.45006 1.51226 5.46424 1.65782 5.46424C1.8634 5.46424 2.06286 5.43654 2.25232 5.38503C1.22001 5.17766 0.441939 4.26563 0.441939 3.17221C0.441939 3.16261 0.441939 3.15322 0.442176 3.14384C0.74641 3.31276 1.0943 3.41425 1.46443 3.42603C0.8588 3.02142 0.460495 2.33065 0.460495 1.54758C0.460495 1.13402 0.571572 0.74641 0.766021 0.413137C1.87909 1.77848 3.54167 2.67678 5.4173 2.77106C5.37889 2.60585 5.35879 2.43366 5.35879 2.25667C5.35879 1.01048 6.36926 0 7.61545 0C8.26497 0 8.85116 0.274118 9.26277 0.71257C9.77697 0.611525 10.2597 0.42362 10.6958 0.164979C10.5273 0.692056 10.1698 1.13421 9.70363 1.41356C10.1602 1.35899 10.5954 1.23767 11 1.05826C10.6975 1.51071 10.3147 1.90813 9.87388 2.22636Z" fill="#515151"/>
</svg>
