<?xml version="1.0" standalone="no"?>
<!DOCTYPE svg PUBLIC "-//W3C//DTD SVG 1.1//EN" "http://www.w3.org/Graphics/SVG/1.1/DTD/svg11.dtd">
<svg xmlns="http://www.w3.org/2000/svg">
<defs >
<font id="Solway" horiz-adv-x="595" ><font-face
    font-family="Solway ExtraBold"
    units-per-em="1000"
    panose-1="0 0 9 0 0 0 0 0 0 0"
    ascent="950"
    descent="-250"
    alphabetic="0" />
<glyph unicode=" " glyph-name="space" horiz-adv-x="284" />
<glyph unicode="!" glyph-name="exclam" horiz-adv-x="359" d="M128 257T114 271T100 307V650Q100 672 114 686T149 700H210Q232 700 246 686T260 650V307Q260 285 246 271T210 257H149Q128 257 114 271ZM133 -10T102 19T71 94Q71 140 102 168T180 197Q227 197
257 169T288 94Q288 48 258 19T180 -10Q133 -10 102 19Z" />
<glyph unicode="&quot;" glyph-name="quotedbl" horiz-adv-x="611" d="M379 303T371 342Q343 479 334 533T324 613Q324 658 353 684T432 710Q481 710 510 684T540 613Q540 588 531 534T493 342Q485 303 447 303H417Q379 303 371 342ZM366 303T358 342Q330 479
321 533T311 613Q311 658 340 684T419 710Q468 710 497 684T527 613Q527 588 518 534T480 342Q472 303 434 303H404Q366 303 358 342Z" />
<glyph unicode="#" glyph-name="numbersign" horiz-adv-x="742" d="M666 545T680 531T694 496V462Q694 441 680 427T645 413H574L556 307H613Q634 307 648 293T662 258V223Q662 202 648 188T613 174H532L510 49Q501 0 461 0H409Q388 0 377 9T366 36L368 55L389
174H290L268 49Q259 0 219 0H167Q125 0 125 36L127 55L148 174H97Q76 174 62 188T48 223V258Q48 279 62 293T97 307H172L191 413H130Q109 413 95 427T81 462V496Q81 517 95 531T130 545H214L233 651Q241 700 282 700H334Q376 700 376 664L374 645L356 545H455L474
651Q483 700 523 700H575Q617 700 617 664L615 645L598 545H645Q666 545 680 531ZM443 423H325L303 296H421L443 423Z" />
<glyph unicode="$" glyph-name="dollar" horiz-adv-x="617" d="M564 131T519 78T400 3V-104Q400 -125 386 -139T351 -153H298Q277 -153 263 -139T249 -104V-6Q158 5 105 47T52 153Q52 197 78 225T147 253Q190 253 215 230T241 168Q241 153 236 136Q265 123 300
123Q404 123 404 192Q404 211 396 222T367 244T302 267Q214 295 162 325T86 396T61 495Q61 573 111 628T248 702V804Q248 825 262 839T297 853H350Q371 853 385 839T399 804V703Q470 687 512 645T555 545Q555 500 529 473T460 445Q418 445 392 468T366 530Q366
549 372 564Q355 577 313 577Q269 577 245 559T221 509Q221 488 230 475T263 450T335 423Q426 394 474 366T543 300T564 201Q564 131 519 78Z" />
<glyph unicode="%" glyph-name="percent" horiz-adv-x="992" d="M191 338T148 362T79 429T54 524Q54 576 79 618T147 685T244 710Q297 710 340 686T409 619T434 524Q434 472 409 430T341 363T244 338Q191 338 148 362ZM231 0T223 7T214 27Q214 38 224 52L657 667Q671
687 681 693T713 700H746Q761 700 769 693T778 673Q778 662 768 648L335 33Q321 13 311 7T279 0H247Q231 0 223 7ZM272 464T288 480T304 524Q304 552 288 568T244 584Q216 584 200 568T184 524Q184 496 200 480T244 464Q272 464 288 480ZM695 -10T652 14T583 81T558
176Q558 228 583 270T651 337T748 362Q801 362 844 338T913 271T938 176Q938 124 913 82T845 15T748 -10Q695 -10 652 14ZM776 116T792 132T808 176Q808 204 792 220T748 236Q720 236 704 220T688 176Q688 148 704 132T748 116Q776 116 792 132Z" />
<glyph unicode="&amp;" glyph-name="ampersand" horiz-adv-x="778" d="M552 235T546 220Q543 212 539 207L671 74Q686 59 686 42Q686 24 672 12T636 0H573Q544 0 527 7T488 35L452 71Q416 30 373 10T272 -10Q175 -10 119 35T62 160Q62 210 87 251T179 352Q135
403 118 442T101 531Q101 584 129 624T209 687T327 710Q416 710 470 665T525 546Q525 501 495 456T395 352L459 287Q461 291 463 293T466 297Q505 351 530 378T576 415T625 426Q673 426 699 401T726 331Q726 287 700 259T631 231Q588 231 563 254Q552 235 546 220ZM294
587T278 572T262 531Q262 511 270 493T301 449Q343 481 358 501T373 543Q373 563 359 575T322 587Q294 587 278 572ZM299 113T317 123T362 162L271 254Q236 226 225 209T213 172Q213 145 229 129T276 113Q299 113 317 123Z" />
<glyph unicode="&apos;" glyph-name="quotesingle" horiz-adv-x="342" d="M118 303T110 342Q82 479 73 533T63 613Q63 658 92 684T171 710Q220 710 249 684T279 613Q279 588 270 534T232 342Q224 303 186 303H156Q118 303 110 342Z" />
<glyph unicode="(" glyph-name="parenleft" horiz-adv-x="424" d="M314 -260T296 -252Q245 -226 186 -156T84 22T41 255Q41 381 83 488T185 665T296 762Q314 770 323 770Q340 770 357 759T386 731T397 699Q397 687 385 670T347 625Q201 471 201 255Q201 39 347
-115Q372 -142 384 -159T397 -189Q397 -204 386 -220T358 -248T323 -260Q314 -260 296 -252Z" />
<glyph unicode=")" glyph-name="parenright" horiz-adv-x="424" d="M56 -260T32 -236T8 -189Q8 -177 20 -160T59 -115Q123 -47 164 42T205 255Q205 378 164 467T59 625Q33 653 21 670T8 699Q8 722 32 746T82 770Q93 770 109 762Q160 736 220 666T322 488T365 255Q365
129 323 22T220 -155T109 -252Q93 -260 82 -260Q56 -260 32 -236Z" />
<glyph unicode="*" glyph-name="asterisk" horiz-adv-x="599" d="M513 634T531 600T549 526Q549 510 539 497T512 477Q484 468 415 468L380 469Q434 428 464 397T495 342Q495 325 477 305T435 272T396 258Q364 258 343 299T300 415Q278 338 256 298T203 258Q187
258 164 272T123 306T105 342Q105 384 219 469Q205 468 180 468Q119 468 87 477Q71 482 61 496T50 526Q50 563 68 598T117 634Q154 634 247 570Q220 661 220 697Q220 726 239 738T300 750Q342 750 361 738T380 697Q380 661 353 570Q446 634 482 634Q513 634 531
600Z" />
<glyph unicode="+" glyph-name="plus" horiz-adv-x="593" d="M510 386T524 372T538 337V303Q538 282 524 268T488 254H363V129Q363 108 349 94T313 79H280Q259 80 245 94T230 129V254H105Q84 254 70 268T55 303V337Q55 358 69 372T105 386H230V510Q230 532 244
546T280 561H313Q335 560 349 546T363 511V386H488Q510 386 524 372Z" />
<glyph unicode="," glyph-name="comma" horiz-adv-x="352" d="M110 -209T96 -196T81 -166Q81 -152 91 -138Q149 -55 149 -24Q149 -15 146 -10T133 0Q98 21 83 42T68 96Q68 142 98 169T174 197Q227 197 256 165T285 81Q285 20 259 -39T177 -175Q162 -195 151 -202T126
-209Q110 -209 96 -196Z" />
<glyph unicode="-" glyph-name="hyphen" horiz-adv-x="562" d="M93 254T79 268T65 303V337Q65 358 79 372T115 386H447Q469 386 483 372T497 337V303Q497 282 483 268T447 254H115Q93 254 79 268Z" />
<glyph unicode="." glyph-name="period" horiz-adv-x="380" d="M298 140T268 168T190 197Q143 197 112 169T81 94Q81 48 112 19T190 -10Q237 -10 267 19T298 94Q298 140 268 168Z" />
<glyph unicode="/" glyph-name="slash" horiz-adv-x="452" d="M9 -230T9 -200Q9 -192 13 -178L284 691Q292 716 302 728T333 740H408Q443 740 443 710Q443 702 439 688L167 -181Q160 -206 149 -218T118 -230H44Q9 -230 9 -200Z" />
<glyph unicode="0" glyph-name="zero" horiz-adv-x="678" d="M249 -10T185 32T86 154T51 341Q51 456 85 539T183 666T339 710Q429 710 493 668T592 546T627 359Q627 244 593 161T495 34T339 -10Q249 -10 185 32ZM404 123T433 179T463 357Q463 468 433 522T339
577Q274 577 244 520T214 343Q214 232 244 178T339 123Q404 123 433 179Z" />
<glyph unicode="1" glyph-name="one" horiz-adv-x="413" d="M352 133T365 122T378 88V44Q378 21 365 11T331 0H141Q119 0 106 10T93 44V88Q93 111 106 122T141 133H156V453H77Q56 453 42 467T28 502V537Q28 558 42 572T77 586H108Q129 586 142 597T156 631V650Q156
672 170 686T205 700H266Q287 700 301 686T316 650V133H331Q352 133 365 122Z" />
<glyph unicode="2" glyph-name="two" horiz-adv-x="608" d="M538 196T549 183T560 149V57Q560 32 543 16T501 0H160V1L103 0Q82 0 68 14T54 50V96Q54 159 69 200T122 278T234 362Q293 400 322 424T363 467T375 512Q375 541 354 559T299 577Q253 577 235 556Q243
537 243 516Q243 478 218 455T149 431Q107 431 81 459T54 531Q54 581 85 622T171 686T294 710Q364 710 420 685T507 615T539 513Q539 456 521 416T456 335T315 233Q263 200 243 180T217 132L427 134V149Q427 170 437 183T471 196H515Q538 196 549 183Z" />
<glyph unicode="3" glyph-name="three" horiz-adv-x="622" d="M520 358T547 314T575 208Q575 144 542 95T449 18T308 -10Q233 -10 174 12T80 75T46 169Q46 213 72 241T141 269Q184 269 209 246T235 184Q235 164 229 149Q252 123 311 123Q360 123 386 147T412 216Q412
255 388 273T313 291H281Q260 291 246 305T232 340V375Q232 396 246 410T281 424H309Q349 424 367 441T386 499Q386 533 363 555T298 577Q251 577 232 557Q241 539 241 516Q241 478 215 455T146 431Q104 431 78 459T52 531Q52 582 84 623T172 687T298 710Q375 710
432 687T519 621T550 522Q550 476 529 440T469 380Q520 358 547 314Z" />
<glyph unicode="4" glyph-name="four" horiz-adv-x="630" d="M571 323T585 309T599 274V239Q599 218 585 204T550 190H487V133H502Q523 133 536 122T549 88V44Q549 21 536 11T502 0H312Q290 0 277 10T264 44V88Q264 111 277 122T312 133H327V190H79Q58 190 44
204T30 239V268Q30 293 35 308T54 342L270 661Q284 682 299 691T335 700H437Q458 700 472 686T487 650V323H550Q571 323 585 309ZM327 323V545L176 323H327Z" />
<glyph unicode="5" glyph-name="five" horiz-adv-x="602" d="M430 464T491 403T553 234Q553 161 520 106T425 20T283 -10Q216 -10 163 9T79 64T49 142Q49 186 75 214T144 242Q187 242 212 219T238 157Q238 144 235 132Q251 123 284 123Q333 123 361 151T390 228Q390
277 360 304T274 331Q230 331 186 310Q153 297 134 297Q104 297 91 308T78 342Q78 378 94 630Q99 700 166 700H476Q501 700 518 684T535 644V623Q535 598 519 582T476 566L246 568L239 453Q274 464 313 464Q430 464 491 403Z" />
<glyph unicode="6" glyph-name="six" horiz-adv-x="622" d="M428 443T475 416T548 340T574 225Q574 155 543 102T456 20T326 -10Q192 -10 123 72T54 313Q54 710 354 710Q443 710 497 676T551 584Q551 540 525 512T456 484Q413 484 388 507T362 569V576Q358 577
348 577Q281 577 251 531T218 377Q245 412 281 427T366 443Q428 443 475 416ZM359 123T384 147T410 217Q410 262 385 286T315 310Q270 310 244 286T218 218Q218 174 245 149T315 123Q359 123 384 147Z" />
<glyph unicode="7" glyph-name="seven" horiz-adv-x="571" d="M510 700T524 686T539 650V607Q539 592 536 580T524 550L288 36Q271 0 237 0H179Q150 0 137 12T123 45Q123 62 135 86L359 567L165 566V551Q165 530 154 517T120 504H76Q53 504 43 517T32 551V643Q32
668 48 684T91 700H489Q510 700 524 686Z" />
<glyph unicode="8" glyph-name="eight" horiz-adv-x="638" d="M532 352T561 308T590 202Q590 140 556 92T461 17T319 -10Q239 -10 178 17T82 92T48 202Q48 263 77 307T161 374Q114 397 92 432T70 519Q70 573 102 617T190 685T319 710Q391 710 447 686T536 617T568
519Q568 467 546 432T477 374Q532 352 561 308ZM279 577T257 556T234 499Q234 463 256 444T319 424Q361 424 382 443T404 499Q404 534 381 555T319 577Q279 577 257 556ZM370 123T398 145T426 208Q426 249 399 270T319 291Q266 291 239 270T211 208Q211 168 239
146T319 123Q370 123 398 145Z" />
<glyph unicode="9" glyph-name="nine" horiz-adv-x="621" d="M430 710T499 628T568 387Q568 -10 268 -10Q179 -10 125 24T71 116Q71 160 97 188T166 216Q208 216 234 193T260 131V124Q264 123 274 123Q341 123 371 169T403 323Q376 288 341 273T256 257Q194 257
147 284T74 360T48 475Q48 545 79 598T166 680T296 710Q430 710 499 628ZM352 390T378 414T404 482Q404 526 377 551T307 577Q263 577 237 552T211 483Q211 438 236 414T307 390Q352 390 378 414Z" />
<glyph unicode=":" glyph-name="colon" horiz-adv-x="365" d="M291 451T261 479T183 508Q136 508 105 480T74 405Q74 359 105 330T183 301Q230 301 260 330T291 405Q291 451 261 479ZM547 140T517 168T439 197Q392 197 361 169T330 94Q330 48 361 19T439 -10Q486
-10 516 19T547 94Q547 140 517 168Z" />
<glyph unicode=";" glyph-name="semicolon" horiz-adv-x="305" d="M261 451T231 479T153 508Q106 508 75 480T44 405Q44 359 75 330T153 301Q200 301 230 330T261 405Q261 451 231 479ZM341 -209T327 -196T312 -166Q312 -152 322 -138Q380 -55 380 -24Q380 -15
377 -10T364 0Q329 21 314 42T299 96Q299 142 329 169T405 197Q458 197 487 165T516 81Q516 20 490 -39T408 -175Q393 -195 382 -202T357 -209Q341 -209 327 -196Z" />
<glyph unicode="&lt;" glyph-name="less" horiz-adv-x="624" d="M539 427T534 420T521 410L279 325L521 239Q529 236 534 229T539 213V135Q539 121 529 112T504 102Q493 102 481 107L88 258Q75 263 68 274T60 299V350Q60 364 67 375T88 391L481 542Q493 547 504
547Q519 547 529 538T539 515V436Q539 427 534 420Z" />
<glyph unicode="=" glyph-name="equal" horiz-adv-x="674" d="M124 375T110 389T96 425V458Q96 480 110 494T146 508H529Q550 508 564 494T578 458V425Q578 403 564 389T529 375H146Q124 375 110 389ZM124 162T110 176T96 211V245Q96 266 110 280T146 294H529Q550
294 564 280T578 245V211Q578 190 564 176T529 162H146Q124 162 110 176Z" />
<glyph unicode="&gt;" glyph-name="greater" horiz-adv-x="624" d="M547 387T555 376T563 350V299Q563 285 555 274T534 258L142 107Q129 102 119 102Q103 102 94 111T84 135V213Q84 222 88 229T101 239L344 325L101 410Q93 413 89 420T84 436V515Q84 529 93 538T119
547Q129 547 142 542L534 391Q547 387 555 376Z" />
<glyph unicode="?" glyph-name="question" horiz-adv-x="574" d="M351 710T407 685T495 613T526 508Q526 431 483 385T358 329V307Q358 285 344 271T309 257H248Q227 257 213 271T198 307V372Q198 393 212 407T248 422H275Q318 422 340 443T362 507Q362 538 341
557T287 577Q249 577 229 560Q231 546 231 538Q231 499 205 476T137 452Q94 452 68 480T42 552Q42 596 71 632T154 689T277 710Q351 710 407 685ZM322 197T353 169T384 94Q384 48 353 19T275 -10Q228 -10 198 19T167 94Q167 140 197 168T275 197Q322 197 353 169Z"
/>
<glyph unicode="@" glyph-name="at" horiz-adv-x="1164" d="M798 500T812 486T826 451V185Q826 149 841 128T881 106Q908 106 931 132T967 204T981 305Q981 402 935 472T800 580T589 617Q467 617 376 572T236 442T187 245Q187 73 294 -21T597 -115Q675 -115 775
-94Q808 -87 820 -87Q842 -87 854 -102T866 -146Q866 -169 858 -180T830 -199Q796 -211 726 -221T595 -231Q437 -231 316 -172T128 -6T61 244Q61 385 128 496T317 670T591 733Q744 733 861 680T1042 529T1106 305Q1106 213 1074 142T984 30T852 -10Q785 -10 739
21T676 110Q657 54 615 22T516 -10Q427 -10 375 56T322 238Q322 368 381 439T548 510Q639 510 691 429L702 468Q706 485 716 492T745 500H777Q798 500 812 486ZM610 120T639 159T668 255V342Q650 360 626 370T574 380Q531 380 507 344T483 243Q483 184 505 152T568
120Q610 120 639 159Z" />
<glyph unicode="A" glyph-name="A" horiz-adv-x="744" d="M688 133T701 122T714 88V44Q714 21 701 11T666 0H472Q450 0 437 10T424 44V88Q424 111 437 122T472 133H487L459 215H258L230 133H246Q267 133 280 122T293 88V44Q293 21 280 11T246 0H78Q57 0 44 10T30
44V88Q30 111 43 122T78 133H93L284 665Q289 681 302 690T333 700H411Q428 700 441 691T460 665L651 133H666Q688 133 701 122ZM413 348L359 508L304 348H413Z" />
<glyph unicode="B" glyph-name="B" horiz-adv-x="674" d="M551 369T589 324T627 214Q627 114 549 57T334 0H99Q77 0 64 10T51 44V88Q51 111 64 122T99 133H114V567H99Q77 567 64 578T51 612V656Q51 679 64 689T99 700H333Q466 700 530 660T594 536Q594 483 566
444T483 384Q551 369 589 324ZM274 567V424H316Q376 424 403 442T430 500Q430 537 406 552T322 567H274ZM400 133T431 152T463 217Q463 257 436 274T346 291H274V133H323Q400 133 431 152Z" />
<glyph unicode="C" glyph-name="C" horiz-adv-x="656" d="M566 237T587 221T608 178Q608 165 602 145T585 109Q549 48 494 19T358 -10Q265 -10 196 35T91 163T54 356Q54 465 90 545T194 667T359 710Q429 710 486 688T575 626T608 537Q608 493 582 465T513 437Q470
437 444 460T418 523Q418 544 426 563Q404 577 362 577Q285 577 251 525T217 359Q217 241 254 182T369 123Q406 123 431 139T474 191Q487 218 500 227T537 237Q566 237 587 221Z" />
<glyph unicode="D" glyph-name="D" horiz-adv-x="735" d="M508 700T596 614T685 371Q685 262 643 178T526 47T353 0H99Q77 0 64 10T51 44V88Q51 111 64 122T99 133H114V567H99Q77 567 64 578T51 612V656Q51 679 64 689T99 700H348Q508 700 596 614ZM429 133T475
194T521 365Q521 467 477 517T343 567H274V133H347Q429 133 475 194Z" />
<glyph unicode="E" glyph-name="E" horiz-adv-x="663" d="M578 245T588 232T599 197V57Q599 32 583 16T540 0H99Q77 0 64 10T51 44V88Q51 111 64 122T99 133H114V567H99Q77 567 64 578T51 612V656Q51 679 64 689T99 700H534Q560 700 576 684T593 641V519Q593 497
583 484T549 471H505Q461 471 461 519V567H274V428H420Q441 428 455 414T469 379V345Q469 324 455 310T420 296H274V133H466V197Q466 219 477 232T511 245H555Q578 245 588 232Z" />
<glyph unicode="F" glyph-name="F" horiz-adv-x="632" d="M560 700T576 684T593 641V519Q593 497 583 484T549 471H505Q461 471 461 519V567H274V418H420Q441 418 455 404T469 369V335Q469 314 455 300T420 286H274V133H324Q345 133 358 122T371 88V44Q371 21
358 11T324 0H99Q77 0 64 10T51 44V88Q51 111 64 122T99 133H114V567H99Q77 567 64 578T51 612V656Q51 679 64 689T99 700H534Q560 700 576 684Z" />
<glyph unicode="G" glyph-name="G" horiz-adv-x="694" d="M599 371T613 357T628 321V44Q628 23 614 9T578 -6H558Q528 -6 515 27L491 92Q471 46 428 18T331 -10Q246 -10 184 34T89 160T55 356Q55 466 91 546T196 668T360 710Q430 710 487 688T576 626T609 537Q609
493 583 465T514 437Q471 437 446 460T420 523Q420 543 428 562Q404 577 363 577Q287 577 253 526T218 359Q218 240 252 182T357 123Q404 123 436 153T468 228V238H367Q345 238 331 252T317 287V321Q317 342 331 356T367 371H578Q599 371 613 357Z" />
<glyph unicode="H" glyph-name="H" horiz-adv-x="791" d="M677 567V133H692Q713 133 726 122T740 88V44Q740 21 727 11T692 0H502Q480 0 467 10T454 44V88Q454 111 467 122T502 133H517V290H274V133H289Q310 133 323 122T336 88V44Q336 21 323 11T289 0H99Q77
0 64 10T51 44V88Q51 111 64 122T99 133H114V567H99Q77 567 64 578T51 612V656Q51 679 64 689T99 700H289Q310 700 323 690T336 656V612Q336 589 323 578T289 567H274V423H517V567H502Q480 567 467 578T454 612V656Q454 679 467 689T502 700H692Q713 700 726 690T740
656V612Q740 589 727 578T692 567H677Z" />
<glyph unicode="I" glyph-name="I" horiz-adv-x="387" d="M77 0T64 10T51 44V88Q51 111 64 122T99 133H114V567H99Q77 567 64 578T51 612V656Q51 679 64 689T99 700H289Q310 700 323 690T336 656V612Q336 589 323 578T289 567H274V133H289Q310 133 323 122T336
88V44Q336 21 323 11T289 0H99Q77 0 64 10Z" />
<glyph unicode="J" glyph-name="J" horiz-adv-x="550" d="M488 700T501 690T514 656V612Q514 589 501 578T466 567H451V205Q451 107 392 49T235 -10Q144 -10 89 33T33 147Q33 192 59 219T128 247Q171 247 197 224T223 162Q223 144 217 127Q225 123 239 123Q264
123 277 140T291 188V567H236Q215 567 202 578T189 612V656Q189 679 202 689T236 700H466Q488 700 501 690Z" />
<glyph unicode="K" glyph-name="K" horiz-adv-x="761" d="M692 133T705 122T718 88V44Q718 21 705 11T671 0H448Q426 0 413 10T400 44V88Q400 130 442 133L274 324V133H289Q310 133 323 122T336 88V44Q336 21 323 11T289 0H99Q77 0 64 10T51 44V88Q51 111 64 122T99
133H114V567H99Q77 567 64 578T51 612V656Q51 679 64 689T99 700H289Q310 700 323 690T336 656V612Q336 589 323 578T289 567H274V381L455 567H445Q424 567 411 578T397 612V656Q397 681 403 690T429 700H661Q683 700 696 690T709 656V612Q709 589 696 578T661
567H635L431 369L648 133H671Q692 133 705 122Z" />
<glyph unicode="L" glyph-name="L" horiz-adv-x="623" d="M561 245T571 232T582 197V57Q582 32 566 16T523 0H99Q77 0 64 10T51 44V88Q51 111 64 122T99 133H114V567H99Q77 567 64 578T51 612V656Q51 679 64 689T99 700H328Q350 700 363 690T376 656V612Q376 589
363 578T328 567H274V133H450V197Q450 245 494 245H538Q561 245 571 232Z" />
<glyph unicode="M" glyph-name="M" horiz-adv-x="917" d="M803 567V133H818Q840 133 853 122T866 88V44Q866 21 853 11T818 0H628Q607 0 594 10T581 44V88Q581 111 594 122T628 133H643V552L512 229Q499 199 471 199H421Q391 199 380 229L248 555V133H264Q285
133 298 122T311 88V44Q311 21 298 11T264 0H99Q77 0 64 10T51 44V88Q51 111 64 122T99 133H114V567H99Q77 567 64 578T51 612V656Q51 679 64 689T99 700H320Q352 700 363 670L460 424L558 670Q570 700 601 700H818Q840 700 853 690T866 656V612Q866 589 853 578T818
567H803Z" />
<glyph unicode="N" glyph-name="N" horiz-adv-x="760" d="M695 700T708 690T721 656V612Q721 589 708 578T674 567H659V50Q659 28 645 14T609 0H534Q523 0 514 5T498 19L248 424V133H264Q285 133 298 122T311 88V44Q311 21 298 11T264 0H99Q77 0 64 10T51 44V88Q51
111 64 122T99 133H114V567H99Q77 567 64 578T51 612V656Q51 679 64 689T99 700H238Q261 700 274 681L524 277V567H509Q488 567 475 578T461 612V656Q461 679 474 689T509 700H674Q695 700 708 690Z" />
<glyph unicode="O" glyph-name="O" horiz-adv-x="749" d="M270 -10T199 32T91 153T53 341Q53 454 92 537T206 665T382 710Q480 710 551 668T659 547T697 359Q697 246 657 163T543 35T369 -10Q270 -10 199 32ZM533 123T533 358Q533 470 495 523T380 577Q216 577
216 343Q216 230 254 177T370 123Q533 123 533 358Z" />
<glyph unicode="P" glyph-name="P" horiz-adv-x="655" d="M484 700T550 647T616 489Q616 420 582 368T485 288T341 259H274V133H289Q310 133 323 122T336 88V44Q336 21 323 11T289 0H99Q77 0 64 10T51 44V88Q51 111 64 122T99 133H114V567H99Q77 567 64 578T51
612V656Q51 679 64 689T99 700H355Q484 700 550 647ZM396 392T424 415T452 486Q452 527 427 547T349 567H274V392H336Q396 392 424 415Z" />
<glyph unicode="Q" glyph-name="Q" horiz-adv-x="749" d="M631 6Q639 -7 639 -27Q639 -55 612 -77T551 -99Q519 -99 502 -70L460 1Q416 -10 369 -10Q270 -10 199 32T91 153T53 341Q53 454 92 537T206 665T382 710Q480 710 551 668T659 547T697 359Q697 267 670
194T592 72L631 6ZM381 123T387 124L331 217Q323 230 323 250Q323 278 349 300T411 322Q443 322 460 294L509 212Q533 268 533 358Q533 470 495 523T380 577Q216 577 216 343Q216 230 254 177T370 123Q381 123 387 124Z" />
<glyph unicode="R" glyph-name="R" horiz-adv-x="726" d="M670 133T683 122T696 88V44Q696 21 683 11T648 0H522Q510 0 500 6T483 23L391 192Q373 225 360 241T332 263T292 269H274V133H289Q310 133 323 122T336 88V44Q336 21 323 11T289 0H99Q77 0 64 10T51 44V88Q51
111 64 122T99 133H114V567H99Q77 567 64 578T51 612V656Q51 679 64 689T99 700H351Q479 700 545 648T611 494Q611 428 577 381T479 312Q497 305 512 288T544 241L602 133H648Q670 133 683 122ZM334 401Q394 401 420 422T447 491Q447 529 422 548T344 567H274V401H334Z"
/>
<glyph unicode="S" glyph-name="S" horiz-adv-x="617" d="M426 394T474 366T543 300T564 201Q564 141 531 93T440 18T309 -10Q233 -10 175 10T85 68T52 153Q52 197 78 225T147 253Q190 253 215 230T241 168Q241 153 236 136Q265 123 300 123Q404 123 404 192Q404
211 396 222T367 244T302 267Q214 295 162 325T86 396T61 495Q61 558 94 607T188 683T328 710Q393 710 444 689T525 630T555 545Q555 500 529 473T460 445Q418 445 392 468T366 530Q366 549 372 564Q355 577 313 577Q269 577 245 559T221 509Q221 488 230 475T263
450T335 423Q426 394 474 366Z" />
<glyph unicode="T" glyph-name="T" horiz-adv-x="671" d="M598 700T614 684T631 641V516Q631 494 621 481T587 468H543Q520 468 509 481T498 516V567H416V133H431Q452 133 465 122T478 88V44Q478 21 465 11T431 0H241Q219 0 206 10T193 44V88Q193 111 206 122T241
133H256V567H173V516Q173 494 163 481T129 468H84Q61 468 51 481T40 516V641Q40 667 57 683T99 700H572Q598 700 614 684Z" />
<glyph unicode="U" glyph-name="U" horiz-adv-x="732" d="M670 700T683 690T697 656V612Q697 589 684 578T649 567H634V265Q634 136 564 63T365 -10Q238 -10 168 62T98 264V567H83Q62 567 49 578T35 612V656Q35 679 48 689T83 700H273Q295 700 308 690T321 656V612Q321
589 308 578T273 567H258V266Q258 123 366 123Q474 123 474 264V567H459Q437 567 424 578T411 612V656Q411 679 424 689T459 700H649Q670 700 683 690Z" />
<glyph unicode="V" glyph-name="V" horiz-adv-x="732" d="M675 700T688 690T701 656V612Q701 589 688 578T654 567H639L454 35Q449 19 436 10T405 0H327Q310 0 297 9T278 35L93 567H78Q57 567 44 578T31 612V656Q31 679 44 689T78 700H274Q295 700 308 690T321
656V612Q321 589 308 578T274 567H258L380 204L501 567H486Q464 567 451 578T438 612V656Q438 679 451 689T486 700H654Q675 700 688 690Z" />
<glyph unicode="W" glyph-name="W" horiz-adv-x="1050" d="M994 700T1007 690T1020 656V612Q1020 589 1007 578T972 567H957L816 35Q812 19 798 10T767 0H689Q671 0 658 9T639 35L526 392L413 35Q408 19 394 10T362 0H283Q266 0 252 9T234 35L93 567H78Q57 567
44 578T31 612V656Q31 679 44 689T78 700H271Q292 700 305 690T318 656V612Q318 589 305 578T271 567H256L343 225L451 564Q456 580 468 589T496 599H585Q600 599 612 590T629 564L736 229L822 567H807Q785 567 772 578T759 612V656Q759 679 772 689T807 700H972Q994
700 1007 690Z" />
<glyph unicode="X" glyph-name="X" horiz-adv-x="767" d="M698 133T711 122T725 88V44Q725 21 712 11T677 0H446Q425 0 412 10T398 44V88Q398 111 411 122T446 133H470L371 266L270 133H287Q308 133 321 122T334 88V44Q334 21 321 11T287 0H91Q70 0 57 10T44 44V88Q44
111 57 122T91 133H106L274 345L107 567H95Q73 567 60 578T47 612V656Q47 679 60 689T95 700H326Q347 700 360 690T373 656V612Q373 589 360 578T326 567H300L393 441L489 567H472Q451 567 438 578T424 612V656Q424 679 437 689T472 700H668Q690 700 703 690T716
656V612Q716 589 703 578T668 567H652L491 362L663 133H677Q698 133 711 122Z" />
<glyph unicode="Y" glyph-name="Y" horiz-adv-x="706" d="M650 700T663 690T676 656V612Q676 589 663 578T629 567H613L433 263V133H448Q470 133 483 122T496 88V44Q496 21 483 11T448 0H258Q237 0 224 10T210 44V88Q210 111 223 122T258 133H273V263L93 567H78Q56
567 43 578T30 612V656Q30 679 43 689T78 700H288Q310 700 323 690T336 656V612Q336 589 323 578T288 567H273L368 402L463 567H448Q426 567 413 578T400 612V656Q400 679 413 689T448 700H629Q650 700 663 690Z" />
<glyph unicode="Z" glyph-name="Z" horiz-adv-x="635" d="M560 235T570 222T581 187V59Q581 34 565 17T522 0H114Q89 0 73 16T56 58V82Q56 116 75 145L372 567H193V509Q193 461 149 461H105Q82 461 72 474T61 509V641Q61 667 78 683T120 700H512Q537 700 554 684T571
642V618Q571 584 551 555L254 133H449V187Q449 209 459 222T493 235H537Q560 235 570 222Z" />
<glyph unicode="[" glyph-name="bracketleft" horiz-adv-x="425" d="M236 627V-117H345Q366 -117 380 -131T394 -166V-201Q394 -222 380 -236T345 -250H135Q114 -250 100 -236T86 -201V711Q86 732 100 746T135 760H345Q366 760 380 746T394 711V676Q394 656 380
642T345 627H236Z" />
<glyph unicode="\" glyph-name="backslash" horiz-adv-x="452" d="M333 -230Q313 -230 302 -218T284 -181L12 688Q9 699 9 710Q9 740 43 740H118Q138 740 148 728T167 691L438 -178Q442 -192 442 -200Q442 -230 407 -230H333Z" />
<glyph unicode="]" glyph-name="bracketright" horiz-adv-x="424" d="M311 760T325 746T340 711V-201Q340 -222 326 -236T291 -250H80Q59 -250 45 -236T31 -201V-166Q31 -146 45 -132T80 -117H189V627H80Q59 627 45 641T31 676V711Q31 732 45 746T80 760H291Q311
760 325 746Z" />
<glyph unicode="^" glyph-name="asciicircum" horiz-adv-x="531" d="M467 428T467 417Q467 402 458 392T435 382H365Q343 382 330 407L265 537L200 407Q188 382 165 382H96Q82 382 73 392T64 417Q64 428 69 440L167 671Q172 683 183 691T209 700H322Q337 700 347
692T363 671L462 440Q467 428 467 417Z" />
<glyph unicode="_" glyph-name="underscore" horiz-adv-x="562" d="M93 -165T79 -151T65 -116V-82Q65 -61 79 -47T115 -32H447Q469 -32 483 -46T497 -82V-116Q497 -137 483 -151T447 -165H115Q93 -165 79 -151Z" />
<glyph unicode="`" glyph-name="grave" horiz-adv-x="292" d="M263 583T250 569T221 554Q207 554 186 566T112 617Q72 646 55 665T38 706Q38 733 61 755T113 777Q133 777 149 762T195 705Q241 643 252 625T263 599Q263 583 250 569Z" />
<glyph unicode="a" glyph-name="a" horiz-adv-x="574" d="M525 133T538 122T552 88V44Q552 21 539 11T504 0H380Q359 0 345 14T331 50V93Q311 47 272 19T190 -10Q122 -10 80 31T38 139Q38 217 87 253T240 289Q280 289 331 281V315Q331 350 311 370T257 390Q238
390 224 383Q219 354 197 336T143 317Q106 317 83 338T60 394Q60 448 114 479T255 510Q371 510 430 453T489 290V133H504Q525 133 538 122ZM275 103T300 132T330 204Q294 208 264 208Q227 208 212 195T196 149Q196 129 209 116T241 103Q275 103 300 132Z" />
<glyph unicode="b" glyph-name="b" horiz-adv-x="617" d="M471 510T523 444T575 262Q575 132 516 61T350 -10Q256 -10 202 77L184 27Q171 -6 141 -6H121Q100 -6 86 8T71 44V607H56Q35 607 22 618T9 652V696Q9 719 22 729T56 740H180Q201 740 215 726T229 690V410Q248
455 289 482T382 510Q471 510 523 444ZM367 120T390 156T414 257Q414 315 392 347T330 380Q287 380 258 341T229 245V158Q247 140 272 130T324 120Q367 120 390 156Z" />
<glyph unicode="c" glyph-name="c" horiz-adv-x="539" d="M456 173T473 160T491 120Q491 91 473 68Q448 34 404 12T299 -10Q218 -10 159 22T69 114T38 252Q38 331 70 389T160 479T292 510Q351 510 399 489T474 431T502 349Q502 309 476 285T408 260Q365 260 339
283T313 345Q313 359 316 372Q302 380 283 380Q241 380 220 348T199 254Q199 193 227 157T307 120Q334 120 350 127T385 152Q408 173 431 173Q456 173 473 160Z" />
<glyph unicode="d" glyph-name="d" horiz-adv-x="635" d="M583 133T596 122T609 88V44Q609 21 596 11T561 0H438Q416 0 402 14T388 50V90Q369 45 328 18T236 -10Q147 -10 95 56T42 238Q42 368 101 439T268 510Q342 510 388 458V607H373Q351 607 338 618T325 652V696Q325
719 338 729T373 740H497Q518 740 532 726T546 690V133H561Q583 133 596 122ZM330 120T359 159T388 255V342Q371 360 346 370T294 380Q251 380 227 344T203 243Q203 184 225 152T288 120Q330 120 359 159Z" />
<glyph unicode="e" glyph-name="e" horiz-adv-x="552" d="M512 242T508 216H202Q210 171 237 146T307 120Q334 120 350 127T385 152Q408 173 431 173Q456 173 473 160T491 120Q491 91 473 68Q448 34 404 12T299 -10Q218 -10 159 22T69 114T38 252Q38 332 69 390T157
479T288 510Q349 510 400 484T481 405T512 275Q512 242 508 216ZM218 392T203 311H350Q351 317 351 328Q351 359 333 375T283 392Q218 392 203 311Z" />
<glyph unicode="f" glyph-name="f" horiz-adv-x="436" d="M289 610T282 591T274 535V500H367Q389 500 403 486T417 451V420Q417 398 403 384T367 370H274V133H306Q329 133 341 122T354 88V44Q354 0 306 0H100Q79 0 66 10T53 44V88Q53 111 66 122T100 133H115V370H81Q59
370 45 384T31 420V451Q31 472 45 486T81 500H115V531Q115 634 168 692T316 750Q387 750 426 722T466 643Q466 609 443 587T384 565Q357 565 337 579T307 617Q289 610 282 591Z" />
<glyph unicode="g" glyph-name="g" horiz-adv-x="635" d="M583 500T596 490T609 456V412Q609 389 596 378T561 367H546V35Q546 -97 475 -168T275 -240Q178 -240 122 -207T66 -116Q66 -82 89 -61T148 -39Q179 -39 202 -58T231 -106Q244 -110 273 -110Q329 -110
358 -77T388 20V90Q369 45 328 18T236 -10Q147 -10 95 56T42 238Q42 368 101 439T268 510Q357 510 410 431L420 467Q425 486 435 493T463 500H561Q583 500 596 490ZM330 120T359 159T388 255V342Q371 360 346 370T294 380Q251 380 227 344T203 243Q203 184 225
152T288 120Q330 120 359 159Z" />
<glyph unicode="h" glyph-name="h" horiz-adv-x="649" d="M600 133T613 122T626 88V44Q626 21 613 11T579 0H391Q369 0 356 10T343 44V88Q343 111 356 122T391 133H406V264Q406 329 393 354T344 380Q305 380 276 346T247 265V133H262Q283 133 296 122T309 88V44Q309
21 296 11T262 0H74Q52 0 39 10T26 44V88Q26 111 39 122T74 133H89V607H74Q52 607 39 618T26 652V696Q26 719 39 729T74 740H197Q218 740 232 726T247 690V407Q267 452 307 481T390 510Q472 510 518 458T564 312V133H579Q600 133 613 122Z" />
<glyph unicode="i" glyph-name="i" horiz-adv-x="351" d="M124 572T96 600T67 671Q67 713 95 741T166 770Q208 770 236 742T265 671Q265 629 237 601T166 572Q124 572 96 600ZM69 0T56 10T43 44V88Q43 111 56 122T90 133H105V367H90Q69 367 56 378T43 412V456Q43
479 56 489T90 500H214Q235 500 249 486T263 450V133H278Q300 133 313 122T326 88V44Q326 21 313 11T278 0H90Q69 0 56 10Z" />
<glyph unicode="j" glyph-name="j" horiz-adv-x="318" d="M107 572T79 600T51 671Q51 713 79 741T149 770Q192 770 220 742T248 671Q248 629 220 601T149 572Q107 572 79 600ZM218 500T232 486T247 450V-19Q247 -123 196 -181T53 -240Q-16 -240 -59 -208T-103
-123Q-103 -88 -80 -67T-20 -45Q9 -45 30 -61T60 -105Q76 -98 82 -79T89 -23V367H74Q52 367 39 378T26 412V456Q26 479 39 489T74 500H197Q218 500 232 486Z" />
<glyph unicode="k" glyph-name="k" horiz-adv-x="647" d="M583 133T596 122T609 88V44Q609 21 596 11T562 0H447Q437 0 428 5T412 18L247 245V133H262Q283 133 296 122T309 88V44Q309 21 296 11T262 0H74Q52 0 39 10T26 44V88Q26 111 39 122T74 133H89V607H74Q52
607 39 618T26 652V696Q26 719 39 729T74 740H197Q218 740 232 726T247 690V269L327 335Q367 367 408 367H355Q334 367 321 378T308 412V456Q308 479 321 489T355 500H555Q576 500 589 490T602 456V412Q602 389 589 378T555 367H527L414 277L519 133H562Q583 133
596 122Z" />
<glyph unicode="l" glyph-name="l" horiz-adv-x="336" d="M52 0T39 10T26 44V88Q26 111 39 122T74 133H89V607H74Q52 607 39 618T26 652V696Q26 719 39 729T74 740H197Q218 740 232 726T247 690V133H262Q283 133 296 122T309 88V44Q309 21 296 11T262 0H74Q52 0 39 10Z" />
<glyph unicode="m" glyph-name="m" horiz-adv-x="971" d="M922 133T935 122T948 88V44Q948 21 935 11T901 0H721Q700 0 687 10T673 44V88Q673 111 686 122T721 133H728V264Q728 330 716 355T669 380Q630 380 603 346T575 265V133H581Q603 133 616 122T629 88V44Q629
21 616 11T581 0H410Q388 0 375 10T362 44V88Q362 111 375 122T410 133H416V264Q416 330 404 355T358 380Q319 380 291 346T263 265V133H270Q291 133 304 122T317 88V44Q317 21 304 11T270 0H90Q69 0 56 10T43 44V88Q43 111 56 122T90 133H105V367H90Q69 367 56
378T43 412V456Q43 479 56 489T90 500H214Q235 500 249 486T263 450V405Q283 452 322 481T404 510Q464 510 505 481T563 397Q591 452 631 481T715 510Q797 510 841 458T886 312V133H901Q922 133 935 122Z" />
<glyph unicode="n" glyph-name="n" horiz-adv-x="665" d="M616 133T629 122T642 88V44Q642 21 629 11T595 0H415Q393 0 380 10T367 44V88Q367 111 380 122T415 133H422V264Q422 329 409 354T360 380Q321 380 292 346T263 265V133H270Q291 133 304 122T317 88V44Q317
21 304 11T270 0H90Q69 0 56 10T43 44V88Q43 111 56 122T90 133H105V367H90Q69 367 56 378T43 412V456Q43 479 56 489T90 500H214Q235 500 249 486T263 450V405Q282 451 322 480T407 510Q489 510 534 458T580 312V133H595Q616 133 629 122Z" />
<glyph unicode="o" glyph-name="o" horiz-adv-x="587" d="M170 -10T105 56T39 244Q39 369 108 439T299 510Q418 510 483 444T548 257Q548 132 479 61T289 -10Q170 -10 105 56ZM340 120T363 152T387 255Q387 319 365 349T297 380Q250 380 225 346T200 246Q200 184
223 152T290 120Q340 120 363 152Z" />
<glyph unicode="p" glyph-name="p" horiz-adv-x="635" d="M488 510T540 444T593 262Q593 132 534 61T367 -10Q295 -10 247 41V-97H262Q283 -97 296 -108T309 -142V-186Q309 -209 296 -219T262 -230H74Q52 -230 39 -220T26 -186V-142Q26 -119 39 -108T74 -97H89V367H74Q52
367 39 378T26 412V456Q26 479 39 489T74 500H197Q218 500 232 486T247 450V410Q265 456 306 483T399 510Q488 510 540 444ZM384 120T408 156T432 257Q432 316 410 348T347 380Q305 380 276 341T247 245V157Q264 140 289 130T341 120Q384 120 408 156Z" />
<glyph unicode="q" glyph-name="q" horiz-adv-x="617" d="M583 -97T596 -108T609 -142V-186Q609 -209 596 -219T561 -230H373Q351 -230 338 -220T325 -186V-142Q325 -119 338 -108T373 -97H388V90Q369 45 328 18T236 -10Q147 -10 95 56T42 238Q42 368 101 439T268
510Q358 510 411 429L422 468Q427 486 437 493T465 500H497Q518 500 532 486T546 451V-97H561Q583 -97 596 -108ZM330 120T359 159T388 255V342Q371 360 346 370T294 380Q251 380 227 344T203 243Q203 184 225 152T288 120Q330 120 359 159Z" />
<glyph unicode="r" glyph-name="r" horiz-adv-x="530" d="M456 510T483 482T510 406Q510 363 484 336T413 308Q382 308 360 326T329 374Q300 363 282 332T263 263V133H296Q317 133 330 122T343 88V44Q343 21 330 11T296 0H90Q69 0 56 10T43 44V88Q43 111 56 122T90
133H105V367H90Q69 367 56 378T43 412V456Q43 479 56 489T90 500H214Q235 500 249 486T263 450V389Q280 444 319 477T405 510Q456 510 483 482Z" />
<glyph unicode="s" glyph-name="s" horiz-adv-x="507" d="M355 298T393 277T448 226T465 153Q465 106 438 69T361 11T250 -10Q153 -10 97 20T40 100Q40 134 63 155T123 177Q158 177 182 154T206 95Q220 88 246 88Q275 88 291 98T307 127Q307 147 295 157T244 178Q171
199 129 222T67 276T48 351Q48 398 75 434T151 490T263 510Q352 510 405 481T459 404Q459 369 436 348T376 326Q342 326 319 348T293 405Q280 412 260 412Q235 412 221 401T207 371Q207 353 223 342T288 317Q355 298 393 277Z" />
<glyph unicode="t" glyph-name="t" horiz-adv-x="485" d="M427 178T446 162T465 121Q465 93 448 70Q390 -10 298 -10Q101 -10 101 208V370H66Q45 370 31 384T17 420V451Q17 472 31 486T66 500H101V588Q101 610 115 624T151 638H210Q231 638 245 624T259 588V500H360Q382
500 396 486T410 451V420Q410 398 396 384T360 370H259V183Q259 154 271 137T306 120Q323 120 334 127T357 153Q367 166 376 172T401 178Q427 178 446 162Z" />
<glyph unicode="u" glyph-name="u" horiz-adv-x="642" d="M591 133T604 122T617 88V44Q617 21 604 11T569 0H446Q424 0 410 14T396 50V95Q376 48 338 19T256 -10Q175 -10 131 42T86 188V367H70Q49 367 36 378T23 412V456Q23 479 36 489T70 500H194Q215 500 229
486T244 450V236Q244 170 256 145T302 120Q341 120 368 154T396 235V367H381Q359 367 346 378T333 412V456Q333 479 346 489T381 500H505Q526 500 540 486T554 450V133H569Q591 133 604 122Z" />
<glyph unicode="v" glyph-name="v" horiz-adv-x="615" d="M571 500T584 490T597 456V412Q597 389 584 378T550 367H535L379 29Q374 16 363 8T338 0H277Q249 0 235 29L80 367H65Q43 367 30 378T17 412V456Q17 479 30 489T65 500H235Q256 500 269 490T282 456V412Q282
373 247 368L321 197L394 367Q348 369 348 412V456Q348 479 361 489T396 500H550Q571 500 584 490Z" />
<glyph unicode="w" glyph-name="w" horiz-adv-x="848" d="M804 500T817 490T830 456V412Q830 389 817 378T783 367H768L654 33Q649 19 638 10T611 0H550Q535 0 523 9T506 33L424 259L342 33Q337 18 325 9T298 0H237Q222 0 210 9T193 33L80 367H65Q44 367 31 378T17
412V456Q17 479 30 489T65 500H258Q279 500 292 490T305 456V412Q305 389 292 378T258 367H243L301 189L371 382Q376 397 387 406T415 415H464Q479 415 490 406T507 382L577 191L635 367H620Q598 367 585 378T572 412V456Q572 479 585 489T620 500H783Q804 500
817 490Z" />
<glyph unicode="x" glyph-name="x" horiz-adv-x="654" d="M590 133T603 122T616 88V44Q616 21 603 11T569 0H357Q336 0 323 10T310 44V88Q310 111 323 122T357 133H412Q393 133 371 140T334 164L301 200L242 130Q269 120 269 88V44Q269 21 256 11T221 0H85Q63
0 50 10T37 44V88Q37 111 50 122T85 133H114L218 259L117 367H91Q69 367 56 378T43 412V456Q43 479 56 489T91 500H289Q310 500 323 490T336 456V412Q336 389 323 378T289 367H248Q267 367 289 360T326 336L352 308L403 369Q374 378 374 412V456Q374 479 387 489T422
500H565Q586 500 599 490T612 456V412Q612 389 599 378T565 367H526L431 252L543 133H569Q590 133 603 122Z" />
<glyph unicode="y" glyph-name="y" horiz-adv-x="615" d="M572 500T585 490T598 456V412Q598 389 585 378T550 367H535L351 -33Q315 -113 284 -157T219 -221T142 -240Q91 -240 58 -213T24 -144Q24 -110 47 -89T106 -67Q128 -67 146 -76T175 -102Q190 -82 215 -29L239
23L80 367H65Q43 367 30 378T17 412V456Q17 479 30 489T65 500H235Q256 500 269 490T282 456V412Q282 373 247 368L321 196L394 367Q348 369 348 412V456Q348 479 361 489T396 500H550Q572 500 585 490Z" />
<glyph unicode="z" glyph-name="z" horiz-adv-x="545" d="M475 215T486 202T497 167V50Q497 28 483 14T447 0H95Q73 0 59 14T45 49V69Q45 87 52 100T74 132L286 380H181V353Q181 331 171 318T137 305H93Q49 305 49 353V450Q49 472 63 486T98 500H443Q464 500 478
486T492 451V431Q492 414 485 400T463 368L252 120H364V167Q364 189 374 202T408 215H452Q475 215 486 202Z" />
<glyph unicode="{" glyph-name="braceleft" horiz-adv-x="408" d="M271 637T252 626T233 586Q233 573 242 557T269 516Q297 475 312 445T327 381Q327 289 229 255Q277 239 302 207T327 129Q327 95 312 65T269 -6Q251 -30 242 -46T233 -76Q233 -105 252 -116T321
-127Q342 -127 356 -141T370 -176V-211Q370 -232 356 -246T321 -260Q195 -260 134 -222T73 -103Q73 -60 87 -26T130 53Q149 84 158 102T167 138Q167 189 97 189H79Q59 189 45 203T30 238V272Q30 293 44 307T79 321H97Q167 321 167 372Q167 390 158 409T130 457Q102
502 88 536T73 613Q73 693 134 731T321 770Q342 770 356 756T370 721V686Q370 666 356 652T321 637Q271 637 252 626Z" />
<glyph unicode="|" glyph-name="bar" horiz-adv-x="364" d="M229 760T243 746T258 711V-201Q258 -222 244 -236T209 -250H156Q135 -250 121 -236T107 -201V711Q107 732 121 746T156 760H209Q229 760 243 746Z" />
<glyph unicode="}" glyph-name="braceright" horiz-adv-x="408" d="M350 321T364 307T378 272V238Q378 217 364 203T329 189H311Q241 189 241 138Q241 121 250 103T278 53Q306 8 320 -26T335 -103Q335 -183 274 -221T87 -260Q67 -260 53 -246T38 -211V-176Q38
-156 52 -142T87 -127Q137 -127 156 -116T175 -76Q175 -63 166 -47T139 -6Q111 35 96 65T81 129Q81 175 106 207T179 255Q81 289 81 381Q81 415 96 445T139 516Q157 540 166 556T175 586Q175 615 156 626T87 637Q67 637 53 651T38 686V721Q38 742 52 756T87 770Q213
770 274 732T335 613Q335 570 321 536T278 457Q259 428 250 409T241 372Q241 321 311 321H329Q350 321 364 307Z" />
<glyph unicode="~" glyph-name="asciitilde" horiz-adv-x="638" d="M370 230T342 241T278 277Q264 288 255 293T238 298Q229 298 221 291T197 259Q182 236 160 236Q144 236 124 245T89 269T74 301Q74 313 81 324Q109 369 149 398T230 428Q268 428 295 417T359
381Q371 372 381 366T399 360Q408 360 416 367T440 400Q448 412 456 417T477 422Q492 422 512 413T547 389T562 358Q562 346 556 334Q528 289 488 260T407 230Q370 230 342 241Z" />
<glyph unicode="&#xa0;" glyph-name="uni00A0" horiz-adv-x="284" />
<glyph unicode="&#xa1;" glyph-name="exclamdown" horiz-adv-x="359" d="M227 480T258 451T289 376Q289 330 258 302T180 273Q134 273 103 301T72 376Q72 422 103 451T180 480Q227 480 258 451ZM211 213Q232 213 246 199T261 163V-180Q261 -202 247 -216T211 -230H150Q129
-230 115 -216T101 -180V163Q101 185 115 199T150 213H211Z" />
<glyph unicode="&#xa2;" glyph-name="cent" horiz-adv-x="539" d="M456 173T473 160T491 120Q491 91 473 68Q435 16 364 -2V-104Q364 -125 350 -139T315 -153H262Q241 -153 227 -139T213 -104V1Q129 24 84 90T38 252Q38 348 85 413T213 500V604Q213 625 227 639T262
653H315Q336 653 350 639T364 604V501Q426 484 464 443T502 349Q502 309 476 285T408 260Q365 260 339 283T313 345Q313 359 316 372Q302 380 283 380Q241 380 220 348T199 254Q199 193 227 157T307 120Q334 120 350 127T385 152Q408 173 431 173Q456 173 473 160Z"
/>
<glyph unicode="&#xa3;" glyph-name="sterling" horiz-adv-x="681" d="M604 195T604 148V49Q604 28 590 14T555 0H119Q99 0 85 14T70 49V84Q70 104 84 118T119 133H126Q163 133 179 144T196 183Q196 208 181 260H119Q99 260 85 274T70 309V344Q70 365 84 379T119
393H147Q136 455 136 500Q136 561 167 608T252 683T377 710Q439 710 489 689T569 629T598 545Q598 500 572 473T503 445Q461 445 435 468T409 530Q409 551 416 566Q402 577 375 577Q339 577 318 551T296 481Q296 452 314 393H468Q489 393 503 379T517 344V309Q517
289 503 275T468 260H351Q356 232 356 213Q356 163 327 133H472V148Q472 195 516 195H560Q604 195 604 148Z" />
<glyph unicode="&#xa4;" glyph-name="currency" horiz-adv-x="757" d="M667 111Q682 96 682 77Q682 62 667 41T630 5T595 -11Q576 -11 560 5L488 77Q440 59 378 59Q317 59 268 77L196 5Q180 -11 161 -11Q147 -11 126 4T90 41T74 77Q74 97 89 111L151 174Q124 223
124 284Q124 345 151 394L89 457Q74 471 74 491Q74 506 89 526T125 562T161 578Q181 578 196 563L268 491Q319 510 378 510Q441 510 488 491L560 563Q575 578 595 578Q610 578 630 563T666 527T682 491Q682 472 667 457L604 394Q631 346 631 284Q631 222 604 174L667
111ZM285 241T310 215T378 189Q419 189 444 215T470 284Q470 327 445 353T378 380Q336 380 311 354T285 284Q285 241 310 215Z" />
<glyph unicode="&#xa5;" glyph-name="yen" horiz-adv-x="706" d="M650 700T663 690T676 656V612Q676 589 663 578T629 567H613L535 435H576Q597 435 611 421T625 386V368Q625 347 611 333T576 319H466L444 281H576Q597 281 611 267T625 232V213Q625 193 611 179T576
164H433V133H448Q470 133 483 122T496 88V44Q496 21 483 11T448 0H258Q237 0 224 10T210 44V88Q210 111 223 122T258 133H273V164H130Q110 164 96 178T81 213V232Q81 253 95 267T130 281H262L240 319H130Q110 319 96 333T81 368V386Q81 407 95 421T130 435H171L93
567H78Q56 567 43 578T30 612V656Q30 679 43 689T78 700H288Q310 700 323 690T336 656V612Q336 589 323 578T288 567H273L368 402L463 567H448Q426 567 413 578T400 612V656Q400 679 413 689T448 700H629Q650 700 663 690Z" />
<glyph unicode="&#xa6;" glyph-name="brokenbar" horiz-adv-x="357" d="M226 760T240 746T254 711V377Q254 356 240 342T205 328H152Q131 328 117 342T103 377V711Q103 732 117 746T152 760H205Q226 760 240 746ZM226 215T240 201T254 166V-201Q254 -222 240 -236T205
-250H152Q131 -250 117 -236T103 -201V166Q103 187 117 201T152 215H205Q226 215 240 201Z" />
<glyph unicode="&#xa7;" glyph-name="section" horiz-adv-x="583" d="M511 287T458 240Q488 204 488 149Q488 76 432 33T280 -10Q195 -10 143 19T90 96Q90 131 113 152T172 174Q207 174 230 152T255 95Q266 88 284 88Q330 88 330 129Q330 147 313 158T248 183Q182
202 144 223T89 274T72 347Q72 414 126 460Q95 495 95 551Q95 624 151 667T303 710Q388 710 441 681T494 604Q494 569 471 548T411 526Q377 526 354 548T328 605Q317 612 300 612Q253 612 253 571Q253 553 270 542T335 517Q401 498 439 477T494 426T511 353Q511
287 458 240ZM217 348T246 331T358 291Q366 311 366 328Q366 353 337 370T225 409Q217 389 217 372Q217 348 246 331Z" />
<glyph unicode="&#xa8;" glyph-name="dieresis" horiz-adv-x="494" d="M105 574T82 596T59 654Q59 690 82 712T140 734Q177 734 201 712T225 654Q225 618 201 596T140 574Q105 574 82 596ZM318 574T294 596T270 654Q270 690 294 712T355 734Q391 734 414 712T437
654Q437 618 414 596T355 574Q318 574 294 596Z" />
<glyph unicode="&#xa9;" glyph-name="copyright" horiz-adv-x="850" d="M528 710T610 664T738 536T784 350Q784 246 738 164T610 36T425 -10Q322 -10 240 36T112 164T66 350Q66 454 112 536T240 664T425 710Q528 710 610 664ZM509 67T571 101T668 200T702 350Q702
436 668 500T572 598T425 633Q341 633 278 599T181 500T147 350Q147 264 181 200T278 102T425 67Q509 67 571 101ZM481 355T463 372T444 416Q444 423 446 435Q436 440 424 440Q366 440 366 352Q366 310 386 284T441 257Q458 257 469 262T496 280Q514 296 529 296Q547
296 559 286T572 257Q572 235 559 220Q541 196 510 180T435 164Q349 164 300 215T251 350Q251 435 301 484T431 534Q472 534 506 519T560 478T580 419Q580 391 561 373T512 355Q481 355 463 372Z" />
<glyph unicode="&#xaa;" glyph-name="ordfeminine" horiz-adv-x="432" d="M382 445T391 437T400 414V384Q400 371 391 362T368 353H280Q267 353 258 362T249 385V417Q220 346 152 346Q106 346 77 373T47 444Q47 497 79 522T178 548Q212 548 249 540V577Q249 624
209 624Q193 624 182 618V617Q182 592 166 577T122 562Q94 562 78 578T61 621Q61 660 101 685T204 710Q272 710 312 676T353 583V445H368Q382 445 391 437ZM213 426T231 445T249 489Q229 494 194 494Q151 494 151 460Q151 444 161 435T190 426Q213 426 231 445Z"
/>
<glyph unicode="&#xab;" glyph-name="guillemotleft" horiz-adv-x="667" d="M620 127Q631 112 631 98Q631 72 598 72H506Q487 72 473 80T447 105L346 225Q324 251 324 284Q324 317 346 343L447 463Q459 479 473 487T506 496H598Q631 496 631 470Q631 456 620 441L490
284L620 127ZM340 127Q351 112 351 98Q351 72 318 72H226Q207 72 193 80T167 105L66 225Q44 251 44 284Q44 317 66 343L167 463Q179 479 193 487T226 496H318Q351 496 351 470Q351 456 340 441L210 284L340 127Z" />
<glyph unicode="&#xac;" glyph-name="logicalnot" horiz-adv-x="655" d="M523 386T537 372T551 337V162Q551 140 537 126T502 112H468Q447 112 433 126T419 162V254H119Q97 254 83 268T69 303V337Q69 358 83 372T119 386H502Q523 386 537 372Z" />
<glyph unicode="&#xad;" glyph-name="uni00AD" horiz-adv-x="562" d="M94 254T80 268T66 303V337Q66 358 80 372T116 386H448Q470 386 484 372T498 337V303Q498 282 484 268T448 254H116Q94 254 80 268Z" />
<glyph unicode="&#xae;" glyph-name="registered" horiz-adv-x="667" d="M408 717T468 684T563 593T597 461Q597 388 563 330T469 238T333 205Q258 205 198 238T104 329T70 461Q70 534 104 592T198 684T333 717Q408 717 468 684ZM425 264T479 317T533 461Q533
552 479 605T333 658Q241 658 188 605T134 461Q134 370 187 317T333 264Q425 264 479 317ZM439 399T443 396T447 387V365Q447 360 443 357T432 353H397Q383 353 373 368L344 415Q335 430 328 436T311 444V399H320Q334 399 334 388V366Q334 353 320 353H250Q243
353 239 356T235 366V388Q235 399 250 399H258V526H250Q243 526 239 529T235 539V561Q235 566 239 569T250 573H333Q377 573 397 558T418 509Q418 462 376 450Q388 443 395 431L415 399H432Q439 399 443 396ZM311 526V491H343Q364 491 364 509Q364 526 343 526H311Z"
/>
<glyph unicode="&#xaf;" glyph-name="overscore" horiz-adv-x="480" d="M93 582T79 596T65 632V666Q65 687 79 701T115 715H365Q386 715 400 701T414 666V632Q414 611 400 597T365 582H115Q93 582 79 596Z" />
<glyph unicode="&#xb0;" glyph-name="degree" horiz-adv-x="472" d="M193 402T157 422T100 478T79 556Q79 599 100 634T157 689T236 710Q279 710 315 690T372 634T393 556Q393 513 372 478T315 423T236 402Q193 402 157 422ZM263 497T278 512T293 556Q293 584
278 599T236 615Q209 615 194 600T179 556Q179 528 194 513T236 497Q263 497 278 512Z" />
<glyph unicode="&#xb1;" glyph-name="plusminus" horiz-adv-x="627" d="M527 490T541 476T555 440V406Q555 385 541 371T505 357H380V293Q380 272 366 258T330 243H297Q275 243 261 257T247 293V357H122Q100 357 86 371T72 406V440Q72 461 86 475T122 490H247V553Q247
575 261 589T297 604H330Q352 604 366 590T380 554V490H505Q527 490 541 476ZM527 201T541 187T555 152V118Q555 97 541 83T505 69H122Q100 69 86 83T72 118V152Q72 173 86 187T122 201H505Q527 201 541 187Z" />
<glyph unicode="&#xb2;" glyph-name="uni00B2" horiz-adv-x="408" d="M342 417T351 408T360 385V315Q360 302 351 293T328 284H85Q73 284 64 293T54 315V349Q54 387 63 412T94 459T159 508Q198 533 215 545T238 567T244 587Q244 618 204 618Q184 618 173 608Q175
600 175 594Q175 569 159 554T115 539Q88 539 71 557T54 603Q54 649 95 679T199 710Q264 710 306 677T348 591Q348 556 337 533T298 484T212 422Q189 407 178 397T163 376H267V385Q267 399 276 408T299 417H329Q342 417 351 408Z" />
<glyph unicode="&#xb3;" glyph-name="uni00B3" horiz-adv-x="414" d="M333 495T350 469T367 406Q367 347 322 311T205 274Q160 274 124 288T67 326T46 381Q46 409 63 426T107 444Q134 444 150 430T167 390Q167 381 166 377Q180 366 207 366Q263 366 263 411Q263
433 252 441T211 449H191Q178 449 169 458T160 481V510Q160 523 169 532T191 542H209Q229 542 238 551T247 579Q247 618 202 618Q181 618 168 610Q170 600 170 594Q170 569 154 554T110 539Q83 539 66 557T49 603Q49 649 92 679T199 710Q269 710 310 679T351 593Q351
566 339 544T303 509Q333 495 350 469Z" />
<glyph unicode="&#xb4;" glyph-name="acute" horiz-adv-x="293" d="M31 607T42 625T100 705Q130 748 145 762T181 777Q210 777 233 755T257 706Q257 685 240 666T183 617Q129 578 108 566T74 554Q59 554 45 568T31 599Q31 607 42 625Z" />
<glyph unicode="&#xb5;" glyph-name="uni00B5" horiz-adv-x="659" d="M546 500T560 486T575 450V50Q575 28 561 14T525 0H466Q445 0 431 14T416 50V93Q396 47 358 19T276 -10H264V-180Q264 -202 250 -216T215 -230H156Q134 -230 120 -216T106 -180V450Q106 472
120 486T156 500H215Q236 500 250 486T264 450V236Q264 170 276 145T323 120Q362 120 389 154T416 235V450Q416 472 430 486T466 500H525Q546 500 560 486Z" />
<glyph unicode="&#xb6;" glyph-name="paragraph" horiz-adv-x="795" d="M664 567V133H679Q700 133 713 122T726 88V44Q726 21 713 11T679 0H268Q246 0 233 10T220 44V88Q220 111 233 122T268 133H283V314Q175 314 116 364T56 507Q56 599 115 649T283 700H679Q700
700 713 690T726 656V612Q726 589 713 578T679 567H664ZM513 133V567H434V133H513Z" />
<glyph unicode="&#xb7;" glyph-name="middot" horiz-adv-x="380" d="M299 361T269 389T191 418Q144 418 113 390T82 315Q82 269 113 240T191 211Q238 211 268 240T299 315Q299 361 269 389Z" />
<glyph unicode="&#xb8;" glyph-name="cedilla" horiz-adv-x="350" d="M254 -44T283 -72T312 -148Q312 -200 276 -231T179 -263H101Q79 -263 65 -249T51 -214V-209Q51 -188 65 -174T101 -159H162Q188 -159 188 -140Q188 -122 162 -122H93Q60 -122 60 -95Q60 -84
63 -73T79 -36L109 27H208L174 -46Q183 -44 204 -44Q254 -44 283 -72Z" />
<glyph unicode="&#xb9;" glyph-name="uni00B9" horiz-adv-x="306" d="M253 376T262 368T271 345V315Q271 301 262 293T239 284H75Q61 284 52 293T42 315V345Q42 358 51 367T75 376H105V540H60Q47 540 38 549T28 572V601Q28 615 37 624T60 633H76Q89 633 97 639T105
661V669Q105 682 114 691T136 700H178Q191 700 200 691T209 669V376H239Q253 376 262 368Z" />
<glyph unicode="&#xba;" glyph-name="ordmasculine" horiz-adv-x="450" d="M138 346T92 392T46 524Q46 612 94 661T229 710Q313 710 358 664T404 533Q404 445 356 396T221 346Q138 346 92 392ZM300 438T300 531Q300 618 226 618Q190 618 170 594T150 525Q150 484
168 461T220 438Q300 438 300 531Z" />
<glyph unicode="&#xbb;" glyph-name="guillemotright" horiz-adv-x="667" d="M342 251T320 225L219 105Q206 89 193 81T160 72H68Q35 72 35 98Q35 114 45 127L175 284L45 441Q35 454 35 470Q35 496 68 496H160Q179 496 192 488T219 463L320 343Q342 317 342 284Q342
251 320 225ZM622 318T622 284Q622 250 600 225L500 105Q487 89 474 81T441 72H349Q331 72 323 79T315 98Q315 112 326 127L456 284L326 441Q315 456 315 470Q315 482 323 489T349 496H441Q460 496 473 488T500 463L600 343Q622 318 622 284Z" />
<glyph unicode="&#xbc;" glyph-name="onequarter" horiz-adv-x="893" d="M286 302T277 293T253 284H89Q75 284 66 293T56 315V345Q56 358 65 367T89 376H119V540H74Q61 540 52 549T42 572V601Q42 615 51 624T74 633H90Q103 633 111 639T119 661V669Q119 682 128
691T151 700H192Q205 700 214 691T223 669V376H253Q267 376 276 367T286 345V315Q286 302 277 293ZM727 662T717 648L284 33Q270 13 260 7T228 0H195Q180 0 171 7T162 27Q162 38 172 52L605 667Q619 687 629 693T661 700H694Q709 700 718 693T727 673Q727 662 717
648ZM835 219T844 210T853 188V167Q853 153 844 145T821 136H777V92H807Q821 92 830 83T840 61V31Q840 18 831 9T807 0H643Q629 0 620 9T611 31V61Q611 75 620 83T643 92H673V136H532Q518 136 509 144T500 167V179Q500 196 502 205T515 228L636 391Q646 405 654
410T678 416H746Q759 416 768 407T777 385V219H821Q835 219 844 210ZM673 219V322L597 219H673Z" />
<glyph unicode="&#xbd;" glyph-name="onehalf" horiz-adv-x="928" d="M286 302T277 293T253 284H89Q75 284 66 293T56 315V345Q56 358 65 367T89 376H119V540H74Q61 540 52 549T42 572V601Q42 615 51 624T74 633H90Q103 633 111 639T119 661V669Q119 682 128 691T151
700H192Q205 700 214 691T223 669V376H253Q267 376 276 367T286 345V315Q286 302 277 293ZM727 662T717 648L284 33Q270 13 260 7T228 0H195Q180 0 171 7T162 27Q162 38 172 52L605 667Q619 687 629 693T661 700H694Q709 700 718 693T727 673Q727 662 717 648ZM861
134T870 125T879 101V32Q879 19 870 10T848 0H605Q592 0 583 9T573 31V65Q573 103 582 128T613 175T678 225Q716 249 733 261T757 283T763 303Q763 318 753 326T724 334Q703 334 692 324Q694 316 694 310Q694 285 678 271T634 256Q607 256 590 273T573 319Q573
365 615 395T719 426Q783 426 825 393T867 308Q867 273 856 249T817 200T731 138Q708 123 697 114T682 92H787V101Q787 115 796 124T818 134H848Q861 134 870 125Z" />
<glyph unicode="&#xbe;" glyph-name="threequarters" horiz-adv-x="943" d="M366 347T322 311T204 274Q136 274 91 304T46 381Q46 409 62 426T106 444Q133 444 150 430T167 390Q167 386 165 376Q180 366 206 366Q262 366 262 411Q262 433 251 441T211 449H190Q177
449 168 458T159 481V510Q159 523 168 532T190 542H208Q228 542 237 551T247 579Q247 598 236 608T202 618Q181 618 168 610Q170 600 170 594Q170 569 153 554T109 539Q82 539 66 557T49 603Q49 649 91 679T198 710Q269 710 309 679T350 593Q350 566 338 545T303
509Q333 495 349 469T366 406Q366 347 322 311ZM777 662T767 648L335 33Q320 13 310 7T279 0H246Q230 0 222 7T213 27Q213 38 223 52L656 667Q670 687 680 693T712 700H745Q760 700 768 693T777 673Q777 662 767 648ZM885 219T894 210T904 188V167Q904 154 895
145T872 136H828V92H858Q872 92 881 84T890 61V31Q890 18 881 9T858 0H694Q680 0 671 9T661 31V61Q661 74 670 83T694 92H724V136H582Q568 136 559 145T550 167V179Q550 195 553 204T566 228L686 391Q697 405 705 410T729 416H796Q810 416 819 407T828 385V219H872Q885
219 894 210ZM724 219V322L648 219H724Z" />
<glyph unicode="&#xbf;" glyph-name="questiondown" horiz-adv-x="575" d="M251 273T220 301T189 376Q189 422 220 451T298 480Q345 480 375 451T406 376Q406 330 376 302T298 273Q251 273 220 301ZM479 18T505 -10T531 -82Q531 -126 502 -162T419 -219T296 -240Q222
-240 166 -215T78 -143T47 -38Q47 39 90 85T215 141V163Q215 185 229 199T264 213H325Q346 213 360 199T375 163V98Q375 77 361 63T325 48H298Q255 48 233 27T211 -37Q211 -68 232 -87T286 -107Q324 -107 344 -90Q342 -76 342 -68Q342 -29 368 -6T436 18Q479 18
505 -10Z" />
<glyph unicode="&#xc0;" glyph-name="Agrave" horiz-adv-x="744" d="M688 133T701 122T714 88V44Q714 21 701 11T666 0H472Q450 0 437 10T424 44V88Q424 111 437 122T472 133H487L459 215H258L230 133H246Q267 133 280 122T293 88V44Q293 21 280 11T246 0H78Q57
0 44 10T30 44V88Q30 111 43 122T78 133H93L284 665Q289 681 302 690T333 700H411Q428 700 441 691T460 665L651 133H666Q688 133 701 122ZM413 348L359 508L304 348H413ZM429 783T416 769T387 754Q373 754 352 766T278 817Q238 846 221 865T204 906Q204 933 227
955T279 977Q299 977 315 962T361 905Q407 843 418 825T429 799Q429 783 416 769Z" />
<glyph unicode="&#xc1;" glyph-name="Aacute" horiz-adv-x="744" d="M688 133T701 122T714 88V44Q714 21 701 11T666 0H472Q450 0 437 10T424 44V88Q424 111 437 122T472 133H487L459 215H258L230 133H246Q267 133 280 122T293 88V44Q293 21 280 11T246 0H78Q57
0 44 10T30 44V88Q30 111 43 122T78 133H93L284 665Q289 681 302 690T333 700H411Q428 700 441 691T460 665L651 133H666Q688 133 701 122ZM413 348L359 508L304 348H413ZM315 807T326 825T384 905Q414 948 429 962T465 977Q494 977 517 955T541 906Q541 885 524
866T467 817Q413 778 392 766T358 754Q343 754 329 768T315 799Q315 807 326 825Z" />
<glyph unicode="&#xc2;" glyph-name="Acircumflex" horiz-adv-x="744" d="M688 133T701 122T714 88V44Q714 21 701 11T666 0H472Q450 0 437 10T424 44V88Q424 111 437 122T472 133H487L459 215H258L230 133H246Q267 133 280 122T293 88V44Q293 21 280 11T246 0H78Q57
0 44 10T30 44V88Q30 111 43 122T78 133H93L284 665Q289 681 302 690T333 700H411Q428 700 441 691T460 665L651 133H666Q688 133 701 122ZM413 348L359 508L304 348H413ZM515 843T526 825T537 799Q537 783 524 769T495 754Q481 754 472 758T448 774L373 834L297
774Q282 763 273 759T250 754Q235 754 221 768T207 799Q207 807 218 825T276 905Q306 948 321 962T357 977H387Q407 977 422 963T469 905Q515 843 526 825Z" />
<glyph unicode="&#xc3;" glyph-name="Atilde" horiz-adv-x="744" d="M688 133T701 122T714 88V44Q714 21 701 11T666 0H472Q450 0 437 10T424 44V88Q424 111 437 122T472 133H487L459 215H258L230 133H246Q267 133 280 122T293 88V44Q293 21 280 11T246 0H78Q57
0 44 10T30 44V88Q30 111 43 122T78 133H93L284 665Q289 681 302 690T333 700H411Q428 700 441 691T460 665L651 133H666Q688 133 701 122ZM413 348L359 508L304 348H413ZM398 759T382 768T344 800Q333 811 327 815T314 819Q308 819 303 815T287 800Q270 782 261
776T236 769Q220 769 207 783T193 814Q193 822 197 832T213 861Q237 900 261 920T321 940Q347 940 363 931T401 900Q412 888 417 885T430 881Q437 881 442 885T457 899Q473 917 483 923T509 930Q524 930 537 916T551 885Q551 870 532 839Q508 800 483 780T423 759Q398
759 382 768Z" />
<glyph unicode="&#xc4;" glyph-name="Adieresis" horiz-adv-x="744" d="M688 133T701 122T714 88V44Q714 21 701 11T666 0H472Q450 0 437 10T424 44V88Q424 111 437 122T472 133H487L459 215H258L230 133H246Q267 133 280 122T293 88V44Q293 21 280 11T246 0H78Q57
0 44 10T30 44V88Q30 111 43 122T78 133H93L284 665Q289 681 302 690T333 700H411Q428 700 441 691T460 665L651 133H666Q688 133 701 122ZM413 348L359 508L304 348H413ZM229 774T206 796T183 854Q183 890 206 912T264 934Q301 934 325 912T349 854Q349 818 325
796T264 774Q229 774 206 796ZM442 774T418 796T394 854Q394 890 418 912T479 934Q515 934 538 912T561 854Q561 818 538 796T479 774Q442 774 418 796Z" />
<glyph unicode="&#xc5;" glyph-name="Aring" horiz-adv-x="744" d="M688 133T701 122T714 88V44Q714 21 701 11T666 0H472Q450 0 437 10T424 44V88Q424 111 437 122T472 133H487L459 215H258L230 133H246Q267 133 280 122T293 88V44Q293 21 280 11T246 0H78Q57
0 44 10T30 44V88Q30 111 43 122T78 133H93L284 665Q284 667 290 678Q269 696 257 721T244 776Q244 829 281 865T372 902Q426 902 463 866T501 776Q501 747 489 721T454 677Q459 673 460 665L651 133H666Q688 133 701 122ZM355 816T344 805T332 776Q332 758 343
747T372 736Q391 736 401 747T412 776Q412 794 402 805T372 816Q355 816 344 805ZM413 348L359 508L304 348H413Z" />
<glyph unicode="&#xc6;" glyph-name="AE" horiz-adv-x="983" d="M919 245T919 197V57Q919 32 903 16T860 0H434V215H258L230 133H246Q267 133 280 122T293 88V44Q293 21 280 11T246 0H78Q57 0 44 10T30 44V88Q30 111 43 122T78 133H93L284 665Q289 681 302 690T333
700H854Q880 700 897 683T914 641V519Q914 497 903 484T869 471H825Q802 471 792 484T781 519V567H594V428H741Q761 428 775 414T789 379V345Q789 324 775 310T741 296H594V133H787V197Q787 219 797 232T831 245H875Q919 245 919 197ZM434 348V567H379L304 348H434Z"
/>
<glyph unicode="&#xc7;" glyph-name="Ccedilla" horiz-adv-x="656" d="M566 237T587 221T608 178Q608 165 602 145T585 109Q552 53 503 24T383 -9L366 -46Q375 -44 396 -44Q446 -44 475 -72T504 -148Q504 -200 468 -231T371 -263H293Q271 -263 257 -249T243 -214V-209Q243
-188 257 -174T293 -159H354Q380 -159 380 -140Q380 -122 354 -122H285Q252 -122 252 -95Q252 -84 255 -73T271 -36L287 -3Q177 22 116 117T54 356Q54 465 90 545T194 667T359 710Q429 710 486 688T575 626T608 537Q608 493 582 465T513 437Q470 437 444 460T418
523Q418 544 426 563Q404 577 362 577Q285 577 251 525T217 359Q217 241 254 182T369 123Q406 123 431 139T474 191Q487 218 500 227T537 237Q566 237 587 221Z" />
<glyph unicode="&#xc8;" glyph-name="Egrave" horiz-adv-x="663" d="M578 245T588 232T599 197V57Q599 32 583 16T540 0H99Q77 0 64 10T51 44V88Q51 111 64 122T99 133H114V567H99Q77 567 64 578T51 612V656Q51 679 64 689T99 700H534Q560 700 576 684T593 641V519Q593
497 583 484T549 471H505Q461 471 461 519V567H274V428H420Q441 428 455 414T469 379V345Q469 324 455 310T420 296H274V133H466V197Q466 219 477 232T511 245H555Q578 245 588 232ZM381 783T368 769T339 754Q325 754 304 766T230 817Q190 846 173 865T156 906Q156
933 179 955T231 977Q251 977 267 962T313 905Q359 843 370 825T381 799Q381 783 368 769Z" />
<glyph unicode="&#xc9;" glyph-name="Eacute" horiz-adv-x="663" d="M578 245T588 232T599 197V57Q599 32 583 16T540 0H99Q77 0 64 10T51 44V88Q51 111 64 122T99 133H114V567H99Q77 567 64 578T51 612V656Q51 679 64 689T99 700H534Q560 700 576 684T593 641V519Q593
497 583 484T549 471H505Q461 471 461 519V567H274V428H420Q441 428 455 414T469 379V345Q469 324 455 310T420 296H274V133H466V197Q466 219 477 232T511 245H555Q578 245 588 232ZM268 807T279 825T337 905Q367 948 382 962T418 977Q447 977 470 955T494 906Q494
885 477 866T420 817Q366 778 345 766T311 754Q296 754 282 768T268 799Q268 807 279 825Z" />
<glyph unicode="&#xca;" glyph-name="Ecircumflex" horiz-adv-x="663" d="M578 245T588 232T599 197V57Q599 32 583 16T540 0H99Q77 0 64 10T51 44V88Q51 111 64 122T99 133H114V567H99Q77 567 64 578T51 612V656Q51 679 64 689T99 700H534Q560 700 576 684T593
641V519Q593 497 583 484T549 471H505Q461 471 461 519V567H274V428H420Q441 428 455 414T469 379V345Q469 324 455 310T420 296H274V133H466V197Q466 219 477 232T511 245H555Q578 245 588 232ZM468 843T479 825T490 799Q490 783 477 769T448 754Q434 754 425
758T401 774L326 834L250 774Q235 763 226 759T203 754Q188 754 174 768T160 799Q160 807 171 825T229 905Q259 948 274 962T310 977H340Q360 977 375 963T422 905Q468 843 479 825Z" />
<glyph unicode="&#xcb;" glyph-name="Edieresis" horiz-adv-x="663" d="M578 245T588 232T599 197V57Q599 32 583 16T540 0H99Q77 0 64 10T51 44V88Q51 111 64 122T99 133H114V567H99Q77 567 64 578T51 612V656Q51 679 64 689T99 700H534Q560 700 576 684T593
641V519Q593 497 583 484T549 471H505Q461 471 461 519V567H274V428H420Q441 428 455 414T469 379V345Q469 324 455 310T420 296H274V133H466V197Q466 219 477 232T511 245H555Q578 245 588 232ZM182 774T159 796T136 854Q136 890 159 912T217 934Q254 934 278
912T302 854Q302 818 278 796T217 774Q182 774 159 796ZM395 774T371 796T347 854Q347 890 371 912T432 934Q468 934 491 912T514 854Q514 818 491 796T432 774Q395 774 371 796Z" />
<glyph unicode="&#xcc;" glyph-name="Igrave" horiz-adv-x="387" d="M77 0T64 10T51 44V88Q51 111 64 122T99 133H114V567H99Q77 567 64 578T51 612V656Q51 679 64 689T99 700H289Q310 700 323 690T336 656V612Q336 589 323 578T289 567H274V133H289Q310 133 323
122T336 88V44Q336 21 323 11T289 0H99Q77 0 64 10ZM251 783T238 769T209 754Q195 754 174 766T100 817Q60 846 43 865T26 906Q26 933 49 955T101 977Q121 977 137 962T183 905Q229 843 240 825T251 799Q251 783 238 769Z" />
<glyph unicode="&#xcd;" glyph-name="Iacute" horiz-adv-x="387" d="M77 0T64 10T51 44V88Q51 111 64 122T99 133H114V567H99Q77 567 64 578T51 612V656Q51 679 64 689T99 700H289Q310 700 323 690T336 656V612Q336 589 323 578T289 567H274V133H289Q310 133 323
122T336 88V44Q336 21 323 11T289 0H99Q77 0 64 10ZM137 807T148 825T206 905Q236 948 251 962T287 977Q316 977 339 955T363 906Q363 885 346 866T289 817Q235 778 214 766T180 754Q165 754 151 768T137 799Q137 807 148 825Z" />
<glyph unicode="&#xce;" glyph-name="Icircumflex" horiz-adv-x="387" d="M77 0T64 10T51 44V88Q51 111 64 122T99 133H114V567H99Q77 567 64 578T51 612V656Q51 679 64 689T99 700H289Q310 700 323 690T336 656V612Q336 589 323 578T289 567H274V133H289Q310
133 323 122T336 88V44Q336 21 323 11T289 0H99Q77 0 64 10ZM337 843T348 825T359 799Q359 783 346 769T317 754Q303 754 294 758T270 774L195 834L119 774Q104 763 95 759T72 754Q57 754 43 768T29 799Q29 807 40 825T98 905Q128 948 143 962T179 977H209Q229
977 244 963T291 905Q337 843 348 825Z" />
<glyph unicode="&#xcf;" glyph-name="Idieresis" horiz-adv-x="387" d="M77 0T64 10T51 44V88Q51 111 64 122T99 133H114V567H99Q77 567 64 578T51 612V656Q51 679 64 689T99 700H289Q310 700 323 690T336 656V612Q336 589 323 578T289 567H274V133H289Q310 133
323 122T336 88V44Q336 21 323 11T289 0H99Q77 0 64 10ZM51 774T28 796T5 854Q5 890 28 912T86 934Q123 934 147 912T171 854Q171 818 147 796T86 774Q51 774 28 796ZM264 774T240 796T216 854Q216 890 240 912T301 934Q337 934 360 912T383 854Q383 818 360 796T301
774Q264 774 240 796Z" />
<glyph unicode="&#xd0;" glyph-name="Eth" horiz-adv-x="762" d="M534 700T623 614T712 371Q712 262 670 178T552 47T379 0H125Q104 0 91 10T78 44V88Q78 111 91 122T125 133H140V290H95Q73 290 59 304T45 339V373Q45 394 59 408T95 422H140V567H125Q104 567 91
578T78 612V656Q78 679 91 689T125 700H374Q534 700 623 614ZM455 133T501 194T548 365Q548 467 504 517T369 567H300V422H408Q430 422 444 408T458 373V339Q458 318 444 304T408 290H300V133H373Q455 133 501 194Z" />
<glyph unicode="&#xd1;" glyph-name="Ntilde" horiz-adv-x="760" d="M695 700T708 690T721 656V612Q721 589 708 578T674 567H659V50Q659 28 645 14T609 0H534Q523 0 514 5T498 19L248 424V133H264Q285 133 298 122T311 88V44Q311 21 298 11T264 0H99Q77 0 64
10T51 44V88Q51 111 64 122T99 133H114V567H99Q77 567 64 578T51 612V656Q51 679 64 689T99 700H238Q261 700 274 681L524 277V567H509Q488 567 475 578T461 612V656Q461 679 474 689T509 700H674Q695 700 708 690ZM406 759T390 768T352 800Q341 811 335 815T322
819Q316 819 311 815T295 800Q278 782 269 776T244 769Q228 769 215 783T201 814Q201 822 205 832T221 861Q245 900 269 920T329 940Q355 940 371 931T409 900Q420 888 425 885T438 881Q445 881 450 885T465 899Q481 917 491 923T517 930Q532 930 545 916T559 885Q559
870 540 839Q516 800 491 780T431 759Q406 759 390 768Z" />
<glyph unicode="&#xd2;" glyph-name="Ograve" horiz-adv-x="749" d="M270 -10T199 32T91 153T53 341Q53 454 92 537T206 665T382 710Q480 710 551 668T659 547T697 359Q697 246 657 163T543 35T369 -10Q270 -10 199 32ZM533 123T533 358Q533 470 495 523T380 577Q216
577 216 343Q216 230 254 177T370 123Q533 123 533 358ZM438 783T425 769T396 754Q382 754 361 766T287 817Q247 846 230 865T213 906Q213 933 236 955T288 977Q308 977 324 962T370 905Q416 843 427 825T438 799Q438 783 425 769Z" />
<glyph unicode="&#xd3;" glyph-name="Oacute" horiz-adv-x="749" d="M270 -10T199 32T91 153T53 341Q53 454 92 537T206 665T382 710Q480 710 551 668T659 547T697 359Q697 246 657 163T543 35T369 -10Q270 -10 199 32ZM533 123T533 358Q533 470 495 523T380 577Q216
577 216 343Q216 230 254 177T370 123Q533 123 533 358ZM325 807T336 825T394 905Q424 948 439 962T475 977Q504 977 527 955T551 906Q551 885 534 866T477 817Q423 778 402 766T368 754Q353 754 339 768T325 799Q325 807 336 825Z" />
<glyph unicode="&#xd4;" glyph-name="Ocircumflex" horiz-adv-x="749" d="M270 -10T199 32T91 153T53 341Q53 454 92 537T206 665T382 710Q480 710 551 668T659 547T697 359Q697 246 657 163T543 35T369 -10Q270 -10 199 32ZM533 123T533 358Q533 470 495 523T380
577Q216 577 216 343Q216 230 254 177T370 123Q533 123 533 358ZM525 843T536 825T547 799Q547 783 534 769T505 754Q491 754 482 758T458 774L383 834L307 774Q292 763 283 759T260 754Q245 754 231 768T217 799Q217 807 228 825T286 905Q316 948 331 962T367
977H397Q417 977 432 963T479 905Q525 843 536 825Z" />
<glyph unicode="&#xd5;" glyph-name="Otilde" horiz-adv-x="749" d="M270 -10T199 32T91 153T53 341Q53 454 92 537T206 665T382 710Q480 710 551 668T659 547T697 359Q697 246 657 163T543 35T369 -10Q270 -10 199 32ZM533 123T533 358Q533 470 495 523T380 577Q216
577 216 343Q216 230 254 177T370 123Q533 123 533 358ZM407 759T391 768T353 800Q342 811 336 815T323 819Q317 819 312 815T296 800Q279 782 270 776T245 769Q229 769 216 783T202 814Q202 822 206 832T222 861Q246 900 270 920T330 940Q356 940 372 931T410
900Q421 888 426 885T439 881Q446 881 451 885T466 899Q482 917 492 923T518 930Q533 930 546 916T560 885Q560 870 541 839Q517 800 492 780T432 759Q407 759 391 768Z" />
<glyph unicode="&#xd6;" glyph-name="Odieresis" horiz-adv-x="749" d="M270 -10T199 32T91 153T53 341Q53 454 92 537T206 665T382 710Q480 710 551 668T659 547T697 359Q697 246 657 163T543 35T369 -10Q270 -10 199 32ZM533 123T533 358Q533 470 495 523T380
577Q216 577 216 343Q216 230 254 177T370 123Q533 123 533 358ZM239 774T216 796T193 854Q193 890 216 912T274 934Q311 934 335 912T359 854Q359 818 335 796T274 774Q239 774 216 796ZM452 774T428 796T404 854Q404 890 428 912T489 934Q525 934 548 912T571
854Q571 818 548 796T489 774Q452 774 428 796Z" />
<glyph unicode="&#xd7;" glyph-name="multiply" horiz-adv-x="563" d="M476 220Q491 205 491 184Q491 169 479 152T450 123T417 111Q396 111 382 125L282 226L181 125Q167 111 146 111Q131 111 114 123T84 152T72 184Q72 205 87 220L188 320L88 420Q72 435 72
455Q72 469 84 486T113 516T146 529Q166 529 181 514L282 414L382 514Q397 529 417 529Q432 529 449 517T479 487T491 455Q491 435 475 420L375 320L476 220Z" />
<glyph unicode="&#xd8;" glyph-name="Oslash" horiz-adv-x="749" d="M636 588Q697 500 697 359Q697 246 657 163T543 35T369 -10Q259 -10 183 42L176 33Q158 12 149 6T118 0H87Q72 0 63 7T53 27Q53 38 64 53L113 113Q53 202 53 341Q53 454 92 537T206 665T382
710Q490 710 566 659L573 667Q591 688 600 694T631 700H662Q677 700 687 693T697 673Q697 664 685 647L636 588ZM216 288T225 247L474 547Q438 577 380 577Q216 577 216 343Q216 288 225 247ZM533 413T524 453L275 153Q313 123 370 123Q533 123 533 358Q533 413
524 453Z" />
<glyph unicode="&#xd9;" glyph-name="Ugrave" horiz-adv-x="732" d="M670 700T683 690T697 656V612Q697 589 684 578T649 567H634V265Q634 136 564 63T365 -10Q238 -10 168 62T98 264V567H83Q62 567 49 578T35 612V656Q35 679 48 689T83 700H273Q295 700 308 690T321
656V612Q321 589 308 578T273 567H258V266Q258 123 366 123Q474 123 474 264V567H459Q437 567 424 578T411 612V656Q411 679 424 689T459 700H649Q670 700 683 690ZM422 783T409 769T380 754Q366 754 345 766T271 817Q231 846 214 865T197 906Q197 933 220 955T272
977Q292 977 308 962T354 905Q400 843 411 825T422 799Q422 783 409 769Z" />
<glyph unicode="&#xda;" glyph-name="Uacute" horiz-adv-x="732" d="M670 700T683 690T697 656V612Q697 589 684 578T649 567H634V265Q634 136 564 63T365 -10Q238 -10 168 62T98 264V567H83Q62 567 49 578T35 612V656Q35 679 48 689T83 700H273Q295 700 308 690T321
656V612Q321 589 308 578T273 567H258V266Q258 123 366 123Q474 123 474 264V567H459Q437 567 424 578T411 612V656Q411 679 424 689T459 700H649Q670 700 683 690ZM309 807T320 825T378 905Q408 948 423 962T459 977Q488 977 511 955T535 906Q535 885 518 866T461
817Q407 778 386 766T352 754Q337 754 323 768T309 799Q309 807 320 825Z" />
<glyph unicode="&#xdb;" glyph-name="Ucircumflex" horiz-adv-x="732" d="M670 700T683 690T697 656V612Q697 589 684 578T649 567H634V265Q634 136 564 63T365 -10Q238 -10 168 62T98 264V567H83Q62 567 49 578T35 612V656Q35 679 48 689T83 700H273Q295 700
308 690T321 656V612Q321 589 308 578T273 567H258V266Q258 123 366 123Q474 123 474 264V567H459Q437 567 424 578T411 612V656Q411 679 424 689T459 700H649Q670 700 683 690ZM509 843T520 825T531 799Q531 783 518 769T489 754Q475 754 466 758T442 774L367
834L291 774Q276 763 267 759T244 754Q229 754 215 768T201 799Q201 807 212 825T270 905Q300 948 315 962T351 977H381Q401 977 416 963T463 905Q509 843 520 825Z" />
<glyph unicode="&#xdc;" glyph-name="Udieresis" horiz-adv-x="732" d="M670 700T683 690T697 656V612Q697 589 684 578T649 567H634V265Q634 136 564 63T365 -10Q238 -10 168 62T98 264V567H83Q62 567 49 578T35 612V656Q35 679 48 689T83 700H273Q295 700 308
690T321 656V612Q321 589 308 578T273 567H258V266Q258 123 366 123Q474 123 474 264V567H459Q437 567 424 578T411 612V656Q411 679 424 689T459 700H649Q670 700 683 690ZM223 774T200 796T177 854Q177 890 200 912T258 934Q295 934 319 912T343 854Q343 818
319 796T258 774Q223 774 200 796ZM436 774T412 796T388 854Q388 890 412 912T473 934Q509 934 532 912T555 854Q555 818 532 796T473 774Q436 774 412 796Z" />
<glyph unicode="&#xdd;" glyph-name="Yacute" horiz-adv-x="706" d="M650 700T663 690T676 656V612Q676 589 663 578T629 567H613L433 263V133H448Q470 133 483 122T496 88V44Q496 21 483 11T448 0H258Q237 0 224 10T210 44V88Q210 111 223 122T258 133H273V263L93
567H78Q56 567 43 578T30 612V656Q30 679 43 689T78 700H288Q310 700 323 690T336 656V612Q336 589 323 578T288 567H273L368 402L463 567H448Q426 567 413 578T400 612V656Q400 679 413 689T448 700H629Q650 700 663 690ZM296 807T307 825T365 905Q395 948 410
962T446 977Q475 977 498 955T522 906Q522 885 505 866T448 817Q394 778 373 766T339 754Q324 754 310 768T296 799Q296 807 307 825Z" />
<glyph unicode="&#xde;" glyph-name="Thorn" horiz-adv-x="655" d="M484 623T550 570T616 412Q616 343 582 291T485 211T341 182H274V133H289Q310 133 323 122T336 88V44Q336 21 323 11T289 0H99Q77 0 64 10T51 44V88Q51 111 64 122T99 133H114V567H99Q77 567
64 578T51 612V656Q51 679 64 689T99 700H215Q240 700 257 683T274 641V623H355Q484 623 550 570ZM396 315T424 338T452 409Q452 450 427 470T349 490H274V315H336Q396 315 424 338Z" />
<glyph unicode="&#xdf;" glyph-name="germandbls" horiz-adv-x="659" d="M497 399T505 389T534 361Q577 322 602 283T628 184Q628 98 575 44T423 -10Q358 -10 318 19T277 98Q277 133 300 154T360 176Q387 176 408 161T438 122Q467 133 467 177Q467 212 449 238T395
298Q365 327 351 346T336 391Q336 410 343 427T365 470Q381 496 389 516T397 557Q397 587 379 603T326 620Q284 620 266 595T247 511V50Q247 28 233 14T197 0H74Q52 0 39 10T26 44V88Q26 111 39 122T74 133H89V494Q89 617 151 683T326 750Q394 750 447 726T529
659T558 561Q558 524 546 498T515 444Q508 434 503 425T497 408Q497 399 505 389Z" />
<glyph unicode="&#xe0;" glyph-name="agrave" horiz-adv-x="574" d="M525 133T538 122T552 88V44Q552 21 539 11T504 0H380Q359 0 345 14T331 50V93Q311 47 272 19T190 -10Q122 -10 80 31T38 139Q38 217 87 253T240 289Q280 289 331 281V315Q331 350 311 370T257
390Q238 390 224 383Q219 354 197 336T143 317Q106 317 83 338T60 394Q60 448 114 479T255 510Q371 510 430 453T489 290V133H504Q525 133 538 122ZM275 103T300 132T330 204Q294 208 264 208Q227 208 212 195T196 149Q196 129 209 116T241 103Q275 103 300 132ZM327
583T314 569T285 554Q271 554 250 566T176 617Q136 646 119 665T102 706Q102 733 125 755T177 777Q197 777 213 762T259 705Q305 643 316 625T327 599Q327 583 314 569Z" />
<glyph unicode="&#xe1;" glyph-name="aacute" horiz-adv-x="574" d="M525 133T538 122T552 88V44Q552 21 539 11T504 0H380Q359 0 345 14T331 50V93Q311 47 272 19T190 -10Q122 -10 80 31T38 139Q38 217 87 253T240 289Q280 289 331 281V315Q331 350 311 370T257
390Q238 390 224 383Q219 354 197 336T143 317Q106 317 83 338T60 394Q60 448 114 479T255 510Q371 510 430 453T489 290V133H504Q525 133 538 122ZM275 103T300 132T330 204Q294 208 264 208Q227 208 212 195T196 149Q196 129 209 116T241 103Q275 103 300 132ZM214
607T225 625T283 705Q313 748 328 762T364 777Q393 777 416 755T440 706Q440 685 423 666T366 617Q312 578 291 566T257 554Q242 554 228 568T214 599Q214 607 225 625Z" />
<glyph unicode="&#xe2;" glyph-name="acircumflex" horiz-adv-x="574" d="M525 133T538 122T552 88V44Q552 21 539 11T504 0H380Q359 0 345 14T331 50V93Q311 47 272 19T190 -10Q122 -10 80 31T38 139Q38 217 87 253T240 289Q280 289 331 281V315Q331 350 311
370T257 390Q238 390 224 383Q219 354 197 336T143 317Q106 317 83 338T60 394Q60 448 114 479T255 510Q371 510 430 453T489 290V133H504Q525 133 538 122ZM275 103T300 132T330 204Q294 208 264 208Q227 208 212 195T196 149Q196 129 209 116T241 103Q275 103
300 132ZM414 643T425 625T436 599Q436 583 423 569T394 554Q380 554 371 558T347 574L272 634L196 574Q181 563 172 559T149 554Q134 554 120 568T106 599Q106 607 117 625T175 705Q205 748 220 762T256 777H286Q306 777 321 763T368 705Q414 643 425 625Z" />
<glyph unicode="&#xe3;" glyph-name="atilde" horiz-adv-x="574" d="M525 133T538 122T552 88V44Q552 21 539 11T504 0H380Q359 0 345 14T331 50V93Q311 47 272 19T190 -10Q122 -10 80 31T38 139Q38 217 87 253T240 289Q280 289 331 281V315Q331 350 311 370T257
390Q238 390 224 383Q219 354 197 336T143 317Q106 317 83 338T60 394Q60 448 114 479T255 510Q371 510 430 453T489 290V133H504Q525 133 538 122ZM275 103T300 132T330 204Q294 208 264 208Q227 208 212 195T196 149Q196 129 209 116T241 103Q275 103 300 132ZM296
559T280 568T242 600Q231 611 225 615T212 619Q206 619 201 615T185 600Q168 582 159 576T134 569Q118 569 105 583T91 614Q91 622 95 632T111 661Q135 700 159 720T219 740Q245 740 261 731T299 700Q310 688 315 685T328 681Q335 681 340 685T355 699Q371 717
381 723T407 730Q422 730 435 716T449 685Q449 670 430 639Q406 600 381 580T321 559Q296 559 280 568Z" />
<glyph unicode="&#xe4;" glyph-name="adieresis" horiz-adv-x="574" d="M525 133T538 122T552 88V44Q552 21 539 11T504 0H380Q359 0 345 14T331 50V93Q311 47 272 19T190 -10Q122 -10 80 31T38 139Q38 217 87 253T240 289Q280 289 331 281V315Q331 350 311 370T257
390Q238 390 224 383Q219 354 197 336T143 317Q106 317 83 338T60 394Q60 448 114 479T255 510Q371 510 430 453T489 290V133H504Q525 133 538 122ZM275 103T300 132T330 204Q294 208 264 208Q227 208 212 195T196 149Q196 129 209 116T241 103Q275 103 300 132ZM128
574T105 596T82 654Q82 690 105 712T163 734Q200 734 224 712T248 654Q248 618 224 596T163 574Q128 574 105 596ZM341 574T317 596T293 654Q293 690 317 712T378 734Q414 734 437 712T460 654Q460 618 437 596T378 574Q341 574 317 596Z" />
<glyph unicode="&#xe5;" glyph-name="aring" horiz-adv-x="574" d="M525 133T538 122T552 88V44Q552 21 539 11T504 0H380Q359 0 345 14T331 50V93Q311 47 272 19T190 -10Q122 -10 80 31T38 139Q38 217 87 253T240 289Q280 289 331 281V315Q331 350 311 370T257
390Q238 390 224 383Q219 354 197 336T143 317Q106 317 83 338T60 394Q60 448 114 479T255 510Q371 510 430 453T489 290V133H504Q525 133 538 122ZM275 103T300 132T330 204Q294 208 264 208Q227 208 212 195T196 149Q196 129 209 116T241 103Q275 103 300 132ZM217
549T180 585T143 676Q143 729 180 765T271 802Q325 802 362 766T400 676Q400 622 363 586T271 549Q217 549 180 585ZM290 636T300 647T311 676Q311 694 301 704T271 715Q253 715 242 705T231 676Q231 658 242 647T271 636Q290 636 300 647Z" />
<glyph unicode="&#xe6;" glyph-name="ae" horiz-adv-x="845" d="M804 255T801 216H495Q503 171 530 146T599 120Q626 120 642 127T677 152Q700 173 724 173Q749 173 766 160T784 120Q784 91 766 68Q740 34 696 12T591 -10Q520 -10 466 15T379 88Q346 40 302 15T207
-10Q129 -10 84 30T38 139Q38 217 87 254T240 291Q282 291 331 282V316Q331 352 314 371T264 390Q239 390 225 384Q221 352 198 332T143 312Q106 312 83 333T60 390Q60 445 116 477T266 510Q364 510 421 461Q485 510 580 510Q641 510 692 484T773 405T804 275Q804
255 801 216ZM511 392T496 311H642Q643 317 643 328Q643 359 625 375T576 392Q511 392 496 311ZM275 103T300 132T330 203Q298 208 264 208Q227 208 212 195T196 149Q196 129 208 116T241 103Q275 103 300 132Z" />
<glyph unicode="&#xe7;" glyph-name="ccedilla" horiz-adv-x="539" d="M456 173T473 160T491 120Q491 91 473 68Q448 34 404 12T300 -10L283 -46Q292 -44 313 -44Q363 -44 392 -72T421 -148Q421 -200 385 -231T288 -263H210Q188 -263 174 -249T160 -214V-209Q160
-188 174 -174T210 -159H271Q297 -159 297 -140Q297 -122 271 -122H202Q169 -122 169 -95Q169 -84 172 -73T188 -36L207 3Q126 28 82 93T38 252Q38 331 70 389T160 479T292 510Q351 510 399 489T474 431T502 349Q502 309 476 285T408 260Q365 260 339 283T313 345Q313
359 316 372Q302 380 283 380Q241 380 220 348T199 254Q199 193 227 157T307 120Q334 120 350 127T385 152Q408 173 431 173Q456 173 473 160Z" />
<glyph unicode="&#xe8;" glyph-name="egrave" horiz-adv-x="552" d="M512 242T508 216H202Q210 171 237 146T307 120Q334 120 350 127T385 152Q408 173 431 173Q456 173 473 160T491 120Q491 91 473 68Q448 34 404 12T299 -10Q218 -10 159 22T69 114T38 252Q38
332 69 390T157 479T288 510Q349 510 400 484T481 405T512 275Q512 242 508 216ZM218 392T203 311H350Q351 317 351 328Q351 359 333 375T283 392Q218 392 203 311ZM332 583T319 569T290 554Q276 554 255 566T181 617Q141 646 124 665T107 706Q107 733 130 755T182
777Q202 777 218 762T264 705Q310 643 321 625T332 599Q332 583 319 569Z" />
<glyph unicode="&#xe9;" glyph-name="eacute" horiz-adv-x="552" d="M512 242T508 216H202Q210 171 237 146T307 120Q334 120 350 127T385 152Q408 173 431 173Q456 173 473 160T491 120Q491 91 473 68Q448 34 404 12T299 -10Q218 -10 159 22T69 114T38 252Q38
332 69 390T157 479T288 510Q349 510 400 484T481 405T512 275Q512 242 508 216ZM218 392T203 311H350Q351 317 351 328Q351 359 333 375T283 392Q218 392 203 311ZM219 607T230 625T288 705Q318 748 333 762T369 777Q398 777 421 755T445 706Q445 685 428 666T371
617Q317 578 296 566T262 554Q247 554 233 568T219 599Q219 607 230 625Z" />
<glyph unicode="&#xea;" glyph-name="ecircumflex" horiz-adv-x="552" d="M512 242T508 216H202Q210 171 237 146T307 120Q334 120 350 127T385 152Q408 173 431 173Q456 173 473 160T491 120Q491 91 473 68Q448 34 404 12T299 -10Q218 -10 159 22T69 114T38 252Q38
332 69 390T157 479T288 510Q349 510 400 484T481 405T512 275Q512 242 508 216ZM218 392T203 311H350Q351 317 351 328Q351 359 333 375T283 392Q218 392 203 311ZM419 643T430 625T441 599Q441 583 428 569T399 554Q385 554 376 558T352 574L277 634L201 574Q186
563 177 559T154 554Q139 554 125 568T111 599Q111 607 122 625T180 705Q210 748 225 762T261 777H291Q311 777 326 763T373 705Q419 643 430 625Z" />
<glyph unicode="&#xeb;" glyph-name="edieresis" horiz-adv-x="552" d="M512 242T508 216H202Q210 171 237 146T307 120Q334 120 350 127T385 152Q408 173 431 173Q456 173 473 160T491 120Q491 91 473 68Q448 34 404 12T299 -10Q218 -10 159 22T69 114T38 252Q38
332 69 390T157 479T288 510Q349 510 400 484T481 405T512 275Q512 242 508 216ZM218 392T203 311H350Q351 317 351 328Q351 359 333 375T283 392Q218 392 203 311ZM133 574T110 596T87 654Q87 690 110 712T168 734Q205 734 229 712T253 654Q253 618 229 596T168
574Q133 574 110 596ZM346 574T322 596T298 654Q298 690 322 712T383 734Q419 734 442 712T465 654Q465 618 442 596T383 574Q346 574 322 596Z" />
<glyph unicode="&#xec;" glyph-name="igrave" horiz-adv-x="351" d="M69 0T56 10T43 44V88Q43 111 56 122T90 133H105V367H90Q69 367 56 378T43 412V456Q43 479 56 489T90 500H214Q235 500 249 486T263 450V133H278Q300 133 313 122T326 88V44Q326 21 313 11T278
0H90Q69 0 56 10ZM216 583T203 569T174 554Q160 554 139 566T65 617Q25 646 8 665T-9 706Q-9 733 14 755T66 777Q86 777 102 762T148 705Q194 643 205 625T216 599Q216 583 203 569Z" />
<glyph unicode="&#xed;" glyph-name="iacute" horiz-adv-x="351" d="M69 0T56 10T43 44V88Q43 111 56 122T90 133H105V367H90Q69 367 56 378T43 412V456Q43 479 56 489T90 500H214Q235 500 249 486T263 450V133H278Q300 133 313 122T326 88V44Q326 21 313 11T278
0H90Q69 0 56 10ZM102 607T113 625T171 705Q201 748 216 762T252 777Q281 777 304 755T328 706Q328 685 311 666T254 617Q200 578 179 566T145 554Q130 554 116 568T102 599Q102 607 113 625Z" />
<glyph unicode="&#xee;" glyph-name="icircumflex" horiz-adv-x="351" d="M69 0T56 10T43 44V88Q43 111 56 122T90 133H105V367H90Q69 367 56 378T43 412V456Q43 479 56 489T90 500H214Q235 500 249 486T263 450V133H278Q300 133 313 122T326 88V44Q326 21 313
11T278 0H90Q69 0 56 10ZM302 643T313 625T324 599Q324 583 311 569T282 554Q268 554 259 558T235 574L160 634L84 574Q69 563 60 559T37 554Q22 554 8 568T-6 599Q-6 607 5 625T63 705Q93 748 108 762T144 777H174Q194 777 209 763T256 705Q302 643 313 625Z"
/>
<glyph unicode="&#xef;" glyph-name="idieresis" horiz-adv-x="351" d="M69 0T56 10T43 44V88Q43 111 56 122T90 133H105V367H90Q69 367 56 378T43 412V456Q43 479 56 489T90 500H214Q235 500 249 486T263 450V133H278Q300 133 313 122T326 88V44Q326 21 313 11T278
0H90Q69 0 56 10ZM16 574T-7 596T-30 654Q-30 690 -7 712T51 734Q88 734 112 712T136 654Q136 618 112 596T51 574Q16 574 -7 596ZM229 574T205 596T181 654Q181 690 205 712T266 734Q302 734 325 712T348 654Q348 618 325 596T266 574Q229 574 205 596Z" />
<glyph unicode="&#xf0;" glyph-name="eth" horiz-adv-x="589" d="M469 522T507 438T546 269Q546 184 515 121T424 24T286 -10Q170 -10 104 56T37 236Q37 309 64 364T140 449T254 480Q307 480 343 460Q319 497 269 549L177 497Q172 493 163 493Q147 493 133 513T119
547Q119 562 135 572L203 610Q194 619 170 639Q154 653 149 661T144 684Q144 708 166 729T213 750Q227 750 236 747T254 736Q289 707 322 677L403 722Q410 726 417 726Q432 726 446 707T460 673Q460 657 445 647L385 613Q469 522 507 438ZM332 120T355 150T378
235Q378 290 355 320T288 350Q244 350 221 320T198 235Q198 180 221 150T288 120Q332 120 355 150Z" />
<glyph unicode="&#xf1;" glyph-name="ntilde" horiz-adv-x="665" d="M616 133T629 122T642 88V44Q642 21 629 11T595 0H415Q393 0 380 10T367 44V88Q367 111 380 122T415 133H422V264Q422 329 409 354T360 380Q321 380 292 346T263 265V133H270Q291 133 304 122T317
88V44Q317 21 304 11T270 0H90Q69 0 56 10T43 44V88Q43 111 56 122T90 133H105V367H90Q69 367 56 378T43 412V456Q43 479 56 489T90 500H214Q235 500 249 486T263 450V405Q282 451 322 480T407 510Q489 510 534 458T580 312V133H595Q616 133 629 122ZM358 559T342
568T304 600Q293 611 287 615T274 619Q268 619 263 615T247 600Q230 582 221 576T196 569Q180 569 167 583T153 614Q153 622 157 632T173 661Q197 700 221 720T281 740Q307 740 323 731T361 700Q372 688 377 685T390 681Q397 681 402 685T417 699Q433 717 443 723T469
730Q484 730 497 716T511 685Q511 670 492 639Q468 600 443 580T383 559Q358 559 342 568Z" />
<glyph unicode="&#xf2;" glyph-name="ograve" horiz-adv-x="587" d="M170 -10T105 56T39 244Q39 369 108 439T299 510Q418 510 483 444T548 257Q548 132 479 61T289 -10Q170 -10 105 56ZM340 120T363 152T387 255Q387 319 365 349T297 380Q250 380 225 346T200
246Q200 184 223 152T290 120Q340 120 363 152ZM350 583T337 569T308 554Q294 554 273 566T199 617Q159 646 142 665T125 706Q125 733 148 755T200 777Q220 777 236 762T282 705Q328 643 339 625T350 599Q350 583 337 569Z" />
<glyph unicode="&#xf3;" glyph-name="oacute" horiz-adv-x="587" d="M170 -10T105 56T39 244Q39 369 108 439T299 510Q418 510 483 444T548 257Q548 132 479 61T289 -10Q170 -10 105 56ZM340 120T363 152T387 255Q387 319 365 349T297 380Q250 380 225 346T200
246Q200 184 223 152T290 120Q340 120 363 152ZM237 607T248 625T306 705Q336 748 351 762T387 777Q416 777 439 755T463 706Q463 685 446 666T389 617Q335 578 314 566T280 554Q265 554 251 568T237 599Q237 607 248 625Z" />
<glyph unicode="&#xf4;" glyph-name="ocircumflex" horiz-adv-x="587" d="M170 -10T105 56T39 244Q39 369 108 439T299 510Q418 510 483 444T548 257Q548 132 479 61T289 -10Q170 -10 105 56ZM340 120T363 152T387 255Q387 319 365 349T297 380Q250 380 225 346T200
246Q200 184 223 152T290 120Q340 120 363 152ZM436 643T447 625T458 599Q458 583 445 569T416 554Q402 554 393 558T369 574L294 634L218 574Q203 563 194 559T171 554Q156 554 142 568T128 599Q128 607 139 625T197 705Q227 748 242 762T278 777H308Q328 777
343 763T390 705Q436 643 447 625Z" />
<glyph unicode="&#xf5;" glyph-name="otilde" horiz-adv-x="587" d="M170 -10T105 56T39 244Q39 369 108 439T299 510Q418 510 483 444T548 257Q548 132 479 61T289 -10Q170 -10 105 56ZM340 120T363 152T387 255Q387 319 365 349T297 380Q250 380 225 346T200
246Q200 184 223 152T290 120Q340 120 363 152ZM319 559T303 568T265 600Q254 611 248 615T235 619Q229 619 224 615T208 600Q191 582 182 576T157 569Q141 569 128 583T114 614Q114 622 118 632T134 661Q158 700 182 720T242 740Q268 740 284 731T322 700Q333
688 338 685T351 681Q358 681 363 685T378 699Q394 717 404 723T430 730Q445 730 458 716T472 685Q472 670 453 639Q429 600 404 580T344 559Q319 559 303 568Z" />
<glyph unicode="&#xf6;" glyph-name="odieresis" horiz-adv-x="587" d="M170 -10T105 56T39 244Q39 369 108 439T299 510Q418 510 483 444T548 257Q548 132 479 61T289 -10Q170 -10 105 56ZM340 120T363 152T387 255Q387 319 365 349T297 380Q250 380 225 346T200
246Q200 184 223 152T290 120Q340 120 363 152ZM151 574T128 596T105 654Q105 690 128 712T186 734Q223 734 247 712T271 654Q271 618 247 596T186 574Q151 574 128 596ZM364 574T340 596T316 654Q316 690 340 712T401 734Q437 734 460 712T483 654Q483 618 460
596T401 574Q364 574 340 596Z" />
<glyph unicode="&#xf7;" glyph-name="divide" horiz-adv-x="588" d="M254 433T229 456T204 517Q204 555 229 579T294 604Q333 604 358 580T384 519Q384 481 358 457T292 433Q254 433 229 456ZM81 254T67 268T53 303V337Q53 358 67 372T103 386H485Q507 386 521
372T535 337V303Q535 282 521 268T485 254H103Q81 254 67 268ZM254 36T229 59T204 120Q204 159 229 183T294 207Q333 207 358 184T384 122Q384 84 358 60T292 36Q254 36 229 59Z" />
<glyph unicode="&#xf8;" glyph-name="oslash" horiz-adv-x="587" d="M507 414Q548 352 548 257Q548 132 479 61T289 -10Q211 -10 152 21Q129 0 99 0H73Q58 0 49 7T39 26Q39 41 50 52L81 86Q39 147 39 244Q39 369 108 439T299 510Q378 510 435 479Q458 500 488
500H515Q530 500 539 494T548 474Q548 459 537 448L507 414ZM200 228T201 220L338 372Q319 380 297 380Q250 380 225 346T200 246Q200 228 201 220ZM387 272T386 280L250 128Q269 120 290 120Q340 120 363 152T387 255Q387 272 386 280Z" />
<glyph unicode="&#xf9;" glyph-name="ugrave" horiz-adv-x="642" d="M591 133T604 122T617 88V44Q617 21 604 11T569 0H446Q424 0 410 14T396 50V95Q376 48 338 19T256 -10Q175 -10 131 42T86 188V367H70Q49 367 36 378T23 412V456Q23 479 36 489T70 500H194Q215
500 229 486T244 450V236Q244 170 256 145T302 120Q341 120 368 154T396 235V367H381Q359 367 346 378T333 412V456Q333 479 346 489T381 500H505Q526 500 540 486T554 450V133H569Q591 133 604 122ZM376 583T363 569T334 554Q320 554 299 566T225 617Q185 646
168 665T151 706Q151 733 174 755T226 777Q246 777 262 762T308 705Q354 643 365 625T376 599Q376 583 363 569Z" />
<glyph unicode="&#xfa;" glyph-name="uacute" horiz-adv-x="642" d="M591 133T604 122T617 88V44Q617 21 604 11T569 0H446Q424 0 410 14T396 50V95Q376 48 338 19T256 -10Q175 -10 131 42T86 188V367H70Q49 367 36 378T23 412V456Q23 479 36 489T70 500H194Q215
500 229 486T244 450V236Q244 170 256 145T302 120Q341 120 368 154T396 235V367H381Q359 367 346 378T333 412V456Q333 479 346 489T381 500H505Q526 500 540 486T554 450V133H569Q591 133 604 122ZM263 607T274 625T332 705Q362 748 377 762T413 777Q442 777
465 755T489 706Q489 685 472 666T415 617Q361 578 340 566T306 554Q291 554 277 568T263 599Q263 607 274 625Z" />
<glyph unicode="&#xfb;" glyph-name="ucircumflex" horiz-adv-x="642" d="M591 133T604 122T617 88V44Q617 21 604 11T569 0H446Q424 0 410 14T396 50V95Q376 48 338 19T256 -10Q175 -10 131 42T86 188V367H70Q49 367 36 378T23 412V456Q23 479 36 489T70 500H194Q215
500 229 486T244 450V236Q244 170 256 145T302 120Q341 120 368 154T396 235V367H381Q359 367 346 378T333 412V456Q333 479 346 489T381 500H505Q526 500 540 486T554 450V133H569Q591 133 604 122ZM463 643T474 625T485 599Q485 583 472 569T443 554Q429 554
420 558T396 574L321 634L245 574Q230 563 221 559T198 554Q183 554 169 568T155 599Q155 607 166 625T224 705Q254 748 269 762T305 777H335Q355 777 370 763T417 705Q463 643 474 625Z" />
<glyph unicode="&#xfc;" glyph-name="udieresis" horiz-adv-x="642" d="M591 133T604 122T617 88V44Q617 21 604 11T569 0H446Q424 0 410 14T396 50V95Q376 48 338 19T256 -10Q175 -10 131 42T86 188V367H70Q49 367 36 378T23 412V456Q23 479 36 489T70 500H194Q215
500 229 486T244 450V236Q244 170 256 145T302 120Q341 120 368 154T396 235V367H381Q359 367 346 378T333 412V456Q333 479 346 489T381 500H505Q526 500 540 486T554 450V133H569Q591 133 604 122ZM177 574T154 596T131 654Q131 690 154 712T212 734Q249 734
273 712T297 654Q297 618 273 596T212 574Q177 574 154 596ZM390 574T366 596T342 654Q342 690 366 712T427 734Q463 734 486 712T509 654Q509 618 486 596T427 574Q390 574 366 596Z" />
<glyph unicode="&#xfd;" glyph-name="yacute" horiz-adv-x="615" d="M572 500T585 490T598 456V412Q598 389 585 378T550 367H535L351 -33Q315 -113 284 -157T219 -221T142 -240Q91 -240 58 -213T24 -144Q24 -110 47 -89T106 -67Q128 -67 146 -76T175 -102Q190
-82 215 -29L239 23L80 367H65Q43 367 30 378T17 412V456Q17 479 30 489T65 500H235Q256 500 269 490T282 456V412Q282 373 247 368L321 196L394 367Q348 369 348 412V456Q348 479 361 489T396 500H550Q572 500 585 490ZM251 607T262 625T320 705Q350 748 365 762T401
777Q430 777 453 755T477 706Q477 685 460 666T403 617Q349 578 328 566T294 554Q279 554 265 568T251 599Q251 607 262 625Z" />
<glyph unicode="&#xfe;" glyph-name="thorn" horiz-adv-x="617" d="M471 510T523 444T575 262Q575 132 516 61T350 -10Q277 -10 229 41V-97H245Q266 -97 279 -108T292 -142V-186Q292 -209 279 -219T245 -230H56Q35 -230 22 -220T9 -186V-142Q9 -119 22 -108T56
-97H71V607H56Q35 607 22 618T9 652V696Q9 719 22 729T56 740H180Q201 740 215 726T229 690V410Q248 455 289 482T382 510Q471 510 523 444ZM367 120T390 156T414 257Q414 315 392 347T330 380Q287 380 258 341T229 245V158Q247 140 272 130T324 120Q367 120 390
156Z" />
<glyph unicode="&#xff;" glyph-name="ydieresis" horiz-adv-x="615" d="M572 500T585 490T598 456V412Q598 389 585 378T550 367H535L351 -33Q315 -113 284 -157T219 -221T142 -240Q91 -240 58 -213T24 -144Q24 -110 47 -89T106 -67Q128 -67 146 -76T175 -102Q190
-82 215 -29L239 23L80 367H65Q43 367 30 378T17 412V456Q17 479 30 489T65 500H235Q256 500 269 490T282 456V412Q282 373 247 368L321 196L394 367Q348 369 348 412V456Q348 479 361 489T396 500H550Q572 500 585 490ZM165 574T142 596T119 654Q119 690 142 712T200
734Q237 734 261 712T285 654Q285 618 261 596T200 574Q165 574 142 596ZM378 574T354 596T330 654Q330 690 354 712T415 734Q451 734 474 712T497 654Q497 618 474 596T415 574Q378 574 354 596Z" />
<glyph unicode="&#x2013;" glyph-name="endash" horiz-adv-x="600" d="M93 254T79 268T65 303V337Q65 358 79 372T115 386H485Q507 386 521 372T535 337V303Q535 282 521 268T485 254H115Q93 254 79 268Z" />
<glyph unicode="&#x2014;" glyph-name="emdash" horiz-adv-x="750" d="M93 254T79 268T65 303V337Q65 358 79 372T115 386H635Q657 386 671 372T685 337V303Q685 282 671 268T635 254H115Q93 254 79 268Z" />
<glyph unicode="&#x2018;" glyph-name="quoteleft" horiz-adv-x="323" d="M237 710T251 697T266 667Q266 653 256 639Q198 556 198 525Q198 516 201 511T214 501Q248 480 263 459T279 405Q279 359 250 331T173 303Q120 303 91 335T62 420Q62 481 88 539T170 676Q185
696 196 703T221 710Q237 710 251 697Z" />
<glyph unicode="&#x2019;" glyph-name="quoteright" horiz-adv-x="323" d="M87 303T73 317T58 347Q58 361 68 374Q125 455 125 489Q125 498 122 502T110 513Q76 533 61 554T45 608Q45 655 74 682T150 710Q204 710 233 678T262 594Q262 533 236 474T153 338Q138
317 127 310T103 303Q87 303 73 317Z" />
<glyph unicode="&#x201a;" glyph-name="quotesinglbase" horiz-adv-x="323" d="M342 -209T328 -196T313 -166Q313 -152 323 -138Q381 -55 381 -24Q381 -15 378 -10T365 0Q330 21 315 42T300 96Q300 142 330 169T406 197Q459 197 488 165T517 81Q517 20 491 -39T409
-175Q394 -195 383 -202T358 -209Q342 -209 328 -196Z" />
<glyph unicode="&#x201c;" glyph-name="quotedblleft" horiz-adv-x="594" d="M498 710T512 697T527 667Q527 653 517 639Q459 556 459 525Q459 516 462 511T475 501Q509 480 524 459T540 405Q540 359 511 331T434 303Q381 303 352 335T323 420Q323 481 349 539T431
676Q446 696 457 703T482 710Q498 710 512 697ZM483 710T497 697T512 667Q512 653 502 639Q444 556 444 525Q444 516 447 511T460 501Q494 480 509 459T525 405Q525 359 496 331T419 303Q366 303 337 335T308 420Q308 481 334 539T416 676Q431 696 442 703T467
710Q483 710 497 697Z" />
<glyph unicode="&#x201d;" glyph-name="quotedblright" horiz-adv-x="594" d="M358 303T344 317T329 347Q329 361 339 374Q396 455 396 489Q396 498 393 502T381 513Q347 533 332 554T316 608Q316 655 345 682T421 710Q475 710 504 678T533 594Q533 533 507 474T424
338Q409 317 398 310T374 303Q358 303 344 317ZM87 303T73 317T58 347Q58 361 68 374Q125 455 125 489Q125 498 122 502T110 513Q76 533 61 554T45 608Q45 655 74 682T150 710Q204 710 233 678T262 594Q262 533 236 474T153 338Q138 317 127 310T103 303Q87 303
73 317Z" />
<glyph unicode="&#x201e;" glyph-name="quotedblbase" horiz-adv-x="594" d="M358 -209T344 -196T329 -166Q329 -152 339 -138Q397 -55 397 -24Q397 -15 394 -10T381 0Q346 21 331 42T316 96Q316 142 346 169T422 197Q475 197 504 165T533 81Q533 20 507 -39T425
-175Q410 -195 399 -202T374 -209Q358 -209 344 -196ZM343 -209T329 -196T314 -166Q314 -152 324 -138Q382 -55 382 -24Q382 -15 379 -10T366 0Q331 21 316 42T301 96Q301 142 331 169T407 197Q460 197 489 165T518 81Q518 20 492 -39T410 -175Q395 -195 384 -202T359
-209Q343 -209 329 -196Z" />
<glyph unicode="&#x2022;" glyph-name="bullet" horiz-adv-x="515" d="M446 371T422 414T354 482T257 507Q204 507 161 483T93 415T68 318Q68 265 93 222T161 154T257 129Q310 129 353 153T421 221T446 318Q446 371 422 414Z" />
<glyph unicode="&#x2039;" glyph-name="guilsinglleft" horiz-adv-x="386" d="M334 127Q345 112 345 98Q345 72 312 72H220Q201 72 187 80T161 105L60 225Q38 251 38 284Q38 317 60 343L161 463Q173 479 187 487T220 496H312Q345 496 345 470Q345 456 334 441L204
284L334 127Z" />
<glyph unicode="&#x203a;" glyph-name="guilsinglright" horiz-adv-x="386" d="M348 317T348 284Q348 251 326 225L225 105Q213 89 199 81T166 72H74Q57 72 49 79T41 98Q41 112 52 127L182 284L52 441Q41 456 41 470Q41 481 49 488T74 496H166Q185 496 199 488T225
463L326 343Q348 317 348 284Z" />
</font>
</defs>
</svg>
