<?xml version="1.0" standalone="no"?>
<!DOCTYPE svg PUBLIC "-//W3C//DTD SVG 1.1//EN" "http://www.w3.org/Graphics/SVG/1.1/DTD/svg11.dtd">
<svg xmlns="http://www.w3.org/2000/svg">
<defs >
<font id="Solway" horiz-adv-x="573" ><font-face
    font-family="Solway Light"
    units-per-em="1000"
    panose-1="0 0 4 0 0 0 0 0 0 0"
    ascent="950"
    descent="-250"
    alphabetic="0" />
<glyph unicode=" " glyph-name="space" horiz-adv-x="270" />
<glyph unicode="!" glyph-name="exclam" horiz-adv-x="314" d="M143 197T135 206T127 228V669Q127 682 135 691T156 700H157Q170 700 178 691T186 669V228Q186 215 178 206T157 197H156Q143 197 135 206ZM135 -10T119 6T103 46Q103 70 119 86T159 102Q183 102
199 86T215 46Q215 22 199 6T159 -10Q135 -10 119 6Z" />
<glyph unicode="&quot;" glyph-name="quotedbl" horiz-adv-x="445" d="M293 439T288 442T282 456Q258 641 258 663Q258 710 303 710Q348 710 348 663Q348 641 324 456Q323 446 318 443T305 439H301Q293 439 288 442ZM132 439T127 442T121 456Q97 641 97 663Q97
710 142 710Q187 710 187 663Q187 641 163 456Q162 446 157 443T144 439H140Q132 439 127 442Z" />
<glyph unicode="#" glyph-name="numbersign" horiz-adv-x="717" d="M638 507T644 501T650 487V472Q650 464 644 458T630 452H523L491 274H594Q602 274 608 268T614 254V239Q614 231 608 225T594 219H481L446 20Q444 11 439 6T426 0H404Q388 0 388 13L390 28L424
219H246L211 20Q209 11 204 6T191 0H169Q153 0 153 13L155 28L189 219H87Q79 219 73 225T67 239V254Q67 262 73 268T87 274H199L230 452H123Q115 452 109 458T103 472V487Q103 495 109 501T123 507H240L271 680Q273 689 278 694T291 700H313Q329 700 329 687L327
672L298 507H475L506 680Q508 689 513 694T526 700H548Q564 700 564 687L562 672L533 507H630Q638 507 644 501ZM465 452H288L256 274H434L465 452Z" />
<glyph unicode="$" glyph-name="dollar" horiz-adv-x="616" d="M544 129T519 88T447 22T341 -9V-133Q341 -141 335 -147T321 -153H302Q294 -153 288 -147T282 -133V-9Q184 -1 127 46T70 167Q70 194 82 209T118 224Q136 224 148 212T160 181Q160 166 152 155T131
139Q141 95 189 70T314 45Q390 45 437 81T484 175Q484 218 470 242T419 286T303 331Q221 357 175 384T108 447T88 534Q88 580 114 618T186 680T292 709V833Q292 841 298 847T312 853H331Q339 853 345 847T351 833V709Q436 703 482 663T528 552Q528 525 516 510T480
495Q462 495 450 507T438 538Q438 552 445 563T465 580Q447 655 317 655Q241 655 195 621T148 532Q148 494 163 470T216 427T330 383Q411 357 457 330T523 266T544 178Q544 129 519 88Z" />
<glyph unicode="%" glyph-name="percent" horiz-adv-x="993" d="M219 338T176 362T107 429T82 524Q82 576 107 618T175 685T272 710Q325 710 368 686T437 619T462 524Q462 472 437 430T369 363T272 338Q219 338 176 362ZM228 0T228 10Q228 19 236 30L696 683Q702
692 707 696T721 700H753Q765 700 765 690Q765 681 757 670L297 17Q291 8 286 4T272 0H240Q228 0 228 10ZM332 393T367 428T402 524Q402 585 367 620T272 655Q212 655 177 620T142 524Q142 463 177 428T272 393Q332 393 367 428ZM668 -10T625 14T556 81T531 176Q531
228 556 270T624 337T721 362Q774 362 817 338T886 271T911 176Q911 124 886 82T818 15T721 -10Q668 -10 625 14ZM781 45T816 80T851 176Q851 237 816 272T721 307Q661 307 626 272T591 176Q591 115 626 80T721 45Q781 45 816 80Z" />
<glyph unicode="&amp;" glyph-name="ampersand" horiz-adv-x="741" d="M566 275T542 218Q522 172 512 151L620 29Q629 19 629 12Q629 0 617 0H586Q577 0 571 2T559 11L482 98Q446 45 399 18T281 -10Q225 -10 181 12T111 73T85 160Q85 219 121 265T239 370Q185
431 161 470T137 549Q137 620 188 665T324 710Q399 710 446 671T494 569Q494 536 485 511T445 454T349 377Q344 373 338 369T325 360L358 323L471 197L491 244Q520 314 544 343T606 372Q635 372 650 355T665 316Q665 289 653 274T617 259Q601 259 590 269T576 295Q566
275 542 218ZM197 518T215 491T286 403L309 419Q363 456 390 480T425 524T434 569Q434 607 404 631T324 655Q263 655 230 626T197 549Q197 518 215 491ZM338 45T375 69T442 142L315 285L277 327Q222 288 195 263T156 213T145 157Q145 108 183 77T281 45Q338 45
375 69Z" />
<glyph unicode="&apos;" glyph-name="quotesingle" horiz-adv-x="284" d="M132 439T127 442T121 456Q97 641 97 663Q97 710 142 710Q187 710 187 663Q187 641 163 456Q162 446 157 443T144 439H140Q132 439 127 442Z" />
<glyph unicode="(" glyph-name="parenleft" horiz-adv-x="402" d="M322 -260T317 -256Q195 -164 129 -31T63 255Q63 408 129 541T317 766Q322 770 329 770Q341 770 349 761T358 740Q358 732 347 722Q233 621 178 506T122 255Q122 120 177 5T347 -212Q358 -222
358 -230Q358 -242 350 -251T329 -260Q322 -260 317 -256Z" />
<glyph unicode=")" glyph-name="parenright" horiz-adv-x="402" d="M61 -260T53 -251T44 -230Q44 -222 55 -212Q169 -111 224 4T280 255Q280 390 225 505T55 722Q44 732 44 740Q44 752 52 761T73 770Q80 770 85 766Q207 674 273 541T339 255Q339 102 273 -31T85
-256Q80 -260 73 -260Q61 -260 53 -251Z" />
<glyph unicode="*" glyph-name="asterisk" horiz-adv-x="574" d="M486 614T494 606T502 584Q502 574 496 567T480 556Q425 539 314 516Q378 455 411 420T445 367Q445 356 436 348T417 339Q401 339 379 366T315 454L286 496Q248 441 249 442Q210 386 191 363T156
339Q146 339 137 347T128 367Q128 384 161 419T259 516Q148 539 93 556Q83 559 77 566T71 584Q71 595 79 604T101 614Q125 614 269 549Q257 672 257 719Q257 732 265 741T286 750Q299 750 307 741T316 719Q316 672 304 549Q452 614 472 614Q486 614 494 606Z" />
<glyph unicode="+" glyph-name="plus" horiz-adv-x="609" d="M532 360T532 333V331Q532 318 525 312T501 305H332V136Q332 119 326 112T306 105H304Q277 105 277 136V305H108Q91 305 84 311T77 331V333Q77 360 108 360H277V529Q277 560 304 560H306Q319 560 325
553T332 529V360H501Q532 360 532 333Z" />
<glyph unicode="," glyph-name="comma" horiz-adv-x="322" d="M112 -169T108 -165T103 -153Q103 -148 109 -140Q136 -107 150 -77T164 -25Q164 -17 162 -14T152 -10Q130 -10 117 5T103 46Q103 70 119 86T159 102Q187 102 203 81T220 23Q220 -21 199 -69T134 -161Q126
-169 119 -169Q112 -169 108 -165Z" />
<glyph unicode="-" glyph-name="hyphen" horiz-adv-x="582" d="M100 305T93 311T86 331V333Q86 360 117 360H465Q496 360 496 333V331Q496 318 489 312T465 305H117Q100 305 93 311Z" />
<glyph unicode="." glyph-name="period" horiz-adv-x="344" d="M228 70T212 86T172 102Q148 102 132 86T116 46Q116 22 132 6T172 -10Q196 -10 212 6T228 46Q228 70 212 86Z" />
<glyph unicode="/" glyph-name="slash" horiz-adv-x="404" d="M26 -230T26 -218Q26 -213 28 -207L317 720Q322 740 337 740H366Q378 740 378 728Q378 723 376 717L87 -210Q82 -230 67 -230H38Q26 -230 26 -218Z" />
<glyph unicode="0" glyph-name="zero" horiz-adv-x="674" d="M256 -10T197 33T106 156T74 341Q74 453 105 536T196 664T337 710Q418 710 477 667T568 544T600 359Q600 247 569 164T478 36T337 -10Q256 -10 197 33ZM436 45T488 127T540 359Q540 499 488 577T337
655Q238 655 186 573T134 341Q134 201 186 123T337 45Q436 45 488 127Z" />
<glyph unicode="1" glyph-name="one" horiz-adv-x="338" d="M281 55T281 36V19Q281 0 255 0H134Q108 0 108 19V36Q108 55 134 55H165V517H66Q58 517 52 523T46 537V552Q46 560 52 566T66 572H136Q149 572 157 581T165 603V669Q165 682 173 691T194 700H195Q208
700 216 691T224 669V55H255Q281 55 281 36Z" />
<glyph unicode="2" glyph-name="two" horiz-adv-x="601" d="M540 112T540 86V31Q540 18 531 9T509 0H96Q67 0 67 31V54Q67 106 85 144T146 220T271 311Q352 363 390 394T443 452T457 519Q457 582 415 618T298 655Q229 655 187 630T136 558Q148 553 155 542T163
516Q163 498 151 486T121 473Q98 473 86 488T73 530Q73 583 100 624T178 687T293 710Q358 710 409 686T488 618T517 521Q517 472 499 436T435 360T300 263Q222 213 188 185T141 129T126 55H485V86Q485 112 504 112H521Q540 112 540 86Z" />
<glyph unicode="3" glyph-name="three" horiz-adv-x="622" d="M495 350T523 307T552 200Q552 141 524 94T440 18T306 -10Q241 -10 186 12T97 74T64 170Q64 197 76 212T112 227Q130 227 142 215T154 184Q154 170 147 159T127 142Q139 94 189 70T311 45Q397 45 444
88T492 202Q492 340 306 340H246Q238 340 232 346T226 360V375Q226 383 232 389T246 395H287Q379 395 423 421T468 517Q468 571 429 613T298 655Q234 655 192 629T138 558Q150 553 157 542T165 516Q165 498 153 486T123 473Q100 473 88 488T75 530Q75 580 103 621T183
686T300 710Q379 710 430 683T504 612T528 523Q528 472 507 435T441 372Q495 350 523 307Z" />
<glyph unicode="4" glyph-name="four" horiz-adv-x="621" d="M564 250T570 244T576 230V215Q576 207 570 201T556 195H454V55H485Q511 55 511 36V19Q511 0 485 0H364Q338 0 338 19V36Q338 55 364 55H395V195H67Q59 195 53 201T47 215V232Q47 243 49 249T57 263L385
686Q396 700 413 700H425Q454 700 454 669V250H556Q564 250 570 244ZM395 250V609L116 250H395Z" />
<glyph unicode="5" glyph-name="five" horiz-adv-x="609" d="M384 457T436 428T516 347T545 226Q545 157 515 104T429 20T301 -10Q234 -10 181 13T96 78T65 170Q65 197 77 212T113 227Q131 227 143 215T155 184Q155 170 148 159T128 143Q140 98 186 72T300 45Q386
45 435 93T485 227Q485 309 438 355T305 402Q255 402 222 388T153 346Q141 337 134 333T120 328Q111 328 108 332T104 345Q104 358 123 674Q124 685 132 692T152 700H495Q503 700 509 694T515 680V665Q515 657 509 651T495 645H177L165 412Q233 457 317 457Q384
457 436 428Z" />
<glyph unicode="6" glyph-name="six" horiz-adv-x="635" d="M394 458T448 428T532 345T563 224Q563 156 534 103T451 20T329 -10Q206 -10 142 65T77 285Q77 496 146 603T352 710Q409 710 454 693T524 643T550 571Q550 544 538 529T502 514Q484 514 472 526T460
557Q460 571 467 582T485 598Q473 625 437 640T347 655Q281 655 239 625T173 531T141 359Q169 406 217 432T325 458Q394 458 448 428ZM409 45T456 93T503 224Q503 306 455 354T324 403Q273 403 230 382T162 324T137 244Q137 151 188 98T328 45Q409 45 456 93Z"
/>
<glyph unicode="7" glyph-name="seven" horiz-adv-x="564" d="M517 700T517 669V666Q517 655 515 648T508 629L212 18Q203 0 187 0H172Q152 0 152 15Q152 22 158 35L454 645H103V614Q103 588 84 588H67Q48 588 48 614V669Q48 682 57 691T79 700H488Q517 700 517 669Z" />
<glyph unicode="8" glyph-name="eight" horiz-adv-x="634" d="M506 345T534 299T563 190Q563 101 501 46T317 -10Q196 -10 134 45T71 190Q71 252 99 298T182 370Q139 392 117 430T95 519Q95 568 117 611T190 682T317 710Q394 710 444 683T516 612T539 519Q539
469 517 431T452 370Q506 345 534 299ZM228 655T192 614T155 514Q155 454 197 425T317 395Q394 395 436 424T479 514Q479 572 443 613T317 655Q228 655 192 614ZM411 45T457 84T503 192Q503 261 455 300T317 340Q227 340 179 301T131 192Q131 123 177 84T317 45Q411
45 457 84Z" />
<glyph unicode="9" glyph-name="nine" horiz-adv-x="635" d="M429 710T493 635T558 415Q558 204 489 97T283 -10Q226 -10 181 7T111 57T85 129Q85 156 97 171T133 186Q151 186 163 174T175 143Q175 129 168 118T150 102Q162 75 198 60T288 45Q354 45 396 75T462
169T494 341Q466 294 418 268T310 242Q241 242 187 272T103 355T72 476Q72 544 101 597T184 680T306 710Q429 710 493 635ZM362 297T405 318T473 376T498 456Q498 549 447 602T307 655Q226 655 179 607T132 476Q132 394 180 346T311 297Q362 297 405 318Z" />
<glyph unicode=":" glyph-name="colon" horiz-adv-x="322" d="M217 458T201 474T161 490Q137 490 121 474T105 434Q105 410 121 394T161 378Q185 378 201 394T217 434Q217 458 201 474ZM473 70T457 86T417 102Q393 102 377 86T361 46Q361 22 377 6T417 -10Q441
-10 457 6T473 46Q473 70 457 86Z" />
<glyph unicode=";" glyph-name="semicolon" horiz-adv-x="313" d="M215 458T199 474T159 490Q135 490 119 474T103 434Q103 410 119 394T159 378Q183 378 199 394T215 434Q215 458 199 474ZM363 -169T359 -165T354 -153Q354 -148 360 -140Q387 -107 401 -77T415
-25Q415 -17 413 -14T403 -10Q381 -10 368 5T354 46Q354 70 370 86T410 102Q438 102 454 81T471 23Q471 -21 450 -69T385 -161Q377 -169 370 -169Q363 -169 359 -165Z" />
<glyph unicode="&lt;" glyph-name="less" horiz-adv-x="589" d="M492 457T489 453T480 446L194 334L480 222Q485 220 488 216T492 205V185Q492 176 487 171T474 166Q469 166 459 170L94 313Q82 318 82 333V335Q82 350 94 355L459 498Q469 502 474 502Q482 502
487 497T492 483V463Q492 457 489 453Z" />
<glyph unicode="=" glyph-name="equal" horiz-adv-x="708" d="M140 407T133 413T126 433V435Q126 462 157 462H551Q582 462 582 435V433Q582 420 575 414T551 407H157Q140 407 133 413ZM140 213T133 219T126 239V241Q126 268 157 268H551Q582 268 582 241V239Q582
226 575 220T551 213H157Q140 213 133 219Z" />
<glyph unicode="&gt;" glyph-name="greater" horiz-adv-x="589" d="M492 350T492 335V333Q492 318 480 313L115 170Q105 166 100 166Q92 166 87 171T82 185V205Q82 211 85 215T94 222L380 334L94 446Q89 448 86 452T82 463V483Q82 492 87 497T100 502Q105 502
115 498L480 355Q492 350 492 335Z" />
<glyph unicode="?" glyph-name="question" horiz-adv-x="587" d="M354 710T405 686T484 618T513 521Q513 471 491 426T423 351T306 319V228Q306 215 298 206T277 197H276Q263 197 255 206T247 228V343Q247 374 276 374H290Q376 374 414 414T453 519Q453 582 411
618T294 655Q225 655 183 630T132 558Q144 553 151 542T159 516Q159 498 147 486T117 473Q94 473 82 488T69 530Q69 583 96 624T174 687T289 710Q354 710 405 686ZM303 102T319 86T335 46Q335 22 319 6T279 -10Q255 -10 239 6T223 46Q223 70 239 86T279 102Q303
102 319 86Z" />
<glyph unicode="@" glyph-name="at" horiz-adv-x="1112" d="M755 506T755 475V166Q755 103 771 74T821 45Q860 45 892 78T944 168T963 293Q963 401 914 481T775 604T561 647Q435 647 343 599T202 461T152 247Q152 121 203 34T348 -97T573 -142Q695 -142 787 -109Q809
-101 818 -101Q828 -101 834 -108T840 -128Q840 -140 834 -147T813 -159Q742 -181 693 -189T573 -197Q426 -197 318 -146T151 4T92 245Q92 385 149 488T313 646T565 702Q702 702 806 652T966 510T1023 297Q1023 210 996 140T922 30T817 -10Q766 -10 735 20T698
107Q681 57 632 24T528 -10Q467 -10 421 21T350 111T325 247Q325 327 351 386T427 478T542 510Q587 510 628 487T696 425V475Q696 506 724 506H726Q755 506 755 475ZM579 45T616 68T674 130T696 217V366Q664 410 625 432T543 455Q466 455 426 400T385 238Q385 146
424 96T535 45Q579 45 616 68Z" />
<glyph unicode="A" glyph-name="A" horiz-adv-x="766" d="M719 55T719 36V19Q719 0 693 0H570Q544 0 544 19V36Q544 55 570 55H601L530 231H234L165 55H196Q222 55 222 36V19Q222 0 196 0H73Q47 0 47 19V36Q47 55 73 55H104L349 682Q352 690 359 695T375 700H383Q391
700 398 696T408 683L662 55H693Q719 55 719 36ZM508 286L379 604L255 286H508Z" />
<glyph unicode="B" glyph-name="B" horiz-adv-x="655" d="M515 361T549 318T584 211Q584 111 511 56T303 0H93Q67 0 67 19V36Q67 55 93 55H124V645H93Q67 645 67 664V681Q67 700 93 700H319Q552 700 552 534Q552 435 450 380Q515 361 549 318ZM183 645V395H308Q395
395 443 429T492 528Q492 590 449 617T309 645H183ZM411 55T467 93T524 213Q524 275 476 307T335 340H183V55H289Q411 55 467 93Z" />
<glyph unicode="C" glyph-name="C" horiz-adv-x="683" d="M598 174T607 167T616 149Q616 136 604 116Q527 -10 371 -10Q280 -10 214 34T113 159T78 350Q78 521 156 615T373 710Q438 710 494 686T583 620T616 530Q616 503 604 488T568 473Q550 473 538 485T526
516Q526 530 533 541T552 557Q539 601 488 628T373 655Q257 655 198 578T138 350Q138 204 197 125T371 45Q501 45 560 151Q567 164 573 169T587 174Q598 174 607 167Z" />
<glyph unicode="D" glyph-name="D" horiz-adv-x="720" d="M474 700T559 614T645 363Q645 252 604 170T487 44T307 0H93Q67 0 67 19V36Q67 55 93 55H124V645H93Q67 645 67 664V681Q67 700 93 700H313Q474 700 559 614ZM436 55T510 134T585 362Q585 505 517 575T307
645H183V55H297Q436 55 510 134Z" />
<glyph unicode="E" glyph-name="E" horiz-adv-x="644" d="M571 158T571 132V31Q571 18 562 9T540 0H93Q67 0 67 19V36Q67 55 93 55H124V645H93Q67 645 67 664V681Q67 700 93 700H535Q548 700 557 691T566 669V588Q566 562 547 562H530Q511 562 511 588V645H183V390H436Q444
390 450 384T456 370V355Q456 347 450 341T436 335H183V55H516V132Q516 158 535 158H552Q571 158 571 132Z" />
<glyph unicode="F" glyph-name="F" horiz-adv-x="621" d="M548 700T557 691T566 669V588Q566 562 547 562H530Q511 562 511 588V645H183V377H436Q444 377 450 371T456 357V342Q456 334 450 328T436 322H183V55H276Q302 55 302 36V19Q302 0 276 0H93Q67 0 67 19V36Q67
55 93 55H124V645H93Q67 645 67 664V681Q67 700 93 700H535Q548 700 557 691Z" />
<glyph unicode="G" glyph-name="G" horiz-adv-x="713" d="M604 335T612 328T621 308V31Q621 0 593 0H591Q562 0 562 31V88Q535 43 485 17T370 -10Q280 -10 214 33T113 158T77 350Q77 462 113 543T216 667T377 710Q442 710 498 686T587 620T620 530Q620 503 608
488T572 473Q554 473 542 485T530 516Q530 530 537 541T556 557Q542 600 493 627T377 655Q260 655 199 577T137 350Q137 203 197 124T370 45Q461 45 511 92T562 223V280H378Q364 280 356 287T347 307V308Q347 321 355 328T378 335H590Q604 335 612 328Z" />
<glyph unicode="H" glyph-name="H" horiz-adv-x="743" d="M619 645V55H650Q676 55 676 36V19Q676 0 650 0H529Q503 0 503 19V36Q503 55 529 55H560V335H183V55H214Q240 55 240 36V19Q240 0 214 0H93Q67 0 67 19V36Q67 55 93 55H124V645H93Q67 645 67 664V681Q67
700 93 700H214Q240 700 240 681V664Q240 645 214 645H183V390H560V645H529Q503 645 503 664V681Q503 700 529 700H650Q676 700 676 681V664Q676 645 650 645H619Z" />
<glyph unicode="I" glyph-name="I" horiz-adv-x="307" d="M67 0T67 19V36Q67 55 93 55H124V645H93Q67 645 67 664V681Q67 700 93 700H214Q240 700 240 681V664Q240 645 214 645H183V55H214Q240 55 240 36V19Q240 0 214 0H93Q67 0 67 19Z" />
<glyph unicode="J" glyph-name="J" horiz-adv-x="454" d="M395 700T395 681V664Q395 645 369 645H338V171Q338 89 298 40T192 -10Q132 -10 93 27T54 123Q54 150 66 165T102 180Q121 180 132 169T144 140Q144 126 137 115T117 98Q129 45 192 45Q235 45 257 79T279
179V645H199Q173 645 173 664V681Q173 700 199 700H369Q395 700 395 681Z" />
<glyph unicode="K" glyph-name="K" horiz-adv-x="716" d="M664 55T664 36V19Q664 0 638 0H472Q446 0 446 19V36Q446 55 472 55H502L183 348V55H214Q240 55 240 36V19Q240 0 214 0H93Q67 0 67 19V36Q67 55 93 55H124V645H93Q67 645 67 664V681Q67 700 93 700H214Q240
700 240 681V664Q240 645 214 645H183V375L498 645H473Q447 645 447 664V681Q447 700 473 700H620Q646 700 646 681V664Q646 645 620 645H580L250 363L585 55H638Q664 55 664 36Z" />
<glyph unicode="L" glyph-name="L" horiz-adv-x="598" d="M541 157T541 131V31Q541 18 532 9T510 0H93Q67 0 67 19V36Q67 55 93 55H124V645H93Q67 645 67 664V681Q67 700 93 700H263Q289 700 289 681V664Q289 645 263 645H183V55H486V131Q486 157 505 157H522Q541
157 541 131Z" />
<glyph unicode="M" glyph-name="M" horiz-adv-x="860" d="M736 645V55H767Q793 55 793 36V19Q793 0 767 0H646Q620 0 620 19V36Q620 55 646 55H677V583L456 199Q448 185 432 185H428Q412 185 404 199L183 583V55H214Q240 55 240 36V19Q240 0 214 0H93Q67 0 67
19V36Q67 55 93 55H124V645H93Q67 645 67 664V681Q67 700 93 700H163Q179 700 187 686L430 264L673 686Q681 700 697 700H767Q793 700 793 681V664Q793 645 767 645H736Z" />
<glyph unicode="N" glyph-name="N" horiz-adv-x="745" d="M684 700T684 681V664Q684 645 658 645H627V31Q627 18 619 9T598 0H582Q569 0 560 12L183 597V55H214Q240 55 240 36V19Q240 0 214 0H93Q67 0 67 19V36Q67 55 93 55H124V645H93Q67 645 67 664V681Q67 700
93 700H169Q182 700 191 688L568 103V645H537Q511 645 511 664V681Q511 700 537 700H658Q684 700 684 681Z" />
<glyph unicode="O" glyph-name="O" horiz-adv-x="766" d="M285 -10T217 33T113 155T76 341Q76 451 115 535T224 664T389 710Q481 710 549 668T653 546T690 360Q690 249 652 165T542 36T377 -10Q285 -10 217 33ZM496 45T563 128T630 360Q630 500 567 577T389 655Q271
655 204 572T136 341Q136 200 199 123T377 45Q496 45 563 128Z" />
<glyph unicode="P" glyph-name="P" horiz-adv-x="629" d="M434 700T500 649T566 499Q566 397 495 342T291 287H183V55H214Q240 55 240 36V19Q240 0 214 0H93Q67 0 67 19V36Q67 55 93 55H124V645H93Q67 645 67 664V681Q67 700 93 700H304Q434 700 500 649ZM402
342T454 378T506 498Q506 575 458 610T303 645H183V342H282Q402 342 454 378Z" />
<glyph unicode="Q" glyph-name="Q" horiz-adv-x="766" d="M626 -64Q632 -73 632 -82Q632 -92 623 -100T601 -108Q589 -108 579 -92L513 19Q452 -10 377 -10Q285 -10 217 33T113 155T76 341Q76 451 115 535T224 664T389 710Q481 710 549 668T653 546T690 360Q690
256 656 176T559 48L626 -64ZM435 45T484 67L408 195Q402 204 402 213Q402 223 411 231T433 239Q445 239 455 223L531 96Q579 136 604 203T630 360Q630 500 567 577T389 655Q271 655 204 572T136 341Q136 200 199 123T377 45Q435 45 484 67Z" />
<glyph unicode="R" glyph-name="R" horiz-adv-x="686" d="M638 55T638 36V19Q638 0 612 0H548Q535 0 526 12L406 198Q373 249 357 267T321 290T252 295H183V55H214Q240 55 240 36V19Q240 0 214 0H93Q67 0 67 19V36Q67 55 93 55H124V645H93Q67 645 67 664V681Q67
700 93 700H306Q571 700 571 514Q571 430 525 375T396 302Q421 284 449 240L568 55H612Q638 55 638 36ZM315 350Q415 350 463 390T511 513Q511 584 463 614T305 645H183V350H315Z" />
<glyph unicode="S" glyph-name="S" horiz-adv-x="616" d="M411 357T457 330T523 266T544 178Q544 125 515 82T433 15T314 -10Q241 -10 186 12T100 74T70 167Q70 194 82 209T118 224Q136 224 148 212T160 181Q160 166 152 155T131 139Q141 95 189 70T314 45Q390
45 437 81T484 175Q484 218 470 242T419 286T303 331Q221 357 175 384T108 447T88 534Q88 584 118 624T201 687T322 710Q421 710 474 669T528 552Q528 525 516 510T480 495Q462 495 450 507T438 538Q438 552 445 563T465 580Q447 655 317 655Q241 655 195 621T148
532Q148 494 163 470T216 427T330 383Q411 357 457 330Z" />
<glyph unicode="T" glyph-name="T" horiz-adv-x="646" d="M571 700T580 691T589 669V569Q589 543 570 543H553Q534 543 534 569V645H353V55H384Q410 55 410 36V19Q410 0 384 0H263Q237 0 237 19V36Q237 55 263 55H294V645H112V569Q112 543 93 543H76Q57 543 57
569V669Q57 682 66 691T88 700H558Q571 700 580 691Z" />
<glyph unicode="U" glyph-name="U" horiz-adv-x="732" d="M675 700T675 681V664Q675 645 649 645H618V298Q618 146 554 68T366 -10Q242 -10 178 64T114 279V645H83Q57 645 57 664V681Q57 700 83 700H204Q230 700 230 681V664Q230 645 204 645H173V279Q173 159
219 102T366 45Q466 45 512 106T559 298V645H528Q502 645 502 664V681Q502 700 528 700H649Q675 700 675 681Z" />
<glyph unicode="V" glyph-name="V" horiz-adv-x="744" d="M697 700T697 681V664Q697 645 671 645H640L401 17Q394 0 376 0H368Q350 0 343 17L104 645H73Q47 645 47 664V681Q47 700 73 700H196Q222 700 222 681V664Q222 645 196 645H165L372 99L579 645H548Q522
645 522 664V681Q522 700 548 700H671Q697 700 697 681Z" />
<glyph unicode="W" glyph-name="W" horiz-adv-x="1054" d="M1007 700T1007 681V664Q1007 645 981 645H950L761 17Q756 0 736 0H728Q710 0 703 17L527 505L351 17Q344 0 326 0H318Q298 0 293 17L104 645H73Q47 645 47 664V681Q47 700 73 700H194Q220 700 220 681V664Q220
645 194 645H163L324 110L494 580Q497 588 504 593T520 599H534Q543 599 550 594T560 580L730 110L891 645H860Q834 645 834 664V681Q834 700 860 700H981Q1007 700 1007 681Z" />
<glyph unicode="X" glyph-name="X" horiz-adv-x="728" d="M674 55T674 36V19Q674 0 648 0H518Q492 0 492 19V36Q492 55 518 55H550L363 310L179 55H210Q236 55 236 36V19Q236 0 210 0H80Q54 0 54 19V36Q54 55 80 55H111L329 357L118 645H88Q62 645 62 664V681Q62
700 88 700H218Q244 700 244 681V664Q244 645 218 645H186L367 398L545 645H514Q488 645 488 664V681Q488 700 514 700H644Q670 700 670 681V664Q670 645 644 645H613L401 351L618 55H648Q674 55 674 36Z" />
<glyph unicode="Y" glyph-name="Y" horiz-adv-x="723" d="M676 700T676 681V664Q676 645 650 645H619L391 270V55H422Q448 55 448 36V19Q448 0 422 0H301Q275 0 275 19V36Q275 55 301 55H332V270L104 645H73Q47 645 47 664V681Q47 700 73 700H201Q227 700 227
681V664Q227 645 201 645H170L362 330L553 645H522Q496 645 496 664V681Q496 700 522 700H650Q676 700 676 681Z" />
<glyph unicode="Z" glyph-name="Z" horiz-adv-x="634" d="M569 170T569 144V31Q569 18 560 9T538 0H89Q76 0 71 4T65 20V24Q65 35 77 53L475 645H128V560Q128 534 109 534H92Q73 534 73 560V669Q73 682 82 691T104 700H530Q543 700 548 696T554 680V676Q554 665
542 647L144 55H514V144Q514 170 533 170H550Q569 170 569 144Z" />
<glyph unicode="[" glyph-name="bracketleft" horiz-adv-x="370" d="M167 705V-195H305Q313 -195 319 -201T325 -215V-230Q325 -238 319 -244T305 -250H128Q120 -250 114 -244T108 -230V740Q108 748 114 754T128 760H305Q313 760 319 754T325 740V725Q325 717
319 711T305 705H167Z" />
<glyph unicode="\" glyph-name="backslash" horiz-adv-x="404" d="M327 -230Q312 -230 307 -210L18 717Q16 723 16 728Q16 740 28 740H57Q72 740 77 720L366 -207Q368 -213 368 -218Q368 -230 356 -230H327Z" />
<glyph unicode="]" glyph-name="bracketright" horiz-adv-x="370" d="M250 760T256 754T262 740V-230Q262 -238 256 -244T242 -250H65Q57 -250 51 -244T45 -230V-215Q45 -207 51 -201T65 -195H203V705H65Q57 705 51 711T45 725V740Q45 748 51 754T65 760H242Q250
760 256 754Z" />
<glyph unicode="^" glyph-name="asciicircum" horiz-adv-x="453" d="M364 405T364 400Q364 392 359 387T345 382H324Q318 382 314 385T307 394L227 598L146 394Q144 389 140 386T129 382H108Q99 382 94 387T89 400Q89 405 93 415L200 688Q205 700 220 700H233Q248
700 253 688L360 415Q364 405 364 400Z" />
<glyph unicode="_" glyph-name="underscore" horiz-adv-x="582" d="M100 -108T93 -102T86 -82V-80Q86 -53 117 -53H465Q496 -53 496 -80V-82Q496 -95 489 -101T465 -108H117Q100 -108 93 -102Z" />
<glyph unicode="`" glyph-name="grave" horiz-adv-x="246" d="M203 578T197 572T182 566Q174 566 165 575T121 628Q81 677 72 691T62 713Q62 728 72 736T97 744Q104 744 110 739T129 714T163 658Q186 620 194 604T203 583Q203 578 197 572Z" />
<glyph unicode="a" glyph-name="a" horiz-adv-x="539" d="M502 55T502 36V19Q502 0 476 0H416Q403 0 395 9T386 31V103Q367 55 317 23T212 -10Q141 -10 98 30T54 137Q54 204 100 242T229 281Q304 281 386 263V312Q386 386 353 420T247 455Q212 455 187 447T151
423Q169 410 169 387Q169 369 157 357T127 344Q104 344 92 359T79 401Q79 448 128 479T253 510Q345 510 395 459T445 315V55H476Q502 55 502 36ZM264 45T302 68T363 131T386 217V218Q334 226 237 226Q175 226 143 204T111 138Q111 94 139 70T219 45Q264 45 302
68Z" />
<glyph unicode="b" glyph-name="b" horiz-adv-x="580" d="M378 510T424 479T495 389T520 253Q520 173 494 114T418 22T303 -10Q258 -10 217 13T149 75V25Q149 -6 121 -6H119Q90 -6 90 25V685H59Q33 685 33 704V721Q33 740 59 740H120Q133 740 141 731T149 709V398Q168
446 215 478T317 510Q378 510 424 479ZM379 45T419 100T460 262Q460 354 421 404T310 455Q266 455 229 432T171 370T149 283V134Q181 90 220 68T302 45Q379 45 419 100Z" />
<glyph unicode="c" glyph-name="c" horiz-adv-x="534" d="M460 146T469 139T478 121Q478 108 466 88Q435 36 393 13T285 -10Q218 -10 167 23T87 117T58 255Q58 331 86 389T165 478T285 510Q372 510 425 467T478 352Q478 325 466 310T430 295Q412 295 400 307T388
338Q388 352 395 363T415 379Q405 415 371 435T285 455Q205 455 162 403T118 255Q118 157 162 101T285 45Q337 45 367 62T422 123Q429 136 435 141T449 146Q460 146 469 139Z" />
<glyph unicode="d" glyph-name="d" horiz-adv-x="589" d="M547 55T547 36V19Q547 0 521 0H462Q449 0 440 9T431 31V102Q412 54 365 22T263 -10Q202 -10 156 21T85 111T60 247Q60 327 86 386T162 478T277 510Q322 510 363 487T431 425V685H400Q374 685 374 704V721Q374
740 400 740H461Q474 740 482 731T490 709V55H521Q547 55 547 36ZM314 45T351 68T409 130T431 217V366Q399 410 360 432T278 455Q201 455 161 400T120 238Q120 146 159 96T270 45Q314 45 351 68Z" />
<glyph unicode="e" glyph-name="e" horiz-adv-x="554" d="M497 263T495 237H118Q123 147 167 96T285 45Q337 45 367 62T422 123Q429 136 435 141T449 146Q460 146 469 139T478 121Q478 108 466 88Q435 36 393 13T285 -10Q218 -10 167 23T87 117T58 255Q58 331
86 389T165 478T285 510Q384 510 440 448T497 275Q497 263 495 237ZM214 455T171 413T120 292H437Q434 374 397 414T285 455Q214 455 171 413Z" />
<glyph unicode="f" glyph-name="f" horiz-adv-x="389" d="M340 750T377 723T414 658Q414 631 402 616T366 601Q348 601 336 613T324 644Q324 664 339 679Q323 695 285 695Q195 695 195 585V500H331Q348 500 355 494T362 474V472Q362 445 331 445H195V55H249Q275
55 275 36V19Q275 0 249 0H105Q79 0 79 19V36Q79 55 105 55H136V445H61Q30 445 30 472V474Q30 487 37 493T61 500H136V599Q136 667 177 708T288 750Q340 750 377 723Z" />
<glyph unicode="g" glyph-name="g" horiz-adv-x="589" d="M547 500T547 481V464Q547 445 521 445H490V20Q490 -240 272 -240Q224 -240 183 -224T117 -181T92 -121Q92 -94 104 -79T140 -64Q158 -64 170 -76T182 -107Q182 -131 164 -144Q176 -162 204 -173T266 -185Q355
-185 393 -138T431 20V102Q412 54 365 22T263 -10Q202 -10 156 21T85 111T60 247Q60 327 86 386T162 478T277 510Q322 510 363 487T431 425V469Q431 500 460 500H521Q547 500 547 481ZM314 45T351 68T409 130T431 217V366Q399 410 360 432T278 455Q201 455 161
400T120 238Q120 146 159 96T270 45Q314 45 351 68Z" />
<glyph unicode="h" glyph-name="h" horiz-adv-x="597" d="M560 55T560 36V19Q560 0 534 0H413Q387 0 387 19V36Q387 55 413 55H444V275Q444 372 418 413T329 455Q287 455 248 427T183 354T158 261V55H189Q215 55 215 36V19Q215 0 189 0H68Q42 0 42 19V36Q42 55
68 55H99V685H68Q42 685 42 704V721Q42 740 68 740H127Q140 740 149 731T158 709V381Q181 436 233 473T339 510Q422 510 462 452T503 275V55H534Q560 55 560 36Z" />
<glyph unicode="i" glyph-name="i" horiz-adv-x="264" d="M99 608T85 622T70 659Q70 681 84 695T121 710Q143 710 157 696T172 659Q172 637 158 623T121 608Q99 608 85 622ZM50 0T50 19V36Q50 55 76 55H107V445H76Q50 445 50 464V481Q50 500 76 500H135Q148 500
157 491T166 469V55H197Q223 55 223 36V19Q223 0 197 0H76Q50 0 50 19Z" />
<glyph unicode="j" glyph-name="j" horiz-adv-x="248" d="M91 608T77 622T62 659Q62 681 76 695T113 710Q135 710 149 696T164 659Q164 637 150 623T113 608Q91 608 77 622ZM140 500T149 491T158 469V-60Q158 -148 121 -194T13 -240Q-31 -240 -64 -213T-97 -148Q-97
-121 -85 -106T-49 -91Q-31 -91 -19 -103T-7 -134Q-7 -156 -24 -170Q-10 -185 16 -185Q60 -185 79 -152T99 -46V445H68Q42 445 42 464V481Q42 500 68 500H127Q140 500 149 491Z" />
<glyph unicode="k" glyph-name="k" horiz-adv-x="565" d="M527 55T527 36V19Q527 0 501 0H452Q446 0 442 1T430 11L156 255V55H187Q213 55 213 36V19Q213 0 187 0H68Q42 0 42 19V36Q42 55 68 55H99V685H68Q42 685 42 704V721Q42 740 68 740H125Q138 740 147 731T156
709V284L319 406Q371 445 395 445H344Q318 445 318 464V481Q318 500 344 500H496Q522 500 522 481V464Q522 445 496 445H457L219 272L462 55H501Q527 55 527 36Z" />
<glyph unicode="l" glyph-name="l" horiz-adv-x="257" d="M42 0T42 19V36Q42 55 68 55H99V685H68Q42 685 42 704V721Q42 740 68 740H127Q140 740 149 731T158 709V55H189Q215 55 215 36V19Q215 0 189 0H68Q42 0 42 19Z" />
<glyph unicode="m" glyph-name="m" horiz-adv-x="890" d="M853 55T853 36V19Q853 0 827 0H706Q680 0 680 19V36Q680 55 706 55H737V275Q737 344 728 383T698 438T637 455Q598 455 562 428T503 355T481 261V55H512Q538 55 538 36V19Q538 0 512 0H391Q365 0 365
19V36Q365 55 391 55H422V275Q422 344 413 383T383 438T322 455Q283 455 247 428T188 355T166 261V55H197Q223 55 223 36V19Q223 0 197 0H76Q50 0 50 19V36Q50 55 76 55H107V445H76Q50 445 50 464V481Q50 500 76 500H135Q148 500 157 491T166 469V382Q189 438 235
474T332 510Q391 510 425 478T473 378Q502 440 548 475T647 510Q725 510 760 454T796 275V55H827Q853 55 853 36Z" />
<glyph unicode="n" glyph-name="n" horiz-adv-x="597" d="M560 55T560 36V19Q560 0 534 0H413Q387 0 387 19V36Q387 55 413 55H444V275Q444 342 434 381T399 437T333 455Q291 455 253 427T190 354T166 261V55H197Q223 55 223 36V19Q223 0 197 0H76Q50 0 50 19V36Q50
55 76 55H107V445H76Q50 445 50 464V481Q50 500 76 500H135Q148 500 157 491T166 469V381Q189 437 239 473T343 510Q425 510 464 453T503 275V55H534Q560 55 560 36Z" />
<glyph unicode="o" glyph-name="o" horiz-adv-x="578" d="M221 -10T168 22T86 113T57 246Q57 323 86 383T168 476T289 510Q357 510 410 478T492 387T521 254Q521 177 492 117T410 24T289 -10Q221 -10 168 22ZM369 45T415 101T461 254Q461 349 416 402T289 455Q209
455 163 399T117 246Q117 151 162 98T289 45Q369 45 415 101Z" />
<glyph unicode="p" glyph-name="p" horiz-adv-x="589" d="M387 510T433 479T504 389T529 253Q529 173 503 114T427 22T312 -10Q267 -10 226 13T158 75V-175H189Q215 -175 215 -194V-211Q215 -230 189 -230H68Q42 -230 42 -211V-194Q42 -175 68 -175H99V445H68Q42
445 42 464V481Q42 500 68 500H129Q142 500 150 491T158 469V398Q177 446 224 478T326 510Q387 510 433 479ZM388 45T428 100T469 262Q469 354 430 404T319 455Q275 455 238 432T180 370T158 283V134Q190 90 229 68T311 45Q388 45 428 100Z" />
<glyph unicode="q" glyph-name="q" horiz-adv-x="580" d="M547 -175T547 -194V-211Q547 -230 521 -230H400Q374 -230 374 -211V-194Q374 -175 400 -175H431V102Q412 54 365 22T263 -10Q202 -10 156 21T85 111T60 247Q60 327 86 386T162 478T277 510Q322 510 363
487T431 425V475Q431 506 459 506H461Q490 506 490 475V-175H521Q547 -175 547 -194ZM314 45T351 68T409 130T431 217V366Q399 410 360 432T278 455Q201 455 161 400T120 238Q120 146 159 96T270 45Q314 45 351 68Z" />
<glyph unicode="r" glyph-name="r" horiz-adv-x="423" d="M355 510T374 496T393 455Q393 436 381 423T348 410Q329 410 316 423T303 455H301Q266 455 235 425T185 345T166 237V55H220Q246 55 246 36V19Q246 0 220 0H76Q50 0 50 19V36Q50 55 76 55H107V445H76Q50
445 50 464V481Q50 500 76 500H135Q148 500 157 491T166 469V371Q184 435 225 472T321 510Q355 510 374 496Z" />
<glyph unicode="s" glyph-name="s" horiz-adv-x="510" d="M374 253T412 220T451 132Q451 91 427 59T360 9T258 -10Q166 -10 111 27T56 126Q56 153 68 168T104 183Q122 183 134 171T146 140Q146 113 123 100Q147 45 258 45Q322 45 356 67T391 128Q391 153 381 168T343
196T261 224Q185 245 144 265T86 311T68 374Q68 413 92 444T159 492T256 510Q345 510 393 478T442 385Q442 358 430 343T394 328Q376 328 364 340T352 371Q352 385 359 396T377 412Q356 455 256 455Q199 455 164 432T128 370Q128 350 140 337T185 310T281 279Q374
253 412 220Z" />
<glyph unicode="t" glyph-name="t" horiz-adv-x="469" d="M416 158T425 152T434 135Q434 124 427 106Q409 58 379 24T287 -10Q213 -10 173 36T133 170V445H58Q27 445 27 472V474Q27 488 34 494T58 500H133V594Q133 625 162 625H164Q192 625 192 594V500H336Q352
500 359 494T367 474V472Q367 445 336 445H192V184Q192 45 287 45Q313 45 329 55T355 82T379 134Q385 148 390 153T404 158Q416 158 425 152Z" />
<glyph unicode="u" glyph-name="u" horiz-adv-x="582" d="M541 55T541 36V19Q541 0 515 0H456Q443 0 434 9T425 31V119Q402 62 354 26T251 -10Q169 -10 132 46T94 225V445H63Q37 445 37 464V481Q37 500 63 500H124Q136 500 144 491T153 469V225Q153 157 163 118T197
62T261 45Q302 45 340 73T401 146T425 239V445H394Q368 445 368 464V481Q368 500 394 500H455Q468 500 476 491T484 469V55H515Q541 55 541 36Z" />
<glyph unicode="v" glyph-name="v" horiz-adv-x="564" d="M537 500T537 481V464Q537 445 511 445H480L314 17Q307 0 288 0H276Q257 0 250 17L84 445H53Q27 445 27 464V481Q27 500 53 500H174Q200 500 200 481V464Q200 445 174 445H145L282 91L419 445H390Q364
445 364 464V481Q364 500 390 500H511Q537 500 537 481Z" />
<glyph unicode="w" glyph-name="w" horiz-adv-x="786" d="M759 500T759 481V464Q759 445 733 445H702L573 17Q568 0 547 0H535Q516 0 509 17L393 328L277 17Q270 0 251 0H239Q218 0 213 17L84 445H53Q27 445 27 464V481Q27 500 53 500H174Q200 500 200 481V464Q200
445 174 445H143L247 100L359 400Q363 410 369 415T386 420H400Q411 420 417 415T427 400L539 100L643 445H612Q586 445 586 464V481Q586 500 612 500H733Q759 500 759 481Z" />
<glyph unicode="x" glyph-name="x" horiz-adv-x="569" d="M530 55T530 36V19Q530 0 504 0H375Q349 0 349 19V36Q349 55 375 55H430Q413 55 403 60T385 76L280 212L159 55H193Q219 55 219 36V19Q219 0 193 0H64Q38 0 38 19V36Q38 55 64 55H91L246 257L101 445H69Q43
445 43 464V481Q43 500 69 500H198Q224 500 224 481V464Q224 445 198 445H143Q160 445 170 440T188 424L286 297L400 445H372Q346 445 346 464V481Q346 500 372 500H501Q527 500 527 481V464Q527 445 501 445H468L320 252L472 55H504Q530 55 530 36Z" />
<glyph unicode="y" glyph-name="y" horiz-adv-x="564" d="M537 500T537 481V464Q537 445 511 445H480L267 -105Q238 -181 207 -210T125 -240Q86 -240 61 -218T36 -163Q36 -141 49 -127T84 -113Q102 -113 114 -125T126 -156Q126 -168 117 -182Q122 -185 132 -185Q156
-185 173 -166T209 -99L252 13L84 445H53Q27 445 27 464V481Q27 500 53 500H174Q200 500 200 481V464Q200 445 174 445H145L283 89L419 445H390Q364 445 364 464V481Q364 500 390 500H511Q537 500 537 481Z" />
<glyph unicode="z" glyph-name="z" horiz-adv-x="513" d="M461 157T461 131V31Q461 18 452 9T430 0H76Q63 0 58 4T52 20V24Q52 36 64 52L361 445H112V379Q112 353 93 353H76Q57 353 57 379V469Q57 482 66 491T88 500H424Q437 500 442 496T448 480V476Q448 464
436 448L139 55H406V131Q406 157 425 157H442Q461 157 461 131Z" />
<glyph unicode="{" glyph-name="braceleft" horiz-adv-x="384" d="M233 715T191 690T148 614Q148 587 161 558T201 488Q228 444 240 417T253 362Q253 323 232 296T174 256Q210 244 231 216T253 149Q253 122 240 94T201 23Q175 -20 162 -48T148 -104Q148 -155 190
-180T319 -205Q327 -205 333 -211T339 -225V-240Q339 -248 333 -254T319 -260Q211 -260 150 -220T89 -110Q89 -69 105 -33T150 52Q173 90 183 112T194 157Q194 190 168 209T96 228H72Q64 228 58 234T52 248V263Q52 271 58 277T72 283H96Q142 283 168 302T194 354Q194
376 184 398T150 459Q121 505 105 542T89 620Q89 690 150 730T319 770Q327 770 333 764T339 750V735Q339 727 333 721T319 715Q233 715 191 690Z" />
<glyph unicode="|" glyph-name="bar" horiz-adv-x="329" d="M182 760T188 754T194 740V-230Q194 -238 188 -244T174 -250H155Q147 -250 141 -244T135 -230V740Q135 748 141 754T155 760H174Q182 760 188 754Z" />
<glyph unicode="}" glyph-name="braceright" horiz-adv-x="384" d="M320 283T326 277T332 263V248Q332 240 326 234T312 228H288Q242 228 216 209T190 157Q190 135 200 113T234 52Q263 4 279 -32T295 -110Q295 -180 234 -220T65 -260Q57 -260 51 -254T45 -240V-225Q45
-217 51 -211T65 -205Q151 -205 193 -180T236 -104Q236 -77 224 -50T184 23Q158 64 145 93T131 149Q131 188 152 216T210 256Q174 268 153 295T131 362Q131 389 144 417T184 488Q210 531 223 559T236 614Q236 665 194 690T65 715Q57 715 51 721T45 735V750Q45 758
51 764T65 770Q173 770 234 730T295 620Q295 579 279 542T234 459Q211 421 201 399T190 354Q190 321 216 302T288 283H312Q320 283 326 277Z" />
<glyph unicode="~" glyph-name="asciitilde" horiz-adv-x="647" d="M372 252T350 267T301 312Q278 337 266 347T241 358Q215 358 200 344T163 285Q157 272 145 272Q134 272 122 279T109 298Q109 302 112 309Q134 365 165 389T244 413Q275 413 297 398T346 353Q369
328 381 318T406 307Q432 307 447 321T484 380Q491 393 502 393Q513 393 525 386T538 367Q538 364 535 356Q513 300 482 276T403 252Q372 252 350 267Z" />
<glyph unicode="&#xa0;" glyph-name="uni00A0" horiz-adv-x="270" />
<glyph unicode="&#xa1;" glyph-name="exclamdown" horiz-adv-x="314" d="M197 480T213 464T229 424Q229 400 213 384T173 368Q149 368 133 384T117 424Q117 448 133 464T173 480Q197 480 213 464ZM171 273Q184 273 192 264T200 242V-199Q200 -212 192 -221T171
-230H170Q157 -230 149 -221T141 -199V242Q141 255 149 264T170 273H171Z" />
<glyph unicode="&#xa2;" glyph-name="cent" horiz-adv-x="534" d="M460 146T469 139T478 121Q478 108 466 88Q438 42 403 19T316 -9V-133Q316 -141 310 -147T296 -153H277Q269 -153 263 -147T257 -133V-8Q197 -1 152 33T83 125T58 255Q58 362 112 430T257 509V633Q257
641 263 647T277 653H296Q304 653 310 647T316 633V508Q390 500 434 458T478 352Q478 325 466 310T430 295Q412 295 400 307T388 338Q388 352 395 363T415 379Q405 415 371 435T285 455Q205 455 162 403T118 255Q118 157 162 101T285 45Q337 45 367 62T422 123Q429
136 435 141T449 146Q460 146 469 139Z" />
<glyph unicode="&#xa3;" glyph-name="sterling" horiz-adv-x="678" d="M580 112T580 86V20Q580 12 574 6T560 0H112Q104 0 98 6T92 20V35Q92 43 98 49T112 55H136Q182 55 208 74T234 126Q234 148 226 182T199 280H112Q104 280 98 286T92 300V315Q92 323 98 329T112
335H183Q151 450 151 506Q151 567 178 613T255 684T370 710Q462 710 516 668T570 552Q570 525 558 510T522 495Q504 495 492 507T480 538Q480 552 487 563T507 579Q497 616 461 635T365 655Q292 655 251 615T210 500Q210 458 246 335H485Q493 335 499 329T505 315V300Q505
292 499 286T485 280H262Q293 174 293 134Q293 80 261 55H525V86Q525 112 544 112H561Q580 112 580 86Z" />
<glyph unicode="&#xa4;" glyph-name="currency" horiz-adv-x="754" d="M650 44Q656 38 656 29Q656 20 644 8T623 -4Q614 -4 608 2L522 89Q461 42 377 42Q293 42 232 89L146 2Q140 -4 131 -4Q122 -4 110 8T98 29Q98 38 104 44L191 131Q145 193 145 276Q145 360
190 421L104 507Q98 513 98 522Q98 531 110 543T131 555Q140 555 146 549L231 463Q292 510 377 510Q462 510 523 463L608 549Q614 555 623 555Q632 555 644 543T656 522Q656 513 650 507L564 421Q609 360 609 276Q609 193 563 131L650 44ZM205 194T251 146T377
97Q456 97 502 145T549 276Q549 358 503 406T377 455Q298 455 252 407T205 276Q205 194 251 146Z" />
<glyph unicode="&#xa5;" glyph-name="yen" horiz-adv-x="723" d="M676 700T676 681V664Q676 645 650 645H619L451 369H586Q594 369 600 363T606 349V334Q606 326 600 320T586 314H418L391 270V212H586Q594 212 600 206T606 192V177Q606 169 600 163T586 157H391V55H422Q448
55 448 36V19Q448 0 422 0H301Q275 0 275 19V36Q275 55 301 55H332V157H137Q129 157 123 163T117 177V192Q117 200 123 206T137 212H332V270L305 314H137Q129 314 123 320T117 334V349Q117 357 123 363T137 369H272L104 645H73Q47 645 47 664V681Q47 700 73 700H201Q227
700 227 681V664Q227 645 201 645H170L362 330L553 645H522Q496 645 496 664V681Q496 700 522 700H650Q676 700 676 681Z" />
<glyph unicode="&#xa6;" glyph-name="brokenbar" horiz-adv-x="327" d="M181 760T187 754T193 740V376Q193 368 187 362T173 356H154Q146 356 140 362T134 376V740Q134 748 140 754T154 760H173Q181 760 187 754ZM181 202T187 196T193 182V-230Q193 -238 187 -244T173
-250H154Q146 -250 140 -244T134 -230V182Q134 190 140 196T154 202H173Q181 202 187 196Z" />
<glyph unicode="&#xa7;" glyph-name="section" horiz-adv-x="601" d="M454 197T464 174T475 120Q475 62 425 26T292 -10Q207 -10 160 23T113 115Q113 142 125 157T161 172Q179 172 191 160T203 129Q203 115 196 104T178 88Q197 45 292 45Q348 45 381 66T415 124Q415
146 402 161T357 191T267 221Q174 247 136 280T97 368Q97 407 116 437T170 485Q146 503 136 526T125 580Q125 638 175 674T308 710Q393 710 440 677T487 585Q487 558 475 543T439 528Q421 528 409 540T397 571Q397 585 404 596T422 612Q403 655 308 655Q252 655
219 634T185 576Q185 554 198 539T243 509T333 479Q426 453 464 420T503 332Q503 293 484 263T430 215Q454 197 464 174ZM443 266T443 328Q443 355 428 371T369 405T230 449Q157 434 157 372Q157 345 172 329T231 295T370 251Q443 266 443 328Z" />
<glyph unicode="&#xa8;" glyph-name="dieresis" horiz-adv-x="438" d="M119 591T106 605T92 639Q92 659 105 673T140 687Q160 687 173 673T187 639Q187 619 174 605T140 591Q119 591 106 605ZM298 591T285 605T271 639Q271 659 284 673T318 687Q339 687 352 673T366
639Q366 619 353 605T318 591Q298 591 285 605Z" />
<glyph unicode="&#xa9;" glyph-name="copyright" horiz-adv-x="906" d="M556 710T638 664T766 536T812 350Q812 246 766 164T638 36T453 -10Q350 -10 268 36T140 164T94 350Q94 454 140 536T268 664T453 710Q556 710 638 664ZM543 45T610 82T715 189T752 350Q752
442 715 511T611 617T453 655Q363 655 296 618T191 511T154 350Q154 258 191 189T295 83T453 45Q543 45 610 82ZM502 430T525 443Q507 474 453 474Q404 474 379 441T354 347Q354 285 379 250T453 215Q486 215 503 225T536 266Q543 279 549 284T563 289Q574 289
583 282T592 264Q592 251 580 231Q558 194 528 177T455 160Q383 160 339 212T294 348Q294 430 338 479T455 529Q517 529 554 499T592 417Q592 390 580 375T544 360Q526 360 514 372T502 403Q502 430 525 443Z" />
<glyph unicode="&#xaa;" glyph-name="ordfeminine" horiz-adv-x="446" d="M404 408T404 389V372Q404 353 378 353H312Q302 353 295 360T288 378V421Q274 389 242 368T173 346Q123 346 93 373T63 448Q63 497 96 524T189 552Q234 552 288 536V578Q288 660 207 660Q189
660 174 655T151 641Q158 631 158 620Q158 604 148 594T122 583Q103 583 93 595T82 627Q82 662 119 686T210 710Q275 710 311 675T347 576V408H378Q404 408 404 389ZM223 395T253 422T288 490V500Q227 508 199 508Q120 508 120 450Q120 423 136 409T185 395Q223
395 253 422Z" />
<glyph unicode="&#xab;" glyph-name="guillemotleft" horiz-adv-x="536" d="M474 105Q480 98 480 91Q480 82 470 82H435Q426 82 420 86T405 99L266 265Q259 274 259 284Q259 295 266 303L405 469Q413 478 419 482T435 486H470Q480 486 480 477Q480 470 474 463L324
284L474 105ZM269 105Q275 98 275 91Q275 82 265 82H230Q221 82 215 86T200 99L61 265Q54 274 54 284Q54 295 61 303L200 469Q208 478 214 482T230 486H265Q275 486 275 477Q275 470 269 463L119 284L269 105Z" />
<glyph unicode="&#xac;" glyph-name="logicalnot" horiz-adv-x="674" d="M540 360T540 333V159Q540 142 534 135T514 128H512Q485 128 485 159V305H116Q99 305 92 311T85 331V333Q85 360 116 360H509Q540 360 540 333Z" />
<glyph unicode="&#xad;" glyph-name="uni00AD" horiz-adv-x="582" d="M110 305T103 311T96 331V333Q96 360 127 360H475Q506 360 506 333V331Q506 318 499 312T475 305H127Q110 305 103 311Z" />
<glyph unicode="&#xae;" glyph-name="registered" horiz-adv-x="704" d="M425 710T482 678T572 589T605 461Q605 390 573 333T483 244T352 212Q279 212 222 244T132 333T99 461Q99 532 131 589T221 678T352 710Q425 710 482 678ZM443 267T495 319T548 461Q548
550 496 602T352 655Q261 655 209 603T156 461Q156 372 208 320T352 267Q443 267 495 319ZM466 394T466 382V365Q466 360 462 357T451 353H419Q411 353 406 356T395 368L366 415Q354 433 347 440T327 447H326V394H334Q349 394 349 383V366Q349 360 345 357T334
353H269Q262 353 258 356T254 366V383Q254 394 269 394H277V531H269Q262 531 258 534T254 544V561Q254 566 258 569T269 573H352Q437 573 437 510Q437 464 392 452Q404 446 417 426L437 394H451Q466 394 466 382ZM326 531V489H360Q385 489 385 510Q385 531 360
531H326Z" />
<glyph unicode="&#xaf;" glyph-name="overscore" horiz-adv-x="518" d="M110 616T103 622T96 642V644Q96 671 127 671H411Q442 671 442 644V642Q442 629 435 623T411 616H127Q110 616 103 622Z" />
<glyph unicode="&#xb0;" glyph-name="degree" horiz-adv-x="528" d="M220 402T184 422T128 478T107 556Q107 599 127 634T184 689T264 710Q308 710 344 690T400 634T421 556Q421 513 401 478T344 423T264 402Q220 402 184 422ZM309 457T335 483T361 556Q361 602
335 628T264 655Q219 655 193 629T167 556Q167 510 193 484T264 457Q309 457 335 483Z" />
<glyph unicode="&#xb1;" glyph-name="plusminus" horiz-adv-x="641" d="M548 413T548 386V384Q548 371 541 365T517 358H348V260Q348 243 342 236T322 229H320Q293 229 293 260V358H124Q107 358 100 364T93 384V386Q93 413 124 413H293V511Q293 542 320 542H322Q335
542 341 535T348 511V413H517Q548 413 548 386ZM548 178T548 151V149Q548 136 541 130T517 123H124Q107 123 100 129T93 149V151Q93 178 124 178H517Q548 178 548 151Z" />
<glyph unicode="&#xb2;" glyph-name="uni00B2" horiz-adv-x="419" d="M358 393T358 367V305Q358 295 351 288T333 280H89Q79 280 73 286T67 303V327Q67 361 77 385T111 431T184 484Q228 512 249 528T278 559T286 594Q286 621 265 638T209 655Q152 655 135 622Q146
611 146 594Q146 578 136 568T109 558Q91 558 80 570T69 602Q69 649 107 679T206 710Q267 710 306 678T345 595Q345 564 334 541T295 493T212 434Q175 411 159 397T135 370T126 335H303V367Q303 393 322 393H339Q358 393 358 367Z" />
<glyph unicode="&#xb3;" glyph-name="uni00B3" horiz-adv-x="436" d="M333 492T349 466T366 402Q366 342 325 306T214 270Q149 270 107 300T64 378Q64 398 75 410T104 422Q120 422 130 412T141 386Q141 370 131 360Q141 343 163 334T216 325Q258 325 282 346T307
404Q307 471 216 471H185Q178 471 173 476T167 489V507Q167 515 172 520T185 526H209Q253 526 273 540T293 586Q293 617 270 636T209 655Q154 655 135 621Q146 612 146 594Q146 578 136 568T109 558Q91 558 80 570T69 602Q69 649 108 679T209 710Q274 710 313 679T352
594Q352 535 301 505Q333 492 349 466Z" />
<glyph unicode="&#xb4;" glyph-name="acute" horiz-adv-x="246" d="M63 588T71 604T103 658Q123 693 136 713T156 739T169 744Q184 744 194 736T204 713Q204 705 195 691T145 628Q111 585 102 576T84 566Q75 566 69 572T63 583Q63 588 71 604Z" />
<glyph unicode="&#xb5;" glyph-name="uni00B5" horiz-adv-x="639" d="M509 500T517 491T525 469V31Q525 18 517 9T496 0H495Q482 0 474 9T466 31V119Q443 62 395 26T292 -10Q230 -10 194 23V-199Q194 -212 186 -221T165 -230H164Q151 -230 143 -221T135 -199V469Q135
482 143 491T164 500H165Q178 500 186 491T194 469V225Q194 157 204 118T238 62T302 45Q343 45 381 73T442 146T466 239V469Q466 482 474 491T495 500H496Q509 500 517 491Z" />
<glyph unicode="&#xb6;" glyph-name="paragraph" horiz-adv-x="733" d="M586 645V55H617Q643 55 643 36V19Q643 0 617 0H280Q254 0 254 19V36Q254 55 280 55H311V314Q203 314 144 364T84 507Q84 599 143 649T311 700H617Q643 700 643 681V664Q643 645 617 645H586ZM527
55V645H370V55H527Z" />
<glyph unicode="&#xb7;" glyph-name="middot" horiz-adv-x="344" d="M242 353T226 369T186 385Q162 385 146 369T130 329Q130 305 146 289T186 273Q210 273 226 289T242 329Q242 353 226 369Z" />
<glyph unicode="&#xb8;" glyph-name="cedilla" horiz-adv-x="320" d="M224 -81T249 -104T275 -170Q275 -215 245 -239T161 -263H105Q89 -263 82 -257T74 -237V-235Q74 -208 105 -208H164Q215 -208 215 -171Q215 -151 204 -144T164 -136H106Q78 -136 78 -110Q78
-98 88 -81L148 19H210L151 -82Q158 -81 175 -81Q224 -81 249 -104Z" />
<glyph unicode="&#xb9;" glyph-name="uni00B9" horiz-adv-x="292" d="M235 335T235 316V299Q235 280 209 280H88Q62 280 62 299V316Q62 335 88 335H119V571H65Q57 571 52 576T46 590V608Q46 616 51 621T65 626H98Q107 626 113 632T119 648V677Q119 687 125 693T142
700H156Q165 700 171 693T178 677V335H209Q235 335 235 316Z" />
<glyph unicode="&#xba;" glyph-name="ordmasculine" horiz-adv-x="495" d="M172 346T127 395T81 525Q81 608 127 659T248 710Q323 710 368 661T414 531Q414 449 368 398T247 346Q172 346 127 395ZM297 401T325 436T354 531Q354 590 327 622T248 655Q198 655 170
620T141 525Q141 467 168 434T247 401Q297 401 325 436Z" />
<glyph unicode="&#xbb;" glyph-name="guillemotright" horiz-adv-x="536" d="M265 274T258 265L119 99Q111 90 105 86T89 82H54Q44 82 44 91Q44 98 50 105L200 284L50 463Q44 470 44 477Q44 486 54 486H89Q98 486 104 482T119 469L258 303Q265 295 265 284Q265
274 258 265ZM470 295T470 284Q470 274 463 265L324 99Q316 90 310 86T294 82H259Q249 82 249 91Q249 98 255 105L405 284L255 463Q249 470 249 477Q249 486 259 486H294Q303 486 309 482T324 469L463 303Q470 295 470 284Z" />
<glyph unicode="&#xbc;" glyph-name="onequarter" horiz-adv-x="846" d="M251 280T225 280H104Q78 280 78 299V316Q78 335 104 335H135V571H81Q73 571 68 576T62 590V608Q62 616 67 621T81 626H114Q123 626 129 632T135 648V677Q135 687 141 693T158 700H172Q181
700 187 693T194 677V335H225Q251 335 251 316V299Q251 280 225 280ZM692 681T684 670L224 17Q218 8 213 4T199 0H167Q155 0 155 10Q155 19 163 30L623 683Q629 692 634 696T648 700H680Q692 700 692 690Q692 681 684 670ZM777 172T782 167T788 153V135Q788 127
783 122T769 116H707V55H738Q764 55 764 36V19Q764 0 738 0H617Q591 0 591 19V36Q591 55 617 55H648V116H470Q462 116 457 121T451 135V148Q451 164 463 180L631 406Q642 420 656 420H685Q694 420 700 414T707 397V172H769Q777 172 782 167ZM648 172V343L521 172H648Z"
/>
<glyph unicode="&#xbd;" glyph-name="onehalf" horiz-adv-x="908" d="M251 280T225 280H104Q78 280 78 299V316Q78 335 104 335H135V571H81Q73 571 68 576T62 590V608Q62 616 67 621T81 626H114Q123 626 129 632T135 648V677Q135 687 141 693T158 700H172Q181
700 187 693T194 677V335H225Q251 335 251 316V299Q251 280 225 280ZM692 681T684 670L224 17Q218 8 213 4T199 0H167Q155 0 155 10Q155 19 163 30L623 683Q629 692 634 696T648 700H680Q692 700 692 690Q692 681 684 670ZM838 113T838 87V25Q838 15 831 8T813
0H569Q559 0 553 6T547 23V47Q547 81 557 105T591 151T664 204Q708 232 729 248T758 279T766 314Q766 340 745 357T689 374Q632 374 615 342Q626 331 626 314Q626 298 616 288T589 278Q571 278 560 290T549 322Q549 369 587 399T686 430Q747 430 786 398T825 315Q825
284 814 261T775 213T692 154Q655 131 639 117T615 90T606 56H783V87Q783 113 802 113H819Q838 113 838 87Z" />
<glyph unicode="&#xbe;" glyph-name="threequarters" horiz-adv-x="921" d="M371 342T330 306T219 270Q154 270 112 300T69 378Q69 398 80 410T109 422Q125 422 135 412T146 386Q146 372 136 360Q158 326 221 326Q263 326 287 347T312 404Q312 471 221 471H190Q183
471 178 476T172 489V508Q172 516 177 521T190 527H214Q258 527 278 541T298 586Q298 617 275 635T214 654Q187 654 168 646T141 621Q151 609 151 594Q151 578 141 568T114 558Q96 558 85 570T74 602Q74 649 113 679T214 710Q279 710 318 679T357 594Q357 535 306
505Q338 492 354 466T371 402Q371 342 330 306ZM767 681T759 670L299 17Q293 8 288 4T274 0H242Q230 0 230 10Q230 19 238 30L698 683Q704 692 709 696T723 700H755Q767 700 767 690Q767 681 759 670ZM852 172T857 167T863 153V135Q863 127 858 122T844 116H782V55H813Q839
55 839 36V19Q839 0 813 0H692Q666 0 666 19V36Q666 55 692 55H723V116H545Q537 116 532 121T526 135V148Q526 164 538 180L706 406Q717 420 731 420H760Q769 420 775 414T782 397V172H844Q852 172 857 167ZM723 172V343L596 172H723Z" />
<glyph unicode="&#xbf;" glyph-name="questiondown" horiz-adv-x="587" d="M270 368T254 384T238 424Q238 448 254 464T294 480Q318 480 334 464T350 424Q350 400 334 384T294 368Q270 368 254 384ZM479 -3T491 -18T504 -60Q504 -113 477 -154T399 -217T284 -240Q219
-240 168 -216T89 -148T60 -51Q60 -1 82 44T150 119T267 151V242Q267 255 275 264T296 273H297Q310 273 318 264T326 242V127Q326 96 297 96H283Q197 96 159 56T120 -49Q120 -112 162 -148T279 -185Q348 -185 390 -160T441 -88Q429 -83 422 -72T414 -46Q414 -28
426 -16T456 -3Q479 -3 491 -18Z" />
<glyph unicode="&#xc0;" glyph-name="Agrave" horiz-adv-x="766" d="M719 55T719 36V19Q719 0 693 0H570Q544 0 544 19V36Q544 55 570 55H601L530 231H234L165 55H196Q222 55 222 36V19Q222 0 196 0H73Q47 0 47 19V36Q47 55 73 55H104L349 682Q352 690 359 695T375
700H383Q391 700 398 696T408 683L662 55H693Q719 55 719 36ZM508 286L379 604L255 286H508ZM403 778T397 772T382 766Q374 766 365 775T321 828Q281 877 272 891T262 913Q262 928 272 936T297 944Q304 944 310 939T329 914T363 858Q386 820 394 804T403 783Q403
778 397 772Z" />
<glyph unicode="&#xc1;" glyph-name="Aacute" horiz-adv-x="766" d="M719 55T719 36V19Q719 0 693 0H570Q544 0 544 19V36Q544 55 570 55H601L530 231H234L165 55H196Q222 55 222 36V19Q222 0 196 0H73Q47 0 47 19V36Q47 55 73 55H104L349 682Q352 690 359 695T375
700H383Q391 700 398 696T408 683L662 55H693Q719 55 719 36ZM508 286L379 604L255 286H508ZM357 788T365 804T397 858Q417 893 430 913T450 939T463 944Q478 944 488 936T498 913Q498 905 489 891T439 828Q405 785 396 776T378 766Q369 766 363 772T357 783Q357
788 365 804Z" />
<glyph unicode="&#xc2;" glyph-name="Acircumflex" horiz-adv-x="766" d="M719 55T719 36V19Q719 0 693 0H570Q544 0 544 19V36Q544 55 570 55H601L530 231H234L165 55H196Q222 55 222 36V19Q222 0 196 0H73Q47 0 47 19V36Q47 55 73 55H104L349 682Q352 690 359
695T375 700H383Q391 700 398 696T408 683L662 55H693Q719 55 719 36ZM508 286L379 604L255 286H508ZM484 820T492 804T501 783Q501 778 495 772T480 766Q474 766 469 770T453 787L382 874L311 787Q300 774 295 770T284 766Q275 766 269 772T263 783Q263 788 271
804T303 858Q323 893 336 913T356 939T369 944H395Q402 944 408 939T427 914T461 858Q484 820 492 804Z" />
<glyph unicode="&#xc3;" glyph-name="Atilde" horiz-adv-x="766" d="M719 55T719 36V19Q719 0 693 0H570Q544 0 544 19V36Q544 55 570 55H601L530 231H234L165 55H196Q222 55 222 36V19Q222 0 196 0H73Q47 0 47 19V36Q47 55 73 55H104L349 682Q352 690 359 695T375
700H383Q391 700 398 696T408 683L662 55H693Q719 55 719 36ZM508 286L379 604L255 286H508ZM415 777T401 788T356 838Q342 857 334 864T318 871Q312 871 306 866T289 848Q255 805 246 796T228 786Q219 786 213 792T207 803Q207 810 211 818T235 857Q259 894 277
910T323 926Q347 926 361 915T406 865Q420 846 428 839T444 832Q450 832 456 837T473 855Q507 898 516 907T534 917Q543 917 549 911T555 900Q555 894 551 885T527 846Q503 809 485 793T439 777Q415 777 401 788Z" />
<glyph unicode="&#xc4;" glyph-name="Adieresis" horiz-adv-x="766" d="M719 55T719 36V19Q719 0 693 0H570Q544 0 544 19V36Q544 55 570 55H601L530 231H234L165 55H196Q222 55 222 36V19Q222 0 196 0H73Q47 0 47 19V36Q47 55 73 55H104L349 682Q352 690 359
695T375 700H383Q391 700 398 696T408 683L662 55H693Q719 55 719 36ZM508 286L379 604L255 286H508ZM270 791T257 805T243 839Q243 859 256 873T291 887Q311 887 324 873T338 839Q338 819 325 805T291 791Q270 791 257 805ZM449 791T436 805T422 839Q422 859 435
873T469 887Q490 887 503 873T517 839Q517 819 504 805T469 791Q449 791 436 805Z" />
<glyph unicode="&#xc5;" glyph-name="Aring" horiz-adv-x="766" d="M719 55T719 36V19Q719 0 693 0H570Q544 0 544 19V36Q544 55 570 55H601L530 231H234L165 55H196Q222 55 222 36V19Q222 0 196 0H73Q47 0 47 19V36Q47 55 73 55H104L347 676Q313 686 293 713T272
775Q272 820 303 849T380 879Q426 879 457 850T488 775Q488 739 467 712T411 675L662 55H693Q719 55 719 36ZM329 751T343 737T380 723Q403 723 417 737T431 775Q431 799 417 813T380 827Q357 827 343 813T329 775Q329 751 343 737ZM508 286L379 604L255 286H508Z"
/>
<glyph unicode="&#xc6;" glyph-name="AE" horiz-adv-x="999" d="M926 158T926 132V31Q926 18 917 9T895 0H479V231H234L165 55H196Q222 55 222 36V19Q222 0 196 0H73Q47 0 47 19V36Q47 55 73 55H104L349 682Q352 690 359 695T375 700H890Q903 700 912 691T921
669V588Q921 562 902 562H885Q866 562 866 588V645H538V390H791Q799 390 805 384T811 370V355Q811 347 805 341T791 335H538V55H871V132Q871 158 890 158H907Q926 158 926 132ZM479 286V645H395L255 286H479Z" />
<glyph unicode="&#xc7;" glyph-name="Ccedilla" horiz-adv-x="683" d="M598 174T607 167T616 149Q616 136 604 116Q532 0 395 -9L353 -82Q360 -81 377 -81Q426 -81 451 -104T477 -170Q477 -215 447 -239T363 -263H307Q291 -263 284 -257T276 -237V-235Q276 -208
307 -208H366Q417 -208 417 -171Q417 -151 406 -144T366 -136H308Q280 -136 280 -110Q280 -98 290 -81L334 -8Q213 5 146 100T78 350Q78 521 156 615T373 710Q438 710 494 686T583 620T616 530Q616 503 604 488T568 473Q550 473 538 485T526 516Q526 530 533 541T552
557Q539 601 488 628T373 655Q257 655 198 578T138 350Q138 204 197 125T371 45Q501 45 560 151Q567 164 573 169T587 174Q598 174 607 167Z" />
<glyph unicode="&#xc8;" glyph-name="Egrave" horiz-adv-x="644" d="M571 158T571 132V31Q571 18 562 9T540 0H93Q67 0 67 19V36Q67 55 93 55H124V645H93Q67 645 67 664V681Q67 700 93 700H535Q548 700 557 691T566 669V588Q566 562 547 562H530Q511 562 511 588V645H183V390H436Q444
390 450 384T456 370V355Q456 347 450 341T436 335H183V55H516V132Q516 158 535 158H552Q571 158 571 132ZM345 778T339 772T324 766Q316 766 307 775T263 828Q223 877 214 891T204 913Q204 928 214 936T239 944Q246 944 252 939T271 914T305 858Q328 820 336 804T345
783Q345 778 339 772Z" />
<glyph unicode="&#xc9;" glyph-name="Eacute" horiz-adv-x="644" d="M571 158T571 132V31Q571 18 562 9T540 0H93Q67 0 67 19V36Q67 55 93 55H124V645H93Q67 645 67 664V681Q67 700 93 700H535Q548 700 557 691T566 669V588Q566 562 547 562H530Q511 562 511 588V645H183V390H436Q444
390 450 384T456 370V355Q456 347 450 341T436 335H183V55H516V132Q516 158 535 158H552Q571 158 571 132ZM299 788T307 804T339 858Q359 893 372 913T392 939T405 944Q420 944 430 936T440 913Q440 905 431 891T381 828Q347 785 338 776T320 766Q311 766 305 772T299
783Q299 788 307 804Z" />
<glyph unicode="&#xca;" glyph-name="Ecircumflex" horiz-adv-x="644" d="M571 158T571 132V31Q571 18 562 9T540 0H93Q67 0 67 19V36Q67 55 93 55H124V645H93Q67 645 67 664V681Q67 700 93 700H535Q548 700 557 691T566 669V588Q566 562 547 562H530Q511 562
511 588V645H183V390H436Q444 390 450 384T456 370V355Q456 347 450 341T436 335H183V55H516V132Q516 158 535 158H552Q571 158 571 132ZM426 820T434 804T443 783Q443 778 437 772T422 766Q416 766 411 770T395 787L324 874L253 787Q242 774 237 770T226 766Q217
766 211 772T205 783Q205 788 213 804T245 858Q265 893 278 913T298 939T311 944H337Q344 944 350 939T369 914T403 858Q426 820 434 804Z" />
<glyph unicode="&#xcb;" glyph-name="Edieresis" horiz-adv-x="644" d="M571 158T571 132V31Q571 18 562 9T540 0H93Q67 0 67 19V36Q67 55 93 55H124V645H93Q67 645 67 664V681Q67 700 93 700H535Q548 700 557 691T566 669V588Q566 562 547 562H530Q511 562 511
588V645H183V390H436Q444 390 450 384T456 370V355Q456 347 450 341T436 335H183V55H516V132Q516 158 535 158H552Q571 158 571 132ZM212 791T199 805T185 839Q185 859 198 873T233 887Q253 887 266 873T280 839Q280 819 267 805T233 791Q212 791 199 805ZM391
791T378 805T364 839Q364 859 377 873T411 887Q432 887 445 873T459 839Q459 819 446 805T411 791Q391 791 378 805Z" />
<glyph unicode="&#xcc;" glyph-name="Igrave" horiz-adv-x="307" d="M67 0T67 19V36Q67 55 93 55H124V645H93Q67 645 67 664V681Q67 700 93 700H214Q240 700 240 681V664Q240 645 214 645H183V55H214Q240 55 240 36V19Q240 0 214 0H93Q67 0 67 19ZM177 778T171
772T156 766Q148 766 139 775T95 828Q55 877 46 891T36 913Q36 928 46 936T71 944Q78 944 84 939T103 914T137 858Q160 820 168 804T177 783Q177 778 171 772Z" />
<glyph unicode="&#xcd;" glyph-name="Iacute" horiz-adv-x="307" d="M67 0T67 19V36Q67 55 93 55H124V645H93Q67 645 67 664V681Q67 700 93 700H214Q240 700 240 681V664Q240 645 214 645H183V55H214Q240 55 240 36V19Q240 0 214 0H93Q67 0 67 19ZM131 788T139
804T171 858Q191 893 204 913T224 939T237 944Q252 944 262 936T272 913Q272 905 263 891T213 828Q179 785 170 776T152 766Q143 766 137 772T131 783Q131 788 139 804Z" />
<glyph unicode="&#xce;" glyph-name="Icircumflex" horiz-adv-x="307" d="M67 0T67 19V36Q67 55 93 55H124V645H93Q67 645 67 664V681Q67 700 93 700H214Q240 700 240 681V664Q240 645 214 645H183V55H214Q240 55 240 36V19Q240 0 214 0H93Q67 0 67 19ZM258 820T266
804T275 783Q275 778 269 772T254 766Q248 766 243 770T227 787L156 874L85 787Q74 774 69 770T58 766Q49 766 43 772T37 783Q37 788 45 804T77 858Q97 893 110 913T130 939T143 944H169Q176 944 182 939T201 914T235 858Q258 820 266 804Z" />
<glyph unicode="&#xcf;" glyph-name="Idieresis" horiz-adv-x="307" d="M67 0T67 19V36Q67 55 93 55H124V645H93Q67 645 67 664V681Q67 700 93 700H214Q240 700 240 681V664Q240 645 214 645H183V55H214Q240 55 240 36V19Q240 0 214 0H93Q67 0 67 19ZM44 791T31
805T17 839Q17 859 30 873T65 887Q85 887 98 873T112 839Q112 819 99 805T65 791Q44 791 31 805ZM223 791T210 805T196 839Q196 859 209 873T243 887Q264 887 277 873T291 839Q291 819 278 805T243 791Q223 791 210 805Z" />
<glyph unicode="&#xd0;" glyph-name="Eth" horiz-adv-x="740" d="M494 700T579 614T665 363Q665 252 624 170T507 44T327 0H113Q87 0 87 19V36Q87 55 113 55H144V328H88Q71 328 64 334T57 354V356Q57 383 88 383H144V645H113Q87 645 87 664V681Q87 700 113 700H333Q494
700 579 614ZM456 55T530 134T605 362Q605 505 537 575T327 645H203V383H371Q402 383 402 356V354Q402 341 395 335T371 328H203V55H317Q456 55 530 134Z" />
<glyph unicode="&#xd1;" glyph-name="Ntilde" horiz-adv-x="745" d="M684 700T684 681V664Q684 645 658 645H627V31Q627 18 619 9T598 0H582Q569 0 560 12L183 597V55H214Q240 55 240 36V19Q240 0 214 0H93Q67 0 67 19V36Q67 55 93 55H124V645H93Q67 645 67 664V681Q67
700 93 700H169Q182 700 191 688L568 103V645H537Q511 645 511 664V681Q511 700 537 700H658Q684 700 684 681ZM408 777T394 788T349 838Q335 857 327 864T311 871Q305 871 299 866T282 848Q248 805 239 796T221 786Q212 786 206 792T200 803Q200 810 204 818T228
857Q252 894 270 910T316 926Q340 926 354 915T399 865Q413 846 421 839T437 832Q443 832 449 837T466 855Q500 898 509 907T527 917Q536 917 542 911T548 900Q548 894 544 885T520 846Q496 809 478 793T432 777Q408 777 394 788Z" />
<glyph unicode="&#xd2;" glyph-name="Ograve" horiz-adv-x="766" d="M285 -10T217 33T113 155T76 341Q76 451 115 535T224 664T389 710Q481 710 549 668T653 546T690 360Q690 249 652 165T542 36T377 -10Q285 -10 217 33ZM496 45T563 128T630 360Q630 500 567
577T389 655Q271 655 204 572T136 341Q136 200 199 123T377 45Q496 45 563 128ZM406 778T400 772T385 766Q377 766 368 775T324 828Q284 877 275 891T265 913Q265 928 275 936T300 944Q307 944 313 939T332 914T366 858Q389 820 397 804T406 783Q406 778 400 772Z"
/>
<glyph unicode="&#xd3;" glyph-name="Oacute" horiz-adv-x="766" d="M285 -10T217 33T113 155T76 341Q76 451 115 535T224 664T389 710Q481 710 549 668T653 546T690 360Q690 249 652 165T542 36T377 -10Q285 -10 217 33ZM496 45T563 128T630 360Q630 500 567
577T389 655Q271 655 204 572T136 341Q136 200 199 123T377 45Q496 45 563 128ZM360 788T368 804T400 858Q420 893 433 913T453 939T466 944Q481 944 491 936T501 913Q501 905 492 891T442 828Q408 785 399 776T381 766Q372 766 366 772T360 783Q360 788 368 804Z"
/>
<glyph unicode="&#xd4;" glyph-name="Ocircumflex" horiz-adv-x="766" d="M285 -10T217 33T113 155T76 341Q76 451 115 535T224 664T389 710Q481 710 549 668T653 546T690 360Q690 249 652 165T542 36T377 -10Q285 -10 217 33ZM496 45T563 128T630 360Q630 500
567 577T389 655Q271 655 204 572T136 341Q136 200 199 123T377 45Q496 45 563 128ZM487 820T495 804T504 783Q504 778 498 772T483 766Q477 766 472 770T456 787L385 874L314 787Q303 774 298 770T287 766Q278 766 272 772T266 783Q266 788 274 804T306 858Q326
893 339 913T359 939T372 944H398Q405 944 411 939T430 914T464 858Q487 820 495 804Z" />
<glyph unicode="&#xd5;" glyph-name="Otilde" horiz-adv-x="766" d="M285 -10T217 33T113 155T76 341Q76 451 115 535T224 664T389 710Q481 710 549 668T653 546T690 360Q690 249 652 165T542 36T377 -10Q285 -10 217 33ZM496 45T563 128T630 360Q630 500 567
577T389 655Q271 655 204 572T136 341Q136 200 199 123T377 45Q496 45 563 128ZM418 777T404 788T359 838Q345 857 337 864T321 871Q315 871 309 866T292 848Q258 805 249 796T231 786Q222 786 216 792T210 803Q210 810 214 818T238 857Q262 894 280 910T326 926Q350
926 364 915T409 865Q423 846 431 839T447 832Q453 832 459 837T476 855Q510 898 519 907T537 917Q546 917 552 911T558 900Q558 894 554 885T530 846Q506 809 488 793T442 777Q418 777 404 788Z" />
<glyph unicode="&#xd6;" glyph-name="Odieresis" horiz-adv-x="766" d="M285 -10T217 33T113 155T76 341Q76 451 115 535T224 664T389 710Q481 710 549 668T653 546T690 360Q690 249 652 165T542 36T377 -10Q285 -10 217 33ZM496 45T563 128T630 360Q630 500 567
577T389 655Q271 655 204 572T136 341Q136 200 199 123T377 45Q496 45 563 128ZM273 791T260 805T246 839Q246 859 259 873T294 887Q314 887 327 873T341 839Q341 819 328 805T294 791Q273 791 260 805ZM452 791T439 805T425 839Q425 859 438 873T472 887Q493 887
506 873T520 839Q520 819 507 805T472 791Q452 791 439 805Z" />
<glyph unicode="&#xd7;" glyph-name="multiply" horiz-adv-x="551" d="M448 199Q460 187 460 176Q460 167 451 158T432 148Q421 148 409 160L276 294L142 160Q130 148 119 148Q109 148 100 157T91 176Q91 187 103 199L237 333L103 466Q91 478 91 489Q91 498 100
507T119 517Q130 517 142 505L276 372L409 505Q421 517 432 517Q442 517 451 508T460 489Q460 478 448 466L315 333L448 199Z" />
<glyph unicode="&#xd8;" glyph-name="Oslash" horiz-adv-x="767" d="M623 597Q690 505 690 360Q690 249 652 165T542 36T377 -10Q259 -10 182 59L148 17Q141 8 135 4T120 0H89Q77 0 77 10Q77 20 86 31L144 102Q76 193 76 341Q76 451 115 535T224 664T389 710Q507
710 585 640L620 683Q627 692 633 696T648 700H679Q691 700 691 690Q691 680 682 669L623 597ZM136 222T181 148L549 597Q488 655 389 655Q271 655 204 572T136 341Q136 222 181 148ZM630 479T585 551L218 102Q280 45 377 45Q496 45 563 128T630 360Q630 479 585
551Z" />
<glyph unicode="&#xd9;" glyph-name="Ugrave" horiz-adv-x="732" d="M675 700T675 681V664Q675 645 649 645H618V298Q618 146 554 68T366 -10Q242 -10 178 64T114 279V645H83Q57 645 57 664V681Q57 700 83 700H204Q230 700 230 681V664Q230 645 204 645H173V279Q173
159 219 102T366 45Q466 45 512 106T559 298V645H528Q502 645 502 664V681Q502 700 528 700H649Q675 700 675 681ZM389 778T383 772T368 766Q360 766 351 775T307 828Q267 877 258 891T248 913Q248 928 258 936T283 944Q290 944 296 939T315 914T349 858Q372 820
380 804T389 783Q389 778 383 772Z" />
<glyph unicode="&#xda;" glyph-name="Uacute" horiz-adv-x="732" d="M675 700T675 681V664Q675 645 649 645H618V298Q618 146 554 68T366 -10Q242 -10 178 64T114 279V645H83Q57 645 57 664V681Q57 700 83 700H204Q230 700 230 681V664Q230 645 204 645H173V279Q173
159 219 102T366 45Q466 45 512 106T559 298V645H528Q502 645 502 664V681Q502 700 528 700H649Q675 700 675 681ZM343 788T351 804T383 858Q403 893 416 913T436 939T449 944Q464 944 474 936T484 913Q484 905 475 891T425 828Q391 785 382 776T364 766Q355 766
349 772T343 783Q343 788 351 804Z" />
<glyph unicode="&#xdb;" glyph-name="Ucircumflex" horiz-adv-x="732" d="M675 700T675 681V664Q675 645 649 645H618V298Q618 146 554 68T366 -10Q242 -10 178 64T114 279V645H83Q57 645 57 664V681Q57 700 83 700H204Q230 700 230 681V664Q230 645 204 645H173V279Q173
159 219 102T366 45Q466 45 512 106T559 298V645H528Q502 645 502 664V681Q502 700 528 700H649Q675 700 675 681ZM470 820T478 804T487 783Q487 778 481 772T466 766Q460 766 455 770T439 787L368 874L297 787Q286 774 281 770T270 766Q261 766 255 772T249 783Q249
788 257 804T289 858Q309 893 322 913T342 939T355 944H381Q388 944 394 939T413 914T447 858Q470 820 478 804Z" />
<glyph unicode="&#xdc;" glyph-name="Udieresis" horiz-adv-x="732" d="M675 700T675 681V664Q675 645 649 645H618V298Q618 146 554 68T366 -10Q242 -10 178 64T114 279V645H83Q57 645 57 664V681Q57 700 83 700H204Q230 700 230 681V664Q230 645 204 645H173V279Q173
159 219 102T366 45Q466 45 512 106T559 298V645H528Q502 645 502 664V681Q502 700 528 700H649Q675 700 675 681ZM256 791T243 805T229 839Q229 859 242 873T277 887Q297 887 310 873T324 839Q324 819 311 805T277 791Q256 791 243 805ZM435 791T422 805T408 839Q408
859 421 873T455 887Q476 887 489 873T503 839Q503 819 490 805T455 791Q435 791 422 805Z" />
<glyph unicode="&#xdd;" glyph-name="Yacute" horiz-adv-x="723" d="M676 700T676 681V664Q676 645 650 645H619L391 270V55H422Q448 55 448 36V19Q448 0 422 0H301Q275 0 275 19V36Q275 55 301 55H332V270L104 645H73Q47 645 47 664V681Q47 700 73 700H201Q227
700 227 681V664Q227 645 201 645H170L362 330L553 645H522Q496 645 496 664V681Q496 700 522 700H650Q676 700 676 681ZM339 788T347 804T379 858Q399 893 412 913T432 939T445 944Q460 944 470 936T480 913Q480 905 471 891T421 828Q387 785 378 776T360 766Q351
766 345 772T339 783Q339 788 347 804Z" />
<glyph unicode="&#xde;" glyph-name="Thorn" horiz-adv-x="629" d="M434 608T500 557T566 407Q566 305 495 250T291 195H183V55H214Q240 55 240 36V19Q240 0 214 0H93Q67 0 67 19V36Q67 55 93 55H124V645H93Q67 645 67 664V681Q67 700 93 700H152Q165 700 174
691T183 669V608H304Q434 608 500 557ZM402 250T454 286T506 406Q506 483 458 518T303 553H183V250H282Q402 250 454 286Z" />
<glyph unicode="&#xdf;" glyph-name="germandbls" horiz-adv-x="598" d="M364 391T375 383T412 363Q452 344 479 325T528 271T549 183Q549 97 499 44T366 -10Q306 -10 264 21T221 100Q221 127 233 142T269 157Q287 157 299 145T311 114Q311 101 305 91T289 75Q299
61 320 53T366 45Q425 45 457 80T489 176Q489 216 474 243T436 285T379 319Q341 338 323 354T304 398Q304 419 315 437T347 480Q374 512 387 536T401 595Q401 642 371 668T286 695Q220 695 189 656T158 535V31Q158 18 150 9T129 0H68Q42 0 42 19V36Q42 55 68 55H99V543Q99
639 148 694T286 750Q337 750 376 730T438 675T461 596Q461 552 443 520T393 447Q377 428 371 419T364 401Q364 391 375 383Z" />
<glyph unicode="&#xe0;" glyph-name="agrave" horiz-adv-x="539" d="M502 55T502 36V19Q502 0 476 0H416Q403 0 395 9T386 31V103Q367 55 317 23T212 -10Q141 -10 98 30T54 137Q54 204 100 242T229 281Q304 281 386 263V312Q386 386 353 420T247 455Q212 455 187
447T151 423Q169 410 169 387Q169 369 157 357T127 344Q104 344 92 359T79 401Q79 448 128 479T253 510Q345 510 395 459T445 315V55H476Q502 55 502 36ZM264 45T302 68T363 131T386 217V218Q334 226 237 226Q175 226 143 204T111 138Q111 94 139 70T219 45Q264
45 302 68ZM278 578T272 572T257 566Q249 566 240 575T196 628Q156 677 147 691T137 713Q137 728 147 736T172 744Q179 744 185 739T204 714T238 658Q261 620 269 604T278 583Q278 578 272 572Z" />
<glyph unicode="&#xe1;" glyph-name="aacute" horiz-adv-x="539" d="M502 55T502 36V19Q502 0 476 0H416Q403 0 395 9T386 31V103Q367 55 317 23T212 -10Q141 -10 98 30T54 137Q54 204 100 242T229 281Q304 281 386 263V312Q386 386 353 420T247 455Q212 455 187
447T151 423Q169 410 169 387Q169 369 157 357T127 344Q104 344 92 359T79 401Q79 448 128 479T253 510Q345 510 395 459T445 315V55H476Q502 55 502 36ZM264 45T302 68T363 131T386 217V218Q334 226 237 226Q175 226 143 204T111 138Q111 94 139 70T219 45Q264
45 302 68ZM232 588T240 604T272 658Q292 693 305 713T325 739T338 744Q353 744 363 736T373 713Q373 705 364 691T314 628Q280 585 271 576T253 566Q244 566 238 572T232 583Q232 588 240 604Z" />
<glyph unicode="&#xe2;" glyph-name="acircumflex" horiz-adv-x="539" d="M502 55T502 36V19Q502 0 476 0H416Q403 0 395 9T386 31V103Q367 55 317 23T212 -10Q141 -10 98 30T54 137Q54 204 100 242T229 281Q304 281 386 263V312Q386 386 353 420T247 455Q212
455 187 447T151 423Q169 410 169 387Q169 369 157 357T127 344Q104 344 92 359T79 401Q79 448 128 479T253 510Q345 510 395 459T445 315V55H476Q502 55 502 36ZM264 45T302 68T363 131T386 217V218Q334 226 237 226Q175 226 143 204T111 138Q111 94 139 70T219
45Q264 45 302 68ZM359 620T367 604T376 583Q376 578 370 572T355 566Q349 566 344 570T328 587L257 674L186 587Q175 574 170 570T159 566Q150 566 144 572T138 583Q138 588 146 604T178 658Q198 693 211 713T231 739T244 744H270Q277 744 283 739T302 714T336
658Q359 620 367 604Z" />
<glyph unicode="&#xe3;" glyph-name="atilde" horiz-adv-x="539" d="M502 55T502 36V19Q502 0 476 0H416Q403 0 395 9T386 31V103Q367 55 317 23T212 -10Q141 -10 98 30T54 137Q54 204 100 242T229 281Q304 281 386 263V312Q386 386 353 420T247 455Q212 455 187
447T151 423Q169 410 169 387Q169 369 157 357T127 344Q104 344 92 359T79 401Q79 448 128 479T253 510Q345 510 395 459T445 315V55H476Q502 55 502 36ZM264 45T302 68T363 131T386 217V218Q334 226 237 226Q175 226 143 204T111 138Q111 94 139 70T219 45Q264
45 302 68ZM290 577T276 588T231 638Q217 657 209 664T193 671Q187 671 181 666T164 648Q130 605 121 596T103 586Q94 586 88 592T82 603Q82 610 86 618T110 657Q134 694 152 710T198 726Q222 726 236 715T281 665Q295 646 303 639T319 632Q325 632 331 637T348
655Q382 698 391 707T409 717Q418 717 424 711T430 700Q430 694 426 685T402 646Q378 609 360 593T314 577Q290 577 276 588Z" />
<glyph unicode="&#xe4;" glyph-name="adieresis" horiz-adv-x="539" d="M502 55T502 36V19Q502 0 476 0H416Q403 0 395 9T386 31V103Q367 55 317 23T212 -10Q141 -10 98 30T54 137Q54 204 100 242T229 281Q304 281 386 263V312Q386 386 353 420T247 455Q212 455
187 447T151 423Q169 410 169 387Q169 369 157 357T127 344Q104 344 92 359T79 401Q79 448 128 479T253 510Q345 510 395 459T445 315V55H476Q502 55 502 36ZM264 45T302 68T363 131T386 217V218Q334 226 237 226Q175 226 143 204T111 138Q111 94 139 70T219 45Q264
45 302 68ZM145 591T132 605T118 639Q118 659 131 673T166 687Q186 687 199 673T213 639Q213 619 200 605T166 591Q145 591 132 605ZM324 591T311 605T297 639Q297 659 310 673T344 687Q365 687 378 673T392 639Q392 619 379 605T344 591Q324 591 311 605Z" />
<glyph unicode="&#xe5;" glyph-name="aring" horiz-adv-x="539" d="M502 55T502 36V19Q502 0 476 0H416Q403 0 395 9T386 31V103Q367 55 317 23T212 -10Q141 -10 98 30T54 137Q54 204 100 242T229 281Q304 281 386 263V312Q386 386 353 420T247 455Q212 455 187
447T151 423Q169 410 169 387Q169 369 157 357T127 344Q104 344 92 359T79 401Q79 448 128 479T253 510Q345 510 395 459T445 315V55H476Q502 55 502 36ZM264 45T302 68T363 131T386 217V218Q334 226 237 226Q175 226 143 204T111 138Q111 94 139 70T219 45Q264
45 302 68ZM209 566T178 595T147 670Q147 715 178 744T255 774Q301 774 332 745T363 670Q363 625 332 596T255 566Q209 566 178 595ZM278 618T292 632T306 670Q306 694 292 708T255 722Q232 722 218 708T204 670Q204 646 218 632T255 618Q278 618 292 632Z" />
<glyph unicode="&#xe6;" glyph-name="ae" horiz-adv-x="881" d="M825 263T823 237H446Q451 147 495 96T613 45Q665 45 695 62T750 123Q757 136 763 141T777 146Q788 146 797 139T806 121Q806 108 794 88Q763 36 721 13T613 -10Q543 -10 490 26T410 127Q389 64
337 27T215 -10Q140 -10 97 28T54 134Q54 201 101 241T227 281Q292 281 386 254V324Q386 391 354 423T253 455Q219 455 191 444T151 414Q169 401 169 377Q169 359 157 347T127 334Q104 334 92 349T79 391Q79 423 103 450T169 494T259 510Q322 510 365 486T429 415Q459
461 506 485T613 510Q712 510 768 448T825 275Q825 263 823 237ZM542 455T499 413T448 292H765Q762 374 725 414T613 455Q542 455 499 413ZM263 45T300 67T361 128T386 212Q286 226 237 226Q176 226 144 203T111 135Q111 91 138 68T219 45Q263 45 300 67Z" />
<glyph unicode="&#xe7;" glyph-name="ccedilla" horiz-adv-x="534" d="M460 146T469 139T478 121Q478 108 466 88Q438 42 402 19T314 -9L271 -82Q278 -81 295 -81Q344 -81 369 -104T395 -170Q395 -215 365 -239T281 -263H225Q209 -263 202 -257T194 -237V-235Q194
-208 225 -208H284Q335 -208 335 -171Q335 -151 324 -144T284 -136H226Q198 -136 198 -110Q198 -98 208 -81L252 -8Q164 4 111 75T58 255Q58 331 86 389T165 478T285 510Q372 510 425 467T478 352Q478 325 466 310T430 295Q412 295 400 307T388 338Q388 352 395
363T415 379Q405 415 371 435T285 455Q205 455 162 403T118 255Q118 157 162 101T285 45Q337 45 367 62T422 123Q429 136 435 141T449 146Q460 146 469 139Z" />
<glyph unicode="&#xe8;" glyph-name="egrave" horiz-adv-x="554" d="M497 263T495 237H118Q123 147 167 96T285 45Q337 45 367 62T422 123Q429 136 435 141T449 146Q460 146 469 139T478 121Q478 108 466 88Q435 36 393 13T285 -10Q218 -10 167 23T87 117T58 255Q58
331 86 389T165 478T285 510Q384 510 440 448T497 275Q497 263 495 237ZM214 455T171 413T120 292H437Q434 374 397 414T285 455Q214 455 171 413ZM301 578T295 572T280 566Q272 566 263 575T219 628Q179 677 170 691T160 713Q160 728 170 736T195 744Q202 744
208 739T227 714T261 658Q284 620 292 604T301 583Q301 578 295 572Z" />
<glyph unicode="&#xe9;" glyph-name="eacute" horiz-adv-x="554" d="M497 263T495 237H118Q123 147 167 96T285 45Q337 45 367 62T422 123Q429 136 435 141T449 146Q460 146 469 139T478 121Q478 108 466 88Q435 36 393 13T285 -10Q218 -10 167 23T87 117T58 255Q58
331 86 389T165 478T285 510Q384 510 440 448T497 275Q497 263 495 237ZM214 455T171 413T120 292H437Q434 374 397 414T285 455Q214 455 171 413ZM255 588T263 604T295 658Q315 693 328 713T348 739T361 744Q376 744 386 736T396 713Q396 705 387 691T337 628Q303
585 294 576T276 566Q267 566 261 572T255 583Q255 588 263 604Z" />
<glyph unicode="&#xea;" glyph-name="ecircumflex" horiz-adv-x="554" d="M497 263T495 237H118Q123 147 167 96T285 45Q337 45 367 62T422 123Q429 136 435 141T449 146Q460 146 469 139T478 121Q478 108 466 88Q435 36 393 13T285 -10Q218 -10 167 23T87 117T58
255Q58 331 86 389T165 478T285 510Q384 510 440 448T497 275Q497 263 495 237ZM214 455T171 413T120 292H437Q434 374 397 414T285 455Q214 455 171 413ZM382 620T390 604T399 583Q399 578 393 572T378 566Q372 566 367 570T351 587L280 674L209 587Q198 574 193
570T182 566Q173 566 167 572T161 583Q161 588 169 604T201 658Q221 693 234 713T254 739T267 744H293Q300 744 306 739T325 714T359 658Q382 620 390 604Z" />
<glyph unicode="&#xeb;" glyph-name="edieresis" horiz-adv-x="554" d="M497 263T495 237H118Q123 147 167 96T285 45Q337 45 367 62T422 123Q429 136 435 141T449 146Q460 146 469 139T478 121Q478 108 466 88Q435 36 393 13T285 -10Q218 -10 167 23T87 117T58
255Q58 331 86 389T165 478T285 510Q384 510 440 448T497 275Q497 263 495 237ZM214 455T171 413T120 292H437Q434 374 397 414T285 455Q214 455 171 413ZM168 591T155 605T141 639Q141 659 154 673T189 687Q209 687 222 673T236 639Q236 619 223 605T189 591Q168
591 155 605ZM347 591T334 605T320 639Q320 659 333 673T367 687Q388 687 401 673T415 639Q415 619 402 605T367 591Q347 591 334 605Z" />
<glyph unicode="&#xec;" glyph-name="igrave" horiz-adv-x="264" d="M50 0T50 19V36Q50 55 76 55H107V445H76Q50 445 50 464V481Q50 500 76 500H135Q148 500 157 491T166 469V55H197Q223 55 223 36V19Q223 0 197 0H76Q50 0 50 19ZM142 578T136 572T121 566Q113
566 104 575T60 628Q20 677 11 691T1 713Q1 728 11 736T36 744Q43 744 49 739T68 714T102 658Q125 620 133 604T142 583Q142 578 136 572Z" />
<glyph unicode="&#xed;" glyph-name="iacute" horiz-adv-x="264" d="M50 0T50 19V36Q50 55 76 55H107V445H76Q50 445 50 464V481Q50 500 76 500H135Q148 500 157 491T166 469V55H197Q223 55 223 36V19Q223 0 197 0H76Q50 0 50 19ZM96 588T104 604T136 658Q156
693 169 713T189 739T202 744Q217 744 227 736T237 713Q237 705 228 691T178 628Q144 585 135 576T117 566Q108 566 102 572T96 583Q96 588 104 604Z" />
<glyph unicode="&#xee;" glyph-name="icircumflex" horiz-adv-x="264" d="M50 0T50 19V36Q50 55 76 55H107V445H76Q50 445 50 464V481Q50 500 76 500H135Q148 500 157 491T166 469V55H197Q223 55 223 36V19Q223 0 197 0H76Q50 0 50 19ZM223 620T231 604T240 583Q240
578 234 572T219 566Q213 566 208 570T192 587L121 674L50 587Q39 574 34 570T23 566Q14 566 8 572T2 583Q2 588 10 604T42 658Q62 693 75 713T95 739T108 744H134Q141 744 147 739T166 714T200 658Q223 620 231 604Z" />
<glyph unicode="&#xef;" glyph-name="idieresis" horiz-adv-x="264" d="M50 0T50 19V36Q50 55 76 55H107V445H76Q50 445 50 464V481Q50 500 76 500H135Q148 500 157 491T166 469V55H197Q223 55 223 36V19Q223 0 197 0H76Q50 0 50 19ZM9 591T-4 605T-18 639Q-18
659 -5 673T30 687Q50 687 63 673T77 639Q77 619 64 605T30 591Q9 591 -4 605ZM188 591T175 605T161 639Q161 659 174 673T208 687Q229 687 242 673T256 639Q256 619 243 605T208 591Q188 591 175 605Z" />
<glyph unicode="&#xf0;" glyph-name="eth" horiz-adv-x="584" d="M521 469T521 274Q521 188 492 124T410 25T289 -10Q221 -10 168 22T86 113T57 246Q57 323 86 383T168 476T289 510Q360 510 405 472Q368 535 293 602L184 541Q178 538 174 538Q164 538 156 549T147
571Q147 583 158 589L248 639Q210 668 159 702Q151 707 151 718Q151 727 160 738T181 750Q190 750 200 744Q255 710 304 670L397 722Q403 725 407 725Q417 725 425 714T434 692Q434 680 423 674L348 632Q521 469 521 274ZM368 45T414 101T461 254Q461 349 416 402T289
455Q209 455 163 399T117 246Q117 151 162 98T289 45Q368 45 414 101Z" />
<glyph unicode="&#xf1;" glyph-name="ntilde" horiz-adv-x="597" d="M560 55T560 36V19Q560 0 534 0H413Q387 0 387 19V36Q387 55 413 55H444V275Q444 342 434 381T399 437T333 455Q291 455 253 427T190 354T166 261V55H197Q223 55 223 36V19Q223 0 197 0H76Q50
0 50 19V36Q50 55 76 55H107V445H76Q50 445 50 464V481Q50 500 76 500H135Q148 500 157 491T166 469V381Q189 437 239 473T343 510Q425 510 464 453T503 275V55H534Q560 55 560 36ZM334 577T320 588T275 638Q261 657 253 664T237 671Q231 671 225 666T208 648Q174
605 165 596T147 586Q138 586 132 592T126 603Q126 610 130 618T154 657Q178 694 196 710T242 726Q266 726 280 715T325 665Q339 646 347 639T363 632Q369 632 375 637T392 655Q426 698 435 707T453 717Q462 717 468 711T474 700Q474 694 470 685T446 646Q422 609
404 593T358 577Q334 577 320 588Z" />
<glyph unicode="&#xf2;" glyph-name="ograve" horiz-adv-x="578" d="M221 -10T168 22T86 113T57 246Q57 323 86 383T168 476T289 510Q357 510 410 478T492 387T521 254Q521 177 492 117T410 24T289 -10Q221 -10 168 22ZM369 45T415 101T461 254Q461 349 416 402T289
455Q209 455 163 399T117 246Q117 151 162 98T289 45Q369 45 415 101ZM312 578T306 572T291 566Q283 566 274 575T230 628Q190 677 181 691T171 713Q171 728 181 736T206 744Q213 744 219 739T238 714T272 658Q295 620 303 604T312 583Q312 578 306 572Z" />
<glyph unicode="&#xf3;" glyph-name="oacute" horiz-adv-x="578" d="M221 -10T168 22T86 113T57 246Q57 323 86 383T168 476T289 510Q357 510 410 478T492 387T521 254Q521 177 492 117T410 24T289 -10Q221 -10 168 22ZM369 45T415 101T461 254Q461 349 416 402T289
455Q209 455 163 399T117 246Q117 151 162 98T289 45Q369 45 415 101ZM266 588T274 604T306 658Q326 693 339 713T359 739T372 744Q387 744 397 736T407 713Q407 705 398 691T348 628Q314 585 305 576T287 566Q278 566 272 572T266 583Q266 588 274 604Z" />
<glyph unicode="&#xf4;" glyph-name="ocircumflex" horiz-adv-x="578" d="M221 -10T168 22T86 113T57 246Q57 323 86 383T168 476T289 510Q357 510 410 478T492 387T521 254Q521 177 492 117T410 24T289 -10Q221 -10 168 22ZM369 45T415 101T461 254Q461 349 416
402T289 455Q209 455 163 399T117 246Q117 151 162 98T289 45Q369 45 415 101ZM393 620T401 604T410 583Q410 578 404 572T389 566Q383 566 378 570T362 587L291 674L220 587Q209 574 204 570T193 566Q184 566 178 572T172 583Q172 588 180 604T212 658Q232 693
245 713T265 739T278 744H304Q311 744 317 739T336 714T370 658Q393 620 401 604Z" />
<glyph unicode="&#xf5;" glyph-name="otilde" horiz-adv-x="578" d="M221 -10T168 22T86 113T57 246Q57 323 86 383T168 476T289 510Q357 510 410 478T492 387T521 254Q521 177 492 117T410 24T289 -10Q221 -10 168 22ZM369 45T415 101T461 254Q461 349 416 402T289
455Q209 455 163 399T117 246Q117 151 162 98T289 45Q369 45 415 101ZM324 577T310 588T265 638Q251 657 243 664T227 671Q221 671 215 666T198 648Q164 605 155 596T137 586Q128 586 122 592T116 603Q116 610 120 618T144 657Q168 694 186 710T232 726Q256 726
270 715T315 665Q329 646 337 639T353 632Q359 632 365 637T382 655Q416 698 425 707T443 717Q452 717 458 711T464 700Q464 694 460 685T436 646Q412 609 394 593T348 577Q324 577 310 588Z" />
<glyph unicode="&#xf6;" glyph-name="odieresis" horiz-adv-x="578" d="M221 -10T168 22T86 113T57 246Q57 323 86 383T168 476T289 510Q357 510 410 478T492 387T521 254Q521 177 492 117T410 24T289 -10Q221 -10 168 22ZM369 45T415 101T461 254Q461 349 416
402T289 455Q209 455 163 399T117 246Q117 151 162 98T289 45Q369 45 415 101ZM179 591T166 605T152 639Q152 659 165 673T200 687Q220 687 233 673T247 639Q247 619 234 605T200 591Q179 591 166 605ZM358 591T345 605T331 639Q331 659 344 673T378 687Q399 687
412 673T426 639Q426 619 413 605T378 591Q358 591 345 605Z" />
<glyph unicode="&#xf7;" glyph-name="divide" horiz-adv-x="616" d="M283 430T267 446T251 486Q251 510 267 526T307 542Q331 542 347 526T363 486Q363 462 347 446T307 430Q283 430 267 446ZM93 305T86 311T79 331V333Q79 360 110 360H504Q535 360 535 333V331Q535
318 528 312T504 305H110Q93 305 86 311ZM283 123T267 139T251 179Q251 203 267 219T307 235Q331 235 347 219T363 179Q363 155 347 139T307 123Q283 123 267 139Z" />
<glyph unicode="&#xf8;" glyph-name="oslash" horiz-adv-x="578" d="M471 422Q521 353 521 254Q521 177 492 117T410 24T289 -10Q206 -10 146 37L129 17Q114 0 99 0H70Q57 0 57 11Q57 20 66 30L107 78Q57 147 57 246Q57 323 86 383T168 476T289 510Q372 510 432
463L449 483Q464 500 479 500H508Q521 500 521 489Q521 481 512 470L471 422ZM117 173T145 123L397 421Q354 455 289 455Q209 455 163 399T117 246Q117 173 145 123ZM461 327T433 377L181 79Q224 45 289 45Q369 45 415 101T461 254Q461 327 433 377Z" />
<glyph unicode="&#xf9;" glyph-name="ugrave" horiz-adv-x="582" d="M541 55T541 36V19Q541 0 515 0H456Q443 0 434 9T425 31V119Q402 62 354 26T251 -10Q169 -10 132 46T94 225V445H63Q37 445 37 464V481Q37 500 63 500H124Q136 500 144 491T153 469V225Q153
157 163 118T197 62T261 45Q302 45 340 73T401 146T425 239V445H394Q368 445 368 464V481Q368 500 394 500H455Q468 500 476 491T484 469V55H515Q541 55 541 36ZM296 578T290 572T275 566Q267 566 258 575T214 628Q174 677 165 691T155 713Q155 728 165 736T190
744Q197 744 203 739T222 714T256 658Q279 620 287 604T296 583Q296 578 290 572Z" />
<glyph unicode="&#xfa;" glyph-name="uacute" horiz-adv-x="582" d="M541 55T541 36V19Q541 0 515 0H456Q443 0 434 9T425 31V119Q402 62 354 26T251 -10Q169 -10 132 46T94 225V445H63Q37 445 37 464V481Q37 500 63 500H124Q136 500 144 491T153 469V225Q153
157 163 118T197 62T261 45Q302 45 340 73T401 146T425 239V445H394Q368 445 368 464V481Q368 500 394 500H455Q468 500 476 491T484 469V55H515Q541 55 541 36ZM250 588T258 604T290 658Q310 693 323 713T343 739T356 744Q371 744 381 736T391 713Q391 705 382
691T332 628Q298 585 289 576T271 566Q262 566 256 572T250 583Q250 588 258 604Z" />
<glyph unicode="&#xfb;" glyph-name="ucircumflex" horiz-adv-x="582" d="M541 55T541 36V19Q541 0 515 0H456Q443 0 434 9T425 31V119Q402 62 354 26T251 -10Q169 -10 132 46T94 225V445H63Q37 445 37 464V481Q37 500 63 500H124Q136 500 144 491T153 469V225Q153
157 163 118T197 62T261 45Q302 45 340 73T401 146T425 239V445H394Q368 445 368 464V481Q368 500 394 500H455Q468 500 476 491T484 469V55H515Q541 55 541 36ZM377 620T385 604T394 583Q394 578 388 572T373 566Q367 566 362 570T346 587L275 674L204 587Q193
574 188 570T177 566Q168 566 162 572T156 583Q156 588 164 604T196 658Q216 693 229 713T249 739T262 744H288Q295 744 301 739T320 714T354 658Q377 620 385 604Z" />
<glyph unicode="&#xfc;" glyph-name="udieresis" horiz-adv-x="582" d="M541 55T541 36V19Q541 0 515 0H456Q443 0 434 9T425 31V119Q402 62 354 26T251 -10Q169 -10 132 46T94 225V445H63Q37 445 37 464V481Q37 500 63 500H124Q136 500 144 491T153 469V225Q153
157 163 118T197 62T261 45Q302 45 340 73T401 146T425 239V445H394Q368 445 368 464V481Q368 500 394 500H455Q468 500 476 491T484 469V55H515Q541 55 541 36ZM163 591T150 605T136 639Q136 659 149 673T184 687Q204 687 217 673T231 639Q231 619 218 605T184
591Q163 591 150 605ZM342 591T329 605T315 639Q315 659 328 673T362 687Q383 687 396 673T410 639Q410 619 397 605T362 591Q342 591 329 605Z" />
<glyph unicode="&#xfd;" glyph-name="yacute" horiz-adv-x="564" d="M537 500T537 481V464Q537 445 511 445H480L267 -105Q238 -181 207 -210T125 -240Q86 -240 61 -218T36 -163Q36 -141 49 -127T84 -113Q102 -113 114 -125T126 -156Q126 -168 117 -182Q122 -185
132 -185Q156 -185 173 -166T209 -99L252 13L84 445H53Q27 445 27 464V481Q27 500 53 500H174Q200 500 200 481V464Q200 445 174 445H145L283 89L419 445H390Q364 445 364 464V481Q364 500 390 500H511Q537 500 537 481ZM259 588T267 604T299 658Q319 693 332 713T352
739T365 744Q380 744 390 736T400 713Q400 705 391 691T341 628Q307 585 298 576T280 566Q271 566 265 572T259 583Q259 588 267 604Z" />
<glyph unicode="&#xfe;" glyph-name="thorn" horiz-adv-x="580" d="M378 510T424 479T495 389T520 253Q520 173 494 114T418 22T303 -10Q258 -10 217 13T149 75V-175H180Q206 -175 206 -194V-211Q206 -230 180 -230H59Q33 -230 33 -211V-194Q33 -175 59 -175H90V685H59Q33
685 33 704V721Q33 740 59 740H120Q133 740 141 731T149 709V398Q168 446 215 478T317 510Q378 510 424 479ZM379 45T419 100T460 262Q460 354 421 404T310 455Q266 455 229 432T171 370T149 283V134Q181 90 220 68T302 45Q379 45 419 100Z" />
<glyph unicode="&#xff;" glyph-name="ydieresis" horiz-adv-x="564" d="M537 500T537 481V464Q537 445 511 445H480L267 -105Q238 -181 207 -210T125 -240Q86 -240 61 -218T36 -163Q36 -141 49 -127T84 -113Q102 -113 114 -125T126 -156Q126 -168 117 -182Q122
-185 132 -185Q156 -185 173 -166T209 -99L252 13L84 445H53Q27 445 27 464V481Q27 500 53 500H174Q200 500 200 481V464Q200 445 174 445H145L283 89L419 445H390Q364 445 364 464V481Q364 500 390 500H511Q537 500 537 481ZM172 591T159 605T145 639Q145 659
158 673T193 687Q213 687 226 673T240 639Q240 619 227 605T193 591Q172 591 159 605ZM351 591T338 605T324 639Q324 659 337 673T371 687Q392 687 405 673T419 639Q419 619 406 605T371 591Q351 591 338 605Z" />
<glyph unicode="&#x2013;" glyph-name="endash" horiz-adv-x="634" d="M100 305T93 311T86 331V333Q86 360 117 360H517Q548 360 548 333V331Q548 318 541 312T517 305H117Q100 305 93 311Z" />
<glyph unicode="&#x2014;" glyph-name="emdash" horiz-adv-x="783" d="M100 305T93 311T86 331V333Q86 360 117 360H666Q697 360 697 333V331Q697 318 690 312T666 305H117Q100 305 93 311Z" />
<glyph unicode="&#x2018;" glyph-name="quoteleft" horiz-adv-x="287" d="M194 710T198 706T203 694Q203 689 197 681Q170 648 156 618T142 566Q142 558 144 555T154 551Q176 551 189 536T203 495Q203 471 187 455T147 439Q119 439 103 460T86 518Q86 562 107
610T172 702Q180 710 187 710Q194 710 198 706Z" />
<glyph unicode="&#x2019;" glyph-name="quoteright" horiz-adv-x="286" d="M94 439T90 443T85 455Q85 461 91 468Q118 501 132 531T146 583Q146 591 144 594T134 598Q112 598 99 613T85 654Q85 678 101 694T141 710Q169 710 185 689T202 631Q202 587 181 539T116
447Q108 439 101 439Q94 439 90 443Z" />
<glyph unicode="&#x201a;" glyph-name="quotesinglbase" horiz-adv-x="286" d="M350 -169T346 -165T341 -153Q341 -148 347 -140Q374 -107 388 -77T402 -25Q402 -17 400 -14T390 -10Q368 -10 355 5T341 46Q341 70 357 86T397 102Q425 102 441 81T458 23Q458 -21
437 -69T372 -161Q364 -169 357 -169Q350 -169 346 -165Z" />
<glyph unicode="&#x201c;" glyph-name="quotedblleft" horiz-adv-x="469" d="M398 710T402 706T407 694Q407 689 401 681Q374 648 360 618T346 566Q346 558 348 555T358 551Q380 551 393 536T407 495Q407 471 391 455T351 439Q323 439 307 460T290 518Q290 562
311 610T376 702Q384 710 391 710Q398 710 402 706ZM216 710T220 706T225 694Q225 689 219 681Q192 648 178 618T164 566Q164 558 166 555T176 551Q198 551 211 536T225 495Q225 471 209 455T169 439Q141 439 125 460T108 518Q108 562 129 610T194 702Q202 710
209 710Q216 710 220 706Z" />
<glyph unicode="&#x201d;" glyph-name="quotedblright" horiz-adv-x="468" d="M274 439T270 443T265 455Q265 461 271 468Q298 501 312 531T326 583Q326 591 324 594T314 598Q292 598 279 613T265 654Q265 678 281 694T321 710Q349 710 365 689T382 631Q382 587
361 539T296 447Q288 439 281 439Q274 439 270 443ZM348 439T344 443T339 455Q339 461 345 468Q372 501 386 531T400 583Q400 591 398 594T388 598Q366 598 353 613T339 654Q339 678 355 694T395 710Q423 710 439 689T456 631Q456 587 435 539T370 447Q362 439
355 439Q348 439 344 443Z" />
<glyph unicode="&#x201e;" glyph-name="quotedblbase" horiz-adv-x="468" d="M290 -169T286 -165T281 -153Q281 -148 287 -140Q314 -107 328 -77T342 -25Q342 -17 340 -14T330 -10Q308 -10 295 5T281 46Q281 70 297 86T337 102Q365 102 381 81T398 23Q398 -21
377 -69T312 -161Q304 -169 297 -169Q290 -169 286 -165ZM364 -169T360 -165T355 -153Q355 -148 361 -140Q388 -107 402 -77T416 -25Q416 -17 414 -14T404 -10Q382 -10 369 5T355 46Q355 70 371 86T411 102Q439 102 455 81T472 23Q472 -21 451 -69T386 -161Q378
-169 371 -169Q364 -169 360 -165Z" />
<glyph unicode="&#x2022;" glyph-name="bullet" horiz-adv-x="468" d="M366 387T328 425T234 463Q178 463 140 425T102 331Q102 275 140 237T234 199Q290 199 328 237T366 331Q366 387 328 425Z" />
<glyph unicode="&#x2039;" glyph-name="guilsinglleft" horiz-adv-x="331" d="M269 105Q275 98 275 91Q275 82 265 82H230Q221 82 215 86T200 99L61 265Q54 274 54 284Q54 295 61 303L200 469Q208 478 214 482T230 486H265Q275 486 275 477Q275 470 269 463L119
284L269 105Z" />
<glyph unicode="&#x203a;" glyph-name="guilsinglright" horiz-adv-x="331" d="M277 295T277 284Q277 274 270 265L131 99Q123 90 117 86T101 82H66Q56 82 56 91Q56 98 62 105L212 284L62 463Q56 470 56 477Q56 486 66 486H101Q110 486 116 482T131 469L270 303Q277
295 277 284Z" />
</font>
</defs>
</svg>
