<svg width="13" height="13" viewBox="0 0 13 13" fill="none" xmlns="http://www.w3.org/2000/svg">
<path d="M4.92857 3.35714V2.57143C4.92857 1.83065 4.92857 1.46026 5.15871 1.23013C5.38884 1 5.75923 1 6.5 1H10.4286C11.1693 1 11.5397 1 11.7699 1.23013C12 1.46026 12 1.83065 12 2.57143V6.5C12 7.24077 12 7.61116 11.7699 7.84129C11.5397 8.07143 11.1693 8.07143 10.4286 8.07143H9.64286M2.57143 12H6.5C7.24077 12 7.61116 12 7.84129 11.7699C8.07143 11.5397 8.07143 11.1693 8.07143 10.4286V6.5C8.07143 5.75923 8.07143 5.38884 7.84129 5.15871C7.61116 4.92857 7.24077 4.92857 6.5 4.92857H2.57143C1.83065 4.92857 1.46026 4.92857 1.23013 5.15871C1 5.38884 1 5.75923 1 6.5V10.4286C1 11.1693 1 11.5397 1.23013 11.7699C1.46026 12 1.83065 12 2.57143 12Z" stroke="#515151" stroke-linecap="round" stroke-linejoin="round"/>
</svg>
