<svg width="14" height="13" viewBox="0 0 14 13" fill="none" xmlns="http://www.w3.org/2000/svg">
<path d="M10.9741 13C10.8805 12.9999 10.7886 12.9768 10.7066 12.933L7.00001 11.0344L3.29343 12.933C3.19925 12.9822 3.0928 13.0048 2.98611 12.9983C2.87941 12.9917 2.77674 12.9561 2.68968 12.8958C2.60276 12.8337 2.53528 12.7492 2.49479 12.6519C2.4543 12.5546 2.4424 12.4483 2.46041 12.3448L3.1788 8.32435L0.167686 5.48024C0.0922167 5.40661 0.0393542 5.31399 0.0150513 5.21266C-0.0092592 5.1114 -0.00403937 5.00546 0.0301222 4.90692C0.062121 4.808 0.122129 4.71988 0.203246 4.65271C0.284362 4.58554 0.383293 4.54204 0.488667 4.52721L4.63086 3.93903L6.48797 0.283383C6.54078 0.197003 6.61583 0.125468 6.70555 0.0757934C6.79535 0.0261183 6.89676 0 7.00001 0C7.10326 0 7.20467 0.0261183 7.29447 0.0757934C7.3842 0.125468 7.45917 0.197003 7.51205 0.283383L9.36916 3.93903L13.5113 4.52721C13.6167 4.54204 13.7156 4.58554 13.7968 4.65271C13.8779 4.71988 13.9379 4.808 13.9699 4.90692C14.0041 5.00546 14.0092 5.1114 13.9849 5.21266C13.9606 5.31399 13.9078 5.40661 13.8323 5.48024L10.8212 8.32435L11.532 12.3448C11.55 12.4483 11.5381 12.5546 11.4976 12.6519C11.4571 12.7492 11.3896 12.8337 11.3027 12.8958C11.2059 12.9609 11.0917 12.9972 10.9741 13ZM6.5 6.5C6.59247 6.50104 10.6592 9.12635 9.36916 9.81936L10.2098 11.3993L6.5 6.5C6.48487 6.41036 9.64345 8.02378 9.67126 7.93719C8.475 7.93719 6.43504 6.56507 6.5 6.5L12.1969 5.4728L11 7C9.81242 7.5 6.57436 6.55309 6.5 6.5C6.42556 6.44691 8.51634 4.77134 8.475 4.691L7.00001 1.78734L9.848 7.14185C9.80666 7.22218 5 8.5 5.34888 4.90145C7.67898 7.14185 4.28979 8.64778 4.63086 6.21838V8.32435L1.80316 5.4728L4.18759 7.70639C4.25251 7.77146 4.30084 7.85053 4.32871 7.93719C4.35658 8.02378 4.36322 8.11558 4.34809 8.20522L3.79019 11.4216L3.29343 5.58567C3.37544 5.53966 6.40577 6.50797 6.5 6.5Z" fill="#F1B873"/>
</svg>
