<svg width="13" height="9" viewBox="0 0 13 9" fill="none" xmlns="http://www.w3.org/2000/svg">
<path d="M2.94407 8.99998C2.16012 9.00256 1.4072 8.69604 0.850599 8.14774C0.28553 7.55154 -0.0197842 6.75792 0.000995237 5.9394C0.0217672 5.12081 0.366962 4.3435 0.96156 3.77632L3.743 0.991835C4.34758 0.372004 5.17484 0.0153551 6.04359 0C6.43381 0.00258612 6.81973 0.0818079 7.17903 0.233118C7.53832 0.384428 7.86388 0.604828 8.13707 0.881631C8.70985 1.48135 9.01981 2.28215 8.99902 3.10848C8.97816 3.93479 8.62833 4.71922 8.02611 5.28979L7.09403 6.2155C7.04321 6.26965 6.98196 6.31307 6.9139 6.34319C6.84585 6.37331 6.77239 6.38947 6.6979 6.3908C6.6234 6.39212 6.54943 6.37845 6.48034 6.35076C6.41125 6.32306 6.34852 6.28184 6.29585 6.22946C6.2431 6.17715 6.2016 6.11485 6.17371 6.04623C6.14583 5.97761 6.13207 5.90414 6.1334 5.83015C6.13473 5.75617 6.151 5.68321 6.18133 5.61562C6.21166 5.54803 6.25538 5.4872 6.3099 5.43672L7.21239 4.48162C7.60053 4.11986 7.82919 3.62049 7.84857 3.09217C7.86795 2.56386 7.67658 2.0493 7.31595 1.66041C6.92174 1.31899 6.41102 1.14022 5.8884 1.16071C5.36577 1.18119 4.87081 1.3994 4.50493 1.77061L1.74569 4.54775C1.36481 4.90863 1.14026 5.40256 1.11955 5.925C1.09884 6.44744 1.2836 6.95739 1.63473 7.34693C1.8277 7.53633 2.06029 7.68128 2.31597 7.77143C2.57166 7.86158 2.84418 7.89471 3.11421 7.86856C3.18616 7.8615 3.25881 7.86863 3.32796 7.88957C3.39711 7.91051 3.4614 7.94489 3.51711 7.99066C3.57282 8.03643 3.61885 8.09271 3.65254 8.15619C3.68623 8.21974 3.70692 8.28932 3.71341 8.3608C3.72787 8.5059 3.68383 8.65078 3.59093 8.76371C3.49802 8.87663 3.36384 8.94841 3.21778 8.96325L2.94407 8.99998Z" fill="#515151"/>
<path d="M6.95638 9C6.56616 8.99742 6.18023 8.91804 5.82094 8.76633C5.46164 8.61471 5.13608 8.39378 4.86289 8.1163C4.29014 7.51516 3.98018 6.71246 4.00098 5.88421C4.02178 5.05596 4.37164 4.26969 4.97385 3.69779L5.90594 2.7699C5.95676 2.71564 6.01801 2.67211 6.08606 2.64193C6.15412 2.61174 6.22758 2.59551 6.30207 2.5942C6.37656 2.59289 6.45054 2.60653 6.51963 2.63431C6.58872 2.66209 6.65145 2.70344 6.70412 2.75589C6.75687 2.80833 6.79837 2.8708 6.82626 2.93958C6.85414 3.00835 6.8679 3.08201 6.86657 3.15615C6.86524 3.23031 6.84897 3.30344 6.81864 3.37119C6.78831 3.43894 6.74459 3.49991 6.69007 3.5505L5.78758 4.50785C5.39943 4.87046 5.17078 5.371 5.15139 5.90056C5.13201 6.43012 5.32346 6.94591 5.68401 7.33569C6.07822 7.67791 6.58894 7.85708 7.11158 7.83653C7.63421 7.81606 8.12917 7.59734 8.49505 7.22523L11.2839 4.44157C11.6607 4.07587 11.8798 3.57871 11.8949 3.05509C11.9102 2.53149 11.7202 2.02253 11.3653 1.63582C11.1723 1.44597 10.9397 1.30071 10.684 1.21034C10.4283 1.11998 10.1558 1.08674 9.88578 1.11296C9.8138 1.12006 9.74116 1.1129 9.67206 1.0919C9.6029 1.07089 9.53861 1.03646 9.48291 0.990581C9.42721 0.94471 9.38112 0.8883 9.34746 0.824622C9.31373 0.760944 9.29309 0.691249 9.28658 0.619559C9.27208 0.474101 9.31617 0.328872 9.40908 0.215678C9.502 0.10249 9.63611 0.030579 9.78221 0.015696C10.2128 -0.0287322 10.648 0.0214325 11.057 0.162678C11.466 0.303915 11.8389 0.532779 12.1494 0.83312C12.7145 1.43075 13.0198 2.22622 12.999 3.04668C12.9782 3.86716 12.6331 4.64629 12.0384 5.21481L9.25699 8.00583C8.6524 8.62715 7.82514 8.98461 6.95638 9Z" fill="#515151"/>
</svg>
