<svg width="158" height="58" viewBox="0 0 158 58" fill="none" xmlns="http://www.w3.org/2000/svg">
<path d="M4.72388 43.7092C4.72388 42.1951 5.58128 40.0219 6.95592 39.2288C7.75078 38.7702 8.69751 38.3403 9.59526 38.1372C10.6263 37.904 11.6155 37.5765 12.6338 37.3389C13.7162 37.0863 14.8303 36.9616 15.8515 36.451C17.855 35.4492 18.3432 32.8076 19.5335 31.1071C20.6204 29.5545 21.4637 28.0068 22.9712 26.7734C24.3837 25.6177 26.4625 25.5137 27.9729 24.468C30.1845 22.937 31.8409 20.9202 33.4308 18.782C34.6502 17.1421 35.7871 15.0871 37.5365 13.9432C38.4552 13.3425 39.6832 12.8361 40.7135 13.3241C42.0534 13.9588 42.5768 14.9398 43.5076 16.0775C44.4993 17.2895 45.7994 18.3209 47.1815 19.0834C49.2695 20.2354 51.3719 21.2907 53.5111 22.3174C54.8375 22.9541 56.0992 23.7083 57.3153 24.5332C57.9396 24.9566 58.7757 25.3113 59.3355 25.8203C59.9709 26.3979 60.2873 26.9396 60.6715 27.6531C61.5072 29.2052 62.2026 30.795 63.1153 32.3046C64.2705 34.215 66.0662 35.9491 67.7423 37.29C68.1985 37.655 69.3224 38.6074 69.3879 39.1636C69.4323 39.5414 69.6811 39.8994 69.6811 40.3367C69.6811 40.7766 69.6811 41.2165 69.6811 41.6563" stroke="#8B77A5" stroke-linecap="round"/>
<rect y="29" width="7" height="23" fill="#57BD0F"/>
<rect x="13" y="20" width="7" height="25" fill="#57BD0F"/>
<rect x="26" y="11" width="7" height="25" fill="#57BD0F"/>
<rect x="38" y="11" width="7" height="8" fill="#57BD0F"/>
<rect x="51" y="17" width="7" height="17" fill="#ED5565"/>
<rect x="64" y="28" width="7" height="18" fill="#ED5565"/>
<line x1="3.5" y1="52" x2="3.5" y2="58" stroke="#57BD0F"/>
<line x1="16.5" y1="39" x2="16.5" y2="52" stroke="#57BD0F"/>
<line x1="29.5" y1="31" x2="29.5" y2="44" stroke="#57BD0F"/>
<line x1="41.5" x2="41.5" y2="13" stroke="#57BD0F"/>
<line x1="54.5" y1="6" x2="54.5" y2="19" stroke="#ED5565"/>
<line x1="67.5" y1="17" x2="67.5" y2="30" stroke="#ED5565"/>
<path d="M96.296 31.526C96.5 31.526 96.674 31.586 96.818 31.706C96.962 31.826 97.034 31.976 97.034 32.156C97.034 32.408 96.944 32.672 96.764 32.948C96.308 33.692 95.738 34.25 95.054 34.622C94.37 34.994 93.554 35.18 92.606 35.18C91.502 35.18 90.548 34.916 89.744 34.388C88.952 33.848 88.34 33.092 87.908 32.12C87.488 31.136 87.278 29.984 87.278 28.664C87.278 26.636 87.746 25.058 88.682 23.93C89.63 22.79 90.95 22.22 92.642 22.22C93.434 22.22 94.166 22.364 94.838 22.652C95.51 22.94 96.044 23.33 96.44 23.822C96.836 24.302 97.034 24.836 97.034 25.424C97.034 25.808 96.932 26.114 96.728 26.342C96.536 26.57 96.266 26.684 95.918 26.684C95.618 26.684 95.366 26.588 95.162 26.396C94.97 26.204 94.874 25.964 94.874 25.676C94.874 25.328 95 25.046 95.252 24.83C95.036 24.458 94.694 24.17 94.226 23.966C93.758 23.75 93.236 23.642 92.66 23.642C90.164 23.642 88.916 25.31 88.916 28.646C88.916 30.29 89.228 31.556 89.852 32.444C90.488 33.32 91.424 33.758 92.66 33.758C93.332 33.758 93.908 33.62 94.388 33.344C94.88 33.068 95.288 32.642 95.612 32.066C95.72 31.85 95.822 31.706 95.918 31.634C96.014 31.562 96.14 31.526 96.296 31.526ZM103.348 35.18C102.496 35.18 101.746 34.994 101.098 34.622C100.45 34.238 99.9525 33.698 99.6045 33.002C99.2565 32.306 99.0825 31.502 99.0825 30.59C99.0825 29.642 99.2625 28.808 99.6225 28.088C99.9825 27.368 100.486 26.81 101.134 26.414C101.782 26.018 102.538 25.82 103.402 25.82C104.254 25.82 105.004 26.012 105.652 26.396C106.3 26.768 106.798 27.302 107.146 27.998C107.494 28.694 107.668 29.498 107.668 30.41C107.668 31.358 107.488 32.192 107.128 32.912C106.768 33.632 106.264 34.19 105.616 34.586C104.968 34.982 104.212 35.18 103.348 35.18ZM103.348 33.776C104.2 33.776 104.86 33.482 105.328 32.894C105.796 32.306 106.03 31.484 106.03 30.428C106.03 29.396 105.802 28.604 105.346 28.052C104.89 27.5 104.242 27.224 103.402 27.224C102.562 27.224 101.902 27.524 101.422 28.124C100.954 28.712 100.72 29.528 100.72 30.572C100.72 31.592 100.948 32.384 101.404 32.948C101.86 33.5 102.508 33.776 103.348 33.776ZM111.035 24.254C110.699 24.254 110.417 24.14 110.189 23.912C109.961 23.684 109.847 23.402 109.847 23.066C109.847 22.73 109.961 22.454 110.189 22.238C110.417 22.01 110.699 21.896 111.035 21.896C111.371 21.896 111.647 22.01 111.863 22.238C112.091 22.454 112.205 22.73 112.205 23.066C112.205 23.402 112.091 23.684 111.863 23.912C111.647 24.14 111.371 24.254 111.035 24.254ZM110.045 35C109.661 35 109.469 34.838 109.469 34.514V34.064C109.469 33.74 109.661 33.578 110.045 33.578H110.513V27.422H110.045C109.661 27.422 109.469 27.26 109.469 26.936V26.486C109.469 26.162 109.661 26 110.045 26H111.467C111.659 26 111.815 26.066 111.935 26.198C112.067 26.318 112.133 26.474 112.133 26.666V33.578H112.601C112.997 33.578 113.195 33.74 113.195 34.064V34.514C113.195 34.838 112.997 35 112.601 35H110.045ZM123.798 33.578C124.182 33.578 124.374 33.74 124.374 34.064V34.514C124.374 34.838 124.182 35 123.798 35H121.296C120.9 35 120.702 34.838 120.702 34.514V34.064C120.702 33.74 120.9 33.578 121.296 33.578H121.71V30.104C121.71 29.036 121.578 28.292 121.314 27.872C121.062 27.44 120.618 27.224 119.982 27.224C119.538 27.224 119.112 27.374 118.704 27.674C118.308 27.962 117.984 28.34 117.732 28.808C117.492 29.276 117.372 29.768 117.372 30.284V33.578H117.786C118.182 33.578 118.38 33.74 118.38 34.064V34.514C118.38 34.838 118.182 35 117.786 35H115.284C114.9 35 114.708 34.838 114.708 34.514V34.064C114.708 33.74 114.9 33.578 115.284 33.578H115.752V27.422H115.284C114.9 27.422 114.708 27.26 114.708 26.936V26.486C114.708 26.162 114.9 26 115.284 26H116.706C116.898 26 117.054 26.066 117.174 26.198C117.306 26.318 117.372 26.474 117.372 26.666V28.016C117.624 27.38 118.032 26.858 118.596 26.45C119.172 26.03 119.766 25.82 120.378 25.82C122.346 25.82 123.33 27.164 123.33 29.852V33.578H123.798ZM135.267 31.526C135.471 31.526 135.645 31.586 135.789 31.706C135.933 31.826 136.005 31.976 136.005 32.156C136.005 32.408 135.915 32.672 135.735 32.948C135.279 33.692 134.709 34.25 134.025 34.622C133.341 34.994 132.525 35.18 131.577 35.18C130.473 35.18 129.519 34.916 128.715 34.388C127.923 33.848 127.311 33.092 126.879 32.12C126.459 31.136 126.249 29.984 126.249 28.664C126.249 26.636 126.717 25.058 127.653 23.93C128.601 22.79 129.921 22.22 131.613 22.22C132.405 22.22 133.137 22.364 133.809 22.652C134.481 22.94 135.015 23.33 135.411 23.822C135.807 24.302 136.005 24.836 136.005 25.424C136.005 25.808 135.903 26.114 135.699 26.342C135.507 26.57 135.237 26.684 134.889 26.684C134.589 26.684 134.337 26.588 134.133 26.396C133.941 26.204 133.845 25.964 133.845 25.676C133.845 25.328 133.971 25.046 134.223 24.83C134.007 24.458 133.665 24.17 133.197 23.966C132.729 23.75 132.207 23.642 131.631 23.642C129.135 23.642 127.887 25.31 127.887 28.646C127.887 30.29 128.199 31.556 128.823 32.444C129.459 33.32 130.395 33.758 131.631 33.758C132.303 33.758 132.879 33.62 133.359 33.344C133.851 33.068 134.259 32.642 134.583 32.066C134.691 31.85 134.793 31.706 134.889 31.634C134.985 31.562 135.111 31.526 135.267 31.526ZM145.847 33.578C146.231 33.578 146.423 33.74 146.423 34.064V34.514C146.423 34.838 146.231 35 145.847 35H144.407C144.227 35 144.071 34.94 143.939 34.82C143.819 34.688 143.759 34.526 143.759 34.334V33.2C143.531 33.764 143.135 34.238 142.571 34.622C142.019 34.994 141.431 35.18 140.807 35.18C139.967 35.18 139.289 34.94 138.773 34.46C138.257 33.968 137.999 33.32 137.999 32.516C137.999 31.676 138.281 31.028 138.845 30.572C139.421 30.116 140.237 29.888 141.293 29.888C142.097 29.888 142.919 29.984 143.759 30.176V29.366C143.759 28.622 143.585 28.07 143.237 27.71C142.889 27.35 142.349 27.17 141.617 27.17C141.053 27.17 140.633 27.278 140.357 27.494C140.441 27.638 140.483 27.794 140.483 27.962C140.483 28.238 140.387 28.472 140.195 28.664C140.003 28.856 139.769 28.952 139.493 28.952C139.169 28.952 138.911 28.85 138.719 28.646C138.527 28.442 138.431 28.166 138.431 27.818C138.431 27.23 138.737 26.75 139.349 26.378C139.961 26.006 140.741 25.82 141.689 25.82C142.877 25.82 143.783 26.138 144.407 26.774C145.043 27.41 145.361 28.31 145.361 29.474V33.578H145.847ZM141.185 33.866C141.641 33.866 142.061 33.746 142.445 33.506C142.841 33.254 143.153 32.924 143.381 32.516C143.621 32.096 143.747 31.64 143.759 31.148C143.219 31.064 142.475 31.022 141.527 31.022C140.231 31.022 139.583 31.502 139.583 32.462C139.583 32.906 139.727 33.254 140.015 33.506C140.303 33.746 140.693 33.866 141.185 33.866ZM153.278 25.82C154.01 25.82 154.646 26.006 155.186 26.378C155.726 26.75 156.146 27.284 156.446 27.98C156.746 28.664 156.896 29.468 156.896 30.392C156.896 31.88 156.542 33.05 155.834 33.902C155.126 34.754 154.16 35.18 152.936 35.18C152.444 35.18 151.97 35.066 151.514 34.838C151.058 34.598 150.668 34.262 150.344 33.83V37.718H150.812C151.208 37.718 151.406 37.88 151.406 38.204V38.654C151.406 38.978 151.208 39.14 150.812 39.14H148.274C147.878 39.14 147.68 38.978 147.68 38.654V38.204C147.68 37.88 147.878 37.718 148.274 37.718H148.742V27.422H148.274C147.878 27.422 147.68 27.26 147.68 26.936V26.486C147.68 26.162 147.878 26 148.274 26H149.714C149.894 26 150.044 26.066 150.164 26.198C150.284 26.318 150.344 26.474 150.344 26.666V27.8C150.56 27.236 150.944 26.768 151.496 26.396C152.06 26.012 152.654 25.82 153.278 25.82ZM152.774 33.776C153.578 33.776 154.19 33.482 154.61 32.894C155.042 32.294 155.258 31.43 155.258 30.302C155.258 29.33 155.054 28.574 154.646 28.034C154.238 27.494 153.662 27.224 152.918 27.224C152.45 27.224 152.018 27.356 151.622 27.62C151.226 27.872 150.914 28.22 150.686 28.664C150.458 29.108 150.344 29.594 150.344 30.122V32.444C150.668 32.876 151.04 33.206 151.46 33.434C151.88 33.662 152.318 33.776 152.774 33.776Z" fill="#6F5D69"/>
</svg>
